%TF.GenerationSoftware,KiCad,Pcbnew,7.0.10*%
%TF.CreationDate,2025-02-19T14:50:57-05:00*%
%TF.ProjectId,demoTest,64656d6f-5465-4737-942e-6b696361645f,rev?*%
%TF.SameCoordinates,Original*%
%TF.FileFunction,Copper,L1,Top*%
%TF.FilePolarity,Positive*%
%FSLAX46Y46*%
G04 Gerber Fmt 4.6, Leading zero omitted, Abs format (unit mm)*
G04 Created by KiCad (PCBNEW 7.0.10) date 2025-02-19 14:50:57*
%MOMM*%
%LPD*%
G01*
G04 APERTURE LIST*
G04 Aperture macros list*
%AMRoundRect*
0 Rectangle with rounded corners*
0 $1 Rounding radius*
0 $2 $3 $4 $5 $6 $7 $8 $9 X,Y pos of 4 corners*
0 Add a 4 corners polygon primitive as box body*
4,1,4,$2,$3,$4,$5,$6,$7,$8,$9,$2,$3,0*
0 Add four circle primitives for the rounded corners*
1,1,$1+$1,$2,$3*
1,1,$1+$1,$4,$5*
1,1,$1+$1,$6,$7*
1,1,$1+$1,$8,$9*
0 Add four rect primitives between the rounded corners*
20,1,$1+$1,$2,$3,$4,$5,0*
20,1,$1+$1,$4,$5,$6,$7,0*
20,1,$1+$1,$6,$7,$8,$9,0*
20,1,$1+$1,$8,$9,$2,$3,0*%
G04 Aperture macros list end*
%TA.AperFunction,SMDPad,CuDef*%
%ADD10RoundRect,0.250000X0.312500X0.625000X-0.312500X0.625000X-0.312500X-0.625000X0.312500X-0.625000X0*%
%TD*%
%TA.AperFunction,SMDPad,CuDef*%
%ADD11RoundRect,0.250000X-0.375000X-0.625000X0.375000X-0.625000X0.375000X0.625000X-0.375000X0.625000X0*%
%TD*%
%TA.AperFunction,SMDPad,CuDef*%
%ADD12RoundRect,0.250000X-0.312500X-0.625000X0.312500X-0.625000X0.312500X0.625000X-0.312500X0.625000X0*%
%TD*%
%TA.AperFunction,SMDPad,CuDef*%
%ADD13RoundRect,0.250000X-0.325000X-0.650000X0.325000X-0.650000X0.325000X0.650000X-0.325000X0.650000X0*%
%TD*%
%TA.AperFunction,ComponentPad*%
%ADD14C,1.440000*%
%TD*%
%TA.AperFunction,ComponentPad*%
%ADD15R,1.700000X1.700000*%
%TD*%
%TA.AperFunction,ComponentPad*%
%ADD16O,1.700000X1.700000*%
%TD*%
%TA.AperFunction,SMDPad,CuDef*%
%ADD17RoundRect,0.250000X-0.625000X0.312500X-0.625000X-0.312500X0.625000X-0.312500X0.625000X0.312500X0*%
%TD*%
%TA.AperFunction,SMDPad,CuDef*%
%ADD18R,2.794000X5.080000*%
%TD*%
%TA.AperFunction,SMDPad,CuDef*%
%ADD19C,17.780001*%
%TD*%
%TA.AperFunction,SMDPad,CuDef*%
%ADD20RoundRect,0.250000X-0.650000X0.325000X-0.650000X-0.325000X0.650000X-0.325000X0.650000X0.325000X0*%
%TD*%
%TA.AperFunction,SMDPad,CuDef*%
%ADD21RoundRect,0.150000X0.150000X-0.825000X0.150000X0.825000X-0.150000X0.825000X-0.150000X-0.825000X0*%
%TD*%
%TA.AperFunction,ViaPad*%
%ADD22C,0.800000*%
%TD*%
%TA.AperFunction,Conductor*%
%ADD23C,0.500000*%
%TD*%
G04 APERTURE END LIST*
D10*
%TO.P,R3,1*%
%TO.N,/out*%
X114462500Y-94500000D03*
%TO.P,R3,2*%
%TO.N,Net-(D2-A)*%
X111537500Y-94500000D03*
%TD*%
D11*
%TO.P,D2,1,K*%
%TO.N,GND*%
X104600000Y-94500000D03*
%TO.P,D2,2,A*%
%TO.N,Net-(D2-A)*%
X107400000Y-94500000D03*
%TD*%
D12*
%TO.P,R2,1*%
%TO.N,+3V0*%
X119537500Y-89500000D03*
%TO.P,R2,2*%
%TO.N,Net-(D1-A)*%
X122462500Y-89500000D03*
%TD*%
D13*
%TO.P,C2,1*%
%TO.N,Net-(U2-CV)*%
X119525000Y-84000000D03*
%TO.P,C2,2*%
%TO.N,GND*%
X122475000Y-84000000D03*
%TD*%
D14*
%TO.P,RV1,1,1*%
%TO.N,Net-(R4-Pad1)*%
X121525000Y-77500000D03*
%TO.P,RV1,2,2*%
X118985000Y-77500000D03*
%TO.P,RV1,3,3*%
%TO.N,Net-(U2-DIS)*%
X116445000Y-77500000D03*
%TD*%
D11*
%TO.P,D1,1,K*%
%TO.N,/out*%
X119600000Y-94500000D03*
%TO.P,D1,2,A*%
%TO.N,Net-(D1-A)*%
X122400000Y-94500000D03*
%TD*%
D15*
%TO.P,SW1,1,A*%
%TO.N,+3V0*%
X105000000Y-77460000D03*
D16*
%TO.P,SW1,2,B*%
%TO.N,Net-(SW1-B)*%
X105000000Y-80000000D03*
%TO.P,SW1,3,C*%
%TO.N,unconnected-(SW1-C-Pad3)*%
X105000000Y-82540000D03*
%TD*%
D12*
%TO.P,R1,1*%
%TO.N,+3V0*%
X109037500Y-78000000D03*
%TO.P,R1,2*%
%TO.N,Net-(U2-DIS)*%
X111962500Y-78000000D03*
%TD*%
D17*
%TO.P,R4,1*%
%TO.N,Net-(R4-Pad1)*%
X128000000Y-77575000D03*
%TO.P,R4,2*%
%TO.N,Net-(U2-THR)*%
X128000000Y-80500000D03*
%TD*%
D18*
%TO.P,B1,1,1*%
%TO.N,Net-(SW1-B)*%
X105000000Y-60695200D03*
%TO.P,B1,2,2*%
X126970000Y-60695200D03*
D19*
%TO.P,B1,3,3*%
%TO.N,GND*%
X115985000Y-60695200D03*
%TD*%
D20*
%TO.P,C1,1*%
%TO.N,Net-(U2-THR)*%
X128000000Y-83525000D03*
%TO.P,C1,2*%
%TO.N,GND*%
X128000000Y-86475000D03*
%TD*%
D21*
%TO.P,U2,1,GND*%
%TO.N,GND*%
X110595000Y-88975000D03*
%TO.P,U2,2,TR*%
%TO.N,Net-(U2-THR)*%
X111865000Y-88975000D03*
%TO.P,U2,3,Q*%
%TO.N,/out*%
X113135000Y-88975000D03*
%TO.P,U2,4,R*%
%TO.N,+3V0*%
X114405000Y-88975000D03*
%TO.P,U2,5,CV*%
%TO.N,Net-(U2-CV)*%
X114405000Y-84025000D03*
%TO.P,U2,6,THR*%
%TO.N,Net-(U2-THR)*%
X113135000Y-84025000D03*
%TO.P,U2,7,DIS*%
%TO.N,Net-(U2-DIS)*%
X111865000Y-84025000D03*
%TO.P,U2,8,VCC*%
%TO.N,+3V0*%
X110595000Y-84025000D03*
%TD*%
D22*
%TO.N,GND*%
X103000000Y-94500000D03*
X128000000Y-88000000D03*
X116000000Y-71000000D03*
X109000000Y-89000000D03*
X124000000Y-84000000D03*
X124500000Y-67000000D03*
X107500000Y-67000000D03*
%TO.N,+3V0*%
X116500000Y-88000000D03*
X108500000Y-85000000D03*
%TD*%
D23*
%TO.N,Net-(SW1-B)*%
X126970000Y-60695200D02*
X126970000Y-71030000D01*
X104534000Y-59034000D02*
X104534000Y-60695200D01*
X126970000Y-71030000D02*
X125500000Y-72500000D01*
X103000000Y-80000000D02*
X105000000Y-80000000D01*
X104000000Y-72500000D02*
X102500000Y-74000000D01*
X102500000Y-74000000D02*
X102500000Y-79500000D01*
X105000000Y-60695200D02*
X105000000Y-72500000D01*
X126504000Y-60695200D02*
X126504000Y-58996000D01*
X105000000Y-72500000D02*
X104000000Y-72500000D01*
X125500000Y-72500000D02*
X105000000Y-72500000D01*
X102500000Y-79500000D02*
X103000000Y-80000000D01*
%TO.N,GND*%
X128000000Y-88000000D02*
X128000000Y-86475000D01*
X109000000Y-89000000D02*
X110570000Y-89000000D01*
X103000000Y-94500000D02*
X104600000Y-94500000D01*
X107500000Y-67000000D02*
X113804800Y-60695200D01*
X116000000Y-71000000D02*
X116000000Y-60710200D01*
X124500000Y-67000000D02*
X118195200Y-60695200D01*
X110570000Y-89000000D02*
X110595000Y-88975000D01*
X122475000Y-84000000D02*
X124000000Y-84000000D01*
%TO.N,Net-(U2-THR)*%
X125975000Y-81500000D02*
X115102316Y-81500000D01*
X111865000Y-88975000D02*
X111865000Y-87385000D01*
X113135000Y-86115000D02*
X113135000Y-84025000D01*
X128000000Y-83525000D02*
X125975000Y-81500000D01*
X128000000Y-80500000D02*
X128000000Y-83525000D01*
X111865000Y-87385000D02*
X113135000Y-86115000D01*
X113135000Y-83467316D02*
X113135000Y-84025000D01*
X115102316Y-81500000D02*
X113135000Y-83467316D01*
%TO.N,Net-(U2-CV)*%
X114405000Y-84025000D02*
X119500000Y-84025000D01*
X119500000Y-84025000D02*
X119525000Y-84000000D01*
%TO.N,/out*%
X114500000Y-92500000D02*
X114500000Y-94462500D01*
X113135000Y-88975000D02*
X113135000Y-91135000D01*
X113135000Y-91135000D02*
X114500000Y-92500000D01*
X114500000Y-94462500D02*
X114462500Y-94500000D01*
X114462500Y-94500000D02*
X119600000Y-94500000D01*
%TO.N,Net-(D1-A)*%
X122462500Y-89500000D02*
X122462500Y-94437500D01*
X122462500Y-94437500D02*
X122400000Y-94500000D01*
%TO.N,Net-(D2-A)*%
X107400000Y-94500000D02*
X111537500Y-94500000D01*
X111437500Y-94400000D02*
X111537500Y-94500000D01*
%TO.N,+3V0*%
X119537500Y-89500000D02*
X114930000Y-89500000D01*
X109000000Y-78000000D02*
X109000000Y-82430000D01*
X109000000Y-82430000D02*
X110595000Y-84025000D01*
X116500000Y-88000000D02*
X115380000Y-88000000D01*
X115380000Y-88000000D02*
X114405000Y-88975000D01*
X109475000Y-84025000D02*
X108500000Y-85000000D01*
X104540000Y-78000000D02*
X109000000Y-78000000D01*
X114930000Y-89500000D02*
X114405000Y-88975000D01*
X105540000Y-78000000D02*
X105000000Y-77460000D01*
X110595000Y-84025000D02*
X109475000Y-84025000D01*
%TO.N,Net-(U2-DIS)*%
X115000000Y-78000000D02*
X115500000Y-77500000D01*
X111962500Y-78000000D02*
X115000000Y-78000000D01*
X115500000Y-77500000D02*
X116445000Y-77500000D01*
X111865000Y-84025000D02*
X111865000Y-78402500D01*
%TO.N,Net-(R4-Pad1)*%
X127925000Y-77500000D02*
X128000000Y-77575000D01*
X121525000Y-77500000D02*
X127925000Y-77500000D01*
X118985000Y-77500000D02*
X121525000Y-77500000D01*
%TD*%
M02*
