%TF.GenerationSoftware,KiCad,Pcbnew,8.0.7*%
%TF.CreationDate,2025-01-31T21:54:53-05:00*%
%TF.ProjectId,filter_board,66696c74-6572-45f6-926f-6172642e6b69,rev?*%
%TF.SameCoordinates,Original*%
%TF.FileFunction,Copper,L2,Bot*%
%TF.FilePolarity,Positive*%
%FSLAX46Y46*%
G04 Gerber Fmt 4.6, Leading zero omitted, Abs format (unit mm)*
G04 Created by KiCad (PCBNEW 8.0.7) date 2025-01-31 21:54:53*
%MOMM*%
%LPD*%
G01*
G04 APERTURE LIST*
%TA.AperFunction,ComponentPad*%
%ADD10C,4.000000*%
%TD*%
%TA.AperFunction,ComponentPad*%
%ADD11C,11.000000*%
%TD*%
%TA.AperFunction,ViaPad*%
%ADD12C,0.600000*%
%TD*%
G04 APERTURE END LIST*
D10*
%TO.P,J4,1,Pin_1*%
%TO.N,GND*%
X209000000Y-145800000D03*
%TD*%
%TO.P,J3,1,Pin_1*%
%TO.N,/VOUT*%
X209000000Y-126800000D03*
%TD*%
D11*
%TO.P,J1,2,Pin_2*%
%TO.N,GND*%
X209000000Y-137025000D03*
%TO.P,J1,1,Pin_1*%
%TO.N,/VOUT*%
X209000000Y-117975000D03*
%TD*%
%TO.P,J2,1,Pin_1*%
%TO.N,/VIN*%
X104000000Y-117975000D03*
%TO.P,J2,2,Pin_2*%
%TO.N,GND*%
X104000000Y-137025000D03*
%TD*%
D12*
%TO.N,GND*%
X97000000Y-136000000D03*
X97000000Y-138500000D03*
X114500000Y-106500000D03*
X172000000Y-153500000D03*
X107000000Y-101500000D03*
X209500000Y-153500000D03*
X124500000Y-153500000D03*
X182000000Y-101500000D03*
X169500000Y-101500000D03*
X122000000Y-151000000D03*
X192000000Y-101500000D03*
X204500000Y-104000000D03*
X97000000Y-141000000D03*
X107000000Y-143500000D03*
X204500000Y-106500000D03*
X109500000Y-101500000D03*
X172000000Y-151000000D03*
X164500000Y-153500000D03*
X172000000Y-101500000D03*
X154500000Y-151000000D03*
X192000000Y-151000000D03*
X99500000Y-101500000D03*
X164500000Y-101500000D03*
X99500000Y-148500000D03*
X157000000Y-146000000D03*
X114500000Y-101500000D03*
X202000000Y-143500000D03*
X157000000Y-151000000D03*
X212000000Y-101500000D03*
X149500000Y-101500000D03*
X182000000Y-151000000D03*
X112000000Y-143500000D03*
X162000000Y-153500000D03*
X132000000Y-153500000D03*
X112000000Y-148500000D03*
X127000000Y-153500000D03*
X159500000Y-151000000D03*
X209500000Y-104000000D03*
X197000000Y-148500000D03*
X112000000Y-104000000D03*
X122000000Y-104000000D03*
X177000000Y-153500000D03*
X152000000Y-106500000D03*
X174500000Y-106500000D03*
X157000000Y-101500000D03*
X109500000Y-143500000D03*
X149500000Y-106500000D03*
X104500000Y-104000000D03*
X139500000Y-101500000D03*
X97000000Y-143500000D03*
X114500000Y-143500000D03*
X197000000Y-151000000D03*
X199500000Y-148500000D03*
X214500000Y-104000000D03*
X189500000Y-153500000D03*
X142000000Y-106500000D03*
X179500000Y-151000000D03*
X204500000Y-101500000D03*
X152000000Y-104000000D03*
X114500000Y-151000000D03*
X139500000Y-151000000D03*
X202000000Y-138500000D03*
X137000000Y-148500000D03*
X204500000Y-146000000D03*
X134500000Y-106500000D03*
X189500000Y-101500000D03*
X134500000Y-104000000D03*
X189500000Y-151000000D03*
X117000000Y-146000000D03*
X202000000Y-133500000D03*
X129500000Y-101500000D03*
X157000000Y-104000000D03*
X104500000Y-153500000D03*
X159500000Y-101500000D03*
X197000000Y-133500000D03*
X132000000Y-151000000D03*
X149500000Y-104000000D03*
X104500000Y-146000000D03*
X122000000Y-153500000D03*
X157000000Y-106500000D03*
X209500000Y-106500000D03*
X159500000Y-104000000D03*
X202000000Y-146000000D03*
X102000000Y-104000000D03*
X112000000Y-101500000D03*
X117000000Y-101500000D03*
X109500000Y-104000000D03*
X102000000Y-101500000D03*
X134500000Y-101500000D03*
X99500000Y-146000000D03*
X137000000Y-146000000D03*
X212000000Y-143500000D03*
X102000000Y-146000000D03*
X164500000Y-104000000D03*
X134500000Y-153500000D03*
X147000000Y-153500000D03*
X112000000Y-141000000D03*
X142000000Y-104000000D03*
X139500000Y-104000000D03*
X127000000Y-151000000D03*
X107000000Y-104000000D03*
X164500000Y-151000000D03*
X119500000Y-151000000D03*
X187000000Y-153500000D03*
X159500000Y-153500000D03*
X152000000Y-151000000D03*
X117000000Y-106500000D03*
X179500000Y-148500000D03*
X157000000Y-143500000D03*
X159500000Y-148500000D03*
X137000000Y-151000000D03*
X137000000Y-106500000D03*
X109500000Y-146000000D03*
X207000000Y-153500000D03*
X179500000Y-101500000D03*
X194500000Y-101500000D03*
X137000000Y-104000000D03*
X132000000Y-101500000D03*
X162000000Y-104000000D03*
X177000000Y-151000000D03*
X154500000Y-101500000D03*
X97000000Y-153500000D03*
X137000000Y-143500000D03*
X154500000Y-106500000D03*
X177000000Y-101500000D03*
X117000000Y-143500000D03*
X129500000Y-104000000D03*
X179500000Y-104000000D03*
X209500000Y-151000000D03*
X199500000Y-146000000D03*
X122000000Y-101500000D03*
X174500000Y-101500000D03*
X97000000Y-148500000D03*
X189500000Y-104000000D03*
X99500000Y-143500000D03*
X147000000Y-104000000D03*
X202000000Y-153500000D03*
X212000000Y-151000000D03*
X104500000Y-151000000D03*
X162000000Y-101500000D03*
X214500000Y-106500000D03*
X212000000Y-148500000D03*
X127000000Y-101500000D03*
X174500000Y-146000000D03*
X109500000Y-148500000D03*
X197000000Y-136000000D03*
X129500000Y-153500000D03*
X147000000Y-101500000D03*
X134500000Y-143500000D03*
X199500000Y-136000000D03*
X167000000Y-101500000D03*
X212000000Y-153500000D03*
X169500000Y-151000000D03*
X199500000Y-153500000D03*
X194500000Y-153500000D03*
X159500000Y-146000000D03*
X199500000Y-101500000D03*
X184500000Y-153500000D03*
X174500000Y-148500000D03*
X179500000Y-106500000D03*
X107000000Y-148500000D03*
X102000000Y-151000000D03*
X154500000Y-153500000D03*
X184500000Y-104000000D03*
X204500000Y-151000000D03*
X179500000Y-153500000D03*
X112000000Y-136000000D03*
X207000000Y-151000000D03*
X114500000Y-153500000D03*
X204500000Y-143500000D03*
X144500000Y-153500000D03*
X152000000Y-153500000D03*
X109500000Y-133500000D03*
X202000000Y-141000000D03*
X197000000Y-143500000D03*
X197000000Y-141000000D03*
X174500000Y-151000000D03*
X154500000Y-104000000D03*
X107000000Y-153500000D03*
X97000000Y-146000000D03*
X114500000Y-148500000D03*
X102000000Y-148500000D03*
X154500000Y-143500000D03*
X184500000Y-101500000D03*
X207000000Y-101500000D03*
X199500000Y-143500000D03*
X169500000Y-104000000D03*
X144500000Y-101500000D03*
X109500000Y-151000000D03*
X154500000Y-148500000D03*
X192000000Y-104000000D03*
X99500000Y-151000000D03*
X144500000Y-104000000D03*
X142000000Y-151000000D03*
X197000000Y-146000000D03*
X157000000Y-148500000D03*
X127000000Y-104000000D03*
X117000000Y-153500000D03*
X179500000Y-146000000D03*
X214500000Y-148500000D03*
X134500000Y-146000000D03*
X152000000Y-101500000D03*
X179500000Y-143500000D03*
X169500000Y-153500000D03*
X172000000Y-104000000D03*
X207000000Y-148500000D03*
X204500000Y-148500000D03*
X102000000Y-143500000D03*
X119500000Y-153500000D03*
X117000000Y-148500000D03*
X177000000Y-104000000D03*
X107000000Y-146000000D03*
X167000000Y-153500000D03*
X212000000Y-146000000D03*
X144500000Y-106500000D03*
X199500000Y-138500000D03*
X119500000Y-101500000D03*
X214500000Y-133500000D03*
X207000000Y-106500000D03*
X104500000Y-143500000D03*
X192000000Y-153500000D03*
X214500000Y-151000000D03*
X214500000Y-153500000D03*
X202000000Y-101500000D03*
X112000000Y-138500000D03*
X199500000Y-151000000D03*
X214500000Y-143500000D03*
X132000000Y-104000000D03*
X102000000Y-153500000D03*
X139500000Y-106500000D03*
X124500000Y-101500000D03*
X197000000Y-104000000D03*
X154500000Y-146000000D03*
X97000000Y-104000000D03*
X159500000Y-106500000D03*
X159500000Y-143500000D03*
X209500000Y-148500000D03*
X137000000Y-101500000D03*
X197000000Y-138500000D03*
X202000000Y-148500000D03*
X202000000Y-106500000D03*
X114500000Y-104000000D03*
X129500000Y-151000000D03*
X137000000Y-153500000D03*
X107000000Y-151000000D03*
X207000000Y-104000000D03*
X214500000Y-101500000D03*
X117000000Y-104000000D03*
X99500000Y-153500000D03*
X202000000Y-104000000D03*
X149500000Y-151000000D03*
X119500000Y-104000000D03*
X202000000Y-151000000D03*
X182000000Y-153500000D03*
X209500000Y-101500000D03*
X112000000Y-151000000D03*
X197000000Y-106500000D03*
X187000000Y-101500000D03*
X144500000Y-151000000D03*
X104500000Y-148500000D03*
X157000000Y-153500000D03*
X109500000Y-153500000D03*
X99500000Y-104000000D03*
X142000000Y-101500000D03*
X139500000Y-153500000D03*
X104500000Y-101500000D03*
X202000000Y-136000000D03*
X194500000Y-151000000D03*
X97000000Y-151000000D03*
X177000000Y-146000000D03*
X142000000Y-153500000D03*
X162000000Y-151000000D03*
X177000000Y-143500000D03*
X147000000Y-106500000D03*
X174500000Y-104000000D03*
X194500000Y-104000000D03*
X134500000Y-148500000D03*
X182000000Y-104000000D03*
X112000000Y-153500000D03*
X199500000Y-141000000D03*
X114500000Y-146000000D03*
X212000000Y-106500000D03*
X132000000Y-106500000D03*
X214500000Y-146000000D03*
X97000000Y-133500000D03*
X199500000Y-104000000D03*
X204500000Y-153500000D03*
X197000000Y-153500000D03*
X117000000Y-151000000D03*
X134500000Y-151000000D03*
X199500000Y-106500000D03*
X174500000Y-153500000D03*
X109500000Y-141000000D03*
X199500000Y-133500000D03*
X112000000Y-146000000D03*
X177000000Y-148500000D03*
X214500000Y-141000000D03*
X212000000Y-104000000D03*
X174500000Y-143500000D03*
X184500000Y-151000000D03*
X177000000Y-106500000D03*
X197000000Y-101500000D03*
X149500000Y-153500000D03*
X97000000Y-101500000D03*
%TD*%
%TA.AperFunction,Conductor*%
%TO.N,GND*%
G36*
X217337397Y-100520185D02*
G01*
X217358039Y-100536819D01*
X217463181Y-100641961D01*
X217496666Y-100703284D01*
X217499500Y-100729642D01*
X217499500Y-154270358D01*
X217479815Y-154337397D01*
X217463181Y-154358039D01*
X217358039Y-154463181D01*
X217296716Y-154496666D01*
X217270358Y-154499500D01*
X95729642Y-154499500D01*
X95662603Y-154479815D01*
X95641961Y-154463181D01*
X95536819Y-154358039D01*
X95503334Y-154296716D01*
X95500500Y-154270358D01*
X95500500Y-126799994D01*
X206494556Y-126799994D01*
X206494556Y-126800005D01*
X206514310Y-127114004D01*
X206514311Y-127114011D01*
X206573270Y-127423083D01*
X206670497Y-127722316D01*
X206670499Y-127722321D01*
X206804461Y-128007003D01*
X206804464Y-128007009D01*
X206973051Y-128272661D01*
X206973054Y-128272665D01*
X207173606Y-128515090D01*
X207173608Y-128515092D01*
X207402968Y-128730476D01*
X207402978Y-128730484D01*
X207657504Y-128915408D01*
X207657509Y-128915410D01*
X207657516Y-128915416D01*
X207933234Y-129066994D01*
X207933239Y-129066996D01*
X207933241Y-129066997D01*
X207933242Y-129066998D01*
X208225771Y-129182818D01*
X208225774Y-129182819D01*
X208530523Y-129261065D01*
X208530527Y-129261066D01*
X208596010Y-129269338D01*
X208842670Y-129300499D01*
X208842679Y-129300499D01*
X208842682Y-129300500D01*
X208842684Y-129300500D01*
X209157316Y-129300500D01*
X209157318Y-129300500D01*
X209157321Y-129300499D01*
X209157329Y-129300499D01*
X209343593Y-129276968D01*
X209469473Y-129261066D01*
X209774225Y-129182819D01*
X209774228Y-129182818D01*
X210066757Y-129066998D01*
X210066758Y-129066997D01*
X210066756Y-129066997D01*
X210066766Y-129066994D01*
X210342484Y-128915416D01*
X210597030Y-128730478D01*
X210826390Y-128515094D01*
X211026947Y-128272663D01*
X211195537Y-128007007D01*
X211329503Y-127722315D01*
X211426731Y-127423079D01*
X211485688Y-127114015D01*
X211505444Y-126800000D01*
X211485688Y-126485985D01*
X211426731Y-126176921D01*
X211329503Y-125877685D01*
X211195537Y-125592993D01*
X211026947Y-125327337D01*
X211026945Y-125327334D01*
X210826393Y-125084909D01*
X210826391Y-125084907D01*
X210597031Y-124869523D01*
X210597021Y-124869515D01*
X210342495Y-124684591D01*
X210342488Y-124684586D01*
X210342484Y-124684584D01*
X210066766Y-124533006D01*
X210066763Y-124533004D01*
X210066758Y-124533002D01*
X210066757Y-124533001D01*
X209774228Y-124417181D01*
X209774225Y-124417180D01*
X209469476Y-124338934D01*
X209469463Y-124338932D01*
X209157329Y-124299500D01*
X209157318Y-124299500D01*
X208842682Y-124299500D01*
X208842670Y-124299500D01*
X208530536Y-124338932D01*
X208530523Y-124338934D01*
X208225774Y-124417180D01*
X208225771Y-124417181D01*
X207933242Y-124533001D01*
X207933241Y-124533002D01*
X207657516Y-124684584D01*
X207657504Y-124684591D01*
X207402978Y-124869515D01*
X207402968Y-124869523D01*
X207173608Y-125084907D01*
X207173606Y-125084909D01*
X206973054Y-125327334D01*
X206973051Y-125327338D01*
X206804464Y-125592990D01*
X206804461Y-125592996D01*
X206670499Y-125877678D01*
X206670497Y-125877683D01*
X206573270Y-126176916D01*
X206514311Y-126485988D01*
X206514310Y-126485995D01*
X206494556Y-126799994D01*
X95500500Y-126799994D01*
X95500500Y-117974988D01*
X97994630Y-117974988D01*
X97994630Y-117975011D01*
X98014102Y-118458211D01*
X98014104Y-118458237D01*
X98072398Y-118938332D01*
X98169136Y-119412185D01*
X98303689Y-119876714D01*
X98475185Y-120328910D01*
X98682512Y-120765841D01*
X98924322Y-121184668D01*
X98924327Y-121184674D01*
X99199058Y-121582691D01*
X99504914Y-121957295D01*
X99504920Y-121957301D01*
X99839933Y-122306087D01*
X100201920Y-122626779D01*
X100201924Y-122626782D01*
X100201932Y-122626789D01*
X100588561Y-122917323D01*
X100997315Y-123175803D01*
X101425543Y-123400554D01*
X101870466Y-123590118D01*
X102329201Y-123743267D01*
X102642248Y-123820425D01*
X102798767Y-123859004D01*
X102798783Y-123859007D01*
X103226019Y-123928439D01*
X103276133Y-123936584D01*
X103758188Y-123975500D01*
X103758197Y-123975500D01*
X104241803Y-123975500D01*
X104241812Y-123975500D01*
X104723867Y-123936584D01*
X105201228Y-123859005D01*
X105670799Y-123743267D01*
X106129534Y-123590118D01*
X106574457Y-123400554D01*
X107002685Y-123175803D01*
X107411439Y-122917323D01*
X107798068Y-122626789D01*
X108160066Y-122306088D01*
X108495084Y-121957297D01*
X108800950Y-121582680D01*
X109075679Y-121184665D01*
X109317491Y-120765835D01*
X109524817Y-120328905D01*
X109696312Y-119876708D01*
X109830865Y-119412179D01*
X109927602Y-118938329D01*
X109985896Y-118458232D01*
X110005370Y-117975000D01*
X110005370Y-117974988D01*
X202994630Y-117974988D01*
X202994630Y-117975011D01*
X203014102Y-118458211D01*
X203014104Y-118458237D01*
X203072398Y-118938332D01*
X203169136Y-119412185D01*
X203303689Y-119876714D01*
X203475185Y-120328910D01*
X203682512Y-120765841D01*
X203924322Y-121184668D01*
X203924327Y-121184674D01*
X204199058Y-121582691D01*
X204504914Y-121957295D01*
X204504920Y-121957301D01*
X204839933Y-122306087D01*
X205201920Y-122626779D01*
X205201924Y-122626782D01*
X205201932Y-122626789D01*
X205588561Y-122917323D01*
X205997315Y-123175803D01*
X206425543Y-123400554D01*
X206870466Y-123590118D01*
X207329201Y-123743267D01*
X207642248Y-123820425D01*
X207798767Y-123859004D01*
X207798783Y-123859007D01*
X208226019Y-123928439D01*
X208276133Y-123936584D01*
X208758188Y-123975500D01*
X208758197Y-123975500D01*
X209241803Y-123975500D01*
X209241812Y-123975500D01*
X209723867Y-123936584D01*
X210201228Y-123859005D01*
X210670799Y-123743267D01*
X211129534Y-123590118D01*
X211574457Y-123400554D01*
X212002685Y-123175803D01*
X212411439Y-122917323D01*
X212798068Y-122626789D01*
X213160066Y-122306088D01*
X213495084Y-121957297D01*
X213800950Y-121582680D01*
X214075679Y-121184665D01*
X214317491Y-120765835D01*
X214524817Y-120328905D01*
X214696312Y-119876708D01*
X214830865Y-119412179D01*
X214927602Y-118938329D01*
X214985896Y-118458232D01*
X215005370Y-117975000D01*
X214985896Y-117491768D01*
X214927602Y-117011671D01*
X214830865Y-116537821D01*
X214696312Y-116073292D01*
X214696310Y-116073285D01*
X214614899Y-115858624D01*
X214524817Y-115621095D01*
X214317491Y-115184165D01*
X214075679Y-114765335D01*
X214075677Y-114765331D01*
X214075672Y-114765325D01*
X213800950Y-114367320D01*
X213800945Y-114367314D01*
X213800941Y-114367308D01*
X213495085Y-113992704D01*
X213495079Y-113992698D01*
X213160066Y-113643912D01*
X212798079Y-113323220D01*
X212798073Y-113323215D01*
X212798068Y-113323211D01*
X212411439Y-113032677D01*
X212002685Y-112774197D01*
X211574457Y-112549446D01*
X211129534Y-112359882D01*
X211129526Y-112359879D01*
X211129523Y-112359878D01*
X210902843Y-112284201D01*
X210670799Y-112206733D01*
X210670795Y-112206732D01*
X210670788Y-112206730D01*
X210201232Y-112090995D01*
X210201216Y-112090992D01*
X209723872Y-112013416D01*
X209241822Y-111974500D01*
X209241812Y-111974500D01*
X208758188Y-111974500D01*
X208758177Y-111974500D01*
X208276127Y-112013416D01*
X207798783Y-112090992D01*
X207798767Y-112090995D01*
X207329211Y-112206730D01*
X207329204Y-112206732D01*
X206870476Y-112359878D01*
X206870468Y-112359881D01*
X206870466Y-112359882D01*
X206705832Y-112430025D01*
X206425549Y-112549443D01*
X205997318Y-112774195D01*
X205588559Y-113032678D01*
X205201920Y-113323220D01*
X204839933Y-113643912D01*
X204504920Y-113992698D01*
X204504914Y-113992704D01*
X204199058Y-114367308D01*
X203924327Y-114765325D01*
X203924322Y-114765331D01*
X203682512Y-115184158D01*
X203475185Y-115621089D01*
X203303689Y-116073285D01*
X203169136Y-116537814D01*
X203072398Y-117011667D01*
X203014104Y-117491762D01*
X203014102Y-117491788D01*
X202994630Y-117974988D01*
X110005370Y-117974988D01*
X109985896Y-117491768D01*
X109927602Y-117011671D01*
X109830865Y-116537821D01*
X109696312Y-116073292D01*
X109696310Y-116073285D01*
X109614899Y-115858624D01*
X109524817Y-115621095D01*
X109317491Y-115184165D01*
X109075679Y-114765335D01*
X109075677Y-114765331D01*
X109075672Y-114765325D01*
X108800950Y-114367320D01*
X108800945Y-114367314D01*
X108800941Y-114367308D01*
X108495085Y-113992704D01*
X108495079Y-113992698D01*
X108160066Y-113643912D01*
X107798079Y-113323220D01*
X107798073Y-113323215D01*
X107798068Y-113323211D01*
X107411439Y-113032677D01*
X107002685Y-112774197D01*
X106574457Y-112549446D01*
X106129534Y-112359882D01*
X106129526Y-112359879D01*
X106129523Y-112359878D01*
X105902843Y-112284201D01*
X105670799Y-112206733D01*
X105670795Y-112206732D01*
X105670788Y-112206730D01*
X105201232Y-112090995D01*
X105201216Y-112090992D01*
X104723872Y-112013416D01*
X104241822Y-111974500D01*
X104241812Y-111974500D01*
X103758188Y-111974500D01*
X103758177Y-111974500D01*
X103276127Y-112013416D01*
X102798783Y-112090992D01*
X102798767Y-112090995D01*
X102329211Y-112206730D01*
X102329204Y-112206732D01*
X101870476Y-112359878D01*
X101870468Y-112359881D01*
X101870466Y-112359882D01*
X101705832Y-112430025D01*
X101425549Y-112549443D01*
X100997318Y-112774195D01*
X100588559Y-113032678D01*
X100201920Y-113323220D01*
X99839933Y-113643912D01*
X99504920Y-113992698D01*
X99504914Y-113992704D01*
X99199058Y-114367308D01*
X98924327Y-114765325D01*
X98924322Y-114765331D01*
X98682512Y-115184158D01*
X98475185Y-115621089D01*
X98303689Y-116073285D01*
X98169136Y-116537814D01*
X98072398Y-117011667D01*
X98014104Y-117491762D01*
X98014102Y-117491788D01*
X97994630Y-117974988D01*
X95500500Y-117974988D01*
X95500500Y-100729642D01*
X95520185Y-100662603D01*
X95536819Y-100641961D01*
X95641961Y-100536819D01*
X95703284Y-100503334D01*
X95729642Y-100500500D01*
X217270358Y-100500500D01*
X217337397Y-100520185D01*
G37*
%TD.AperFunction*%
%TD*%
M02*
