%TF.GenerationSoftware,KiCad,Pcbnew,8.0.7*%
%TF.CreationDate,2025-01-31T21:54:53-05:00*%
%TF.ProjectId,filter_board,66696c74-6572-45f6-926f-6172642e6b69,rev?*%
%TF.SameCoordinates,Original*%
%TF.FileFunction,Copper,L1,Top*%
%TF.FilePolarity,Positive*%
%FSLAX46Y46*%
G04 Gerber Fmt 4.6, Leading zero omitted, Abs format (unit mm)*
G04 Created by KiCad (PCBNEW 8.0.7) date 2025-01-31 21:54:53*
%MOMM*%
%LPD*%
G01*
G04 APERTURE LIST*
G04 Aperture macros list*
%AMRoundRect*
0 Rectangle with rounded corners*
0 $1 Rounding radius*
0 $2 $3 $4 $5 $6 $7 $8 $9 X,Y pos of 4 corners*
0 Add a 4 corners polygon primitive as box body*
4,1,4,$2,$3,$4,$5,$6,$7,$8,$9,$2,$3,0*
0 Add four circle primitives for the rounded corners*
1,1,$1+$1,$2,$3*
1,1,$1+$1,$4,$5*
1,1,$1+$1,$6,$7*
1,1,$1+$1,$8,$9*
0 Add four rect primitives between the rounded corners*
20,1,$1+$1,$2,$3,$4,$5,0*
20,1,$1+$1,$4,$5,$6,$7,0*
20,1,$1+$1,$6,$7,$8,$9,0*
20,1,$1+$1,$8,$9,$2,$3,0*%
G04 Aperture macros list end*
%TA.AperFunction,ComponentPad*%
%ADD10C,4.000000*%
%TD*%
%TA.AperFunction,ComponentPad*%
%ADD11C,11.000000*%
%TD*%
%TA.AperFunction,SMDPad,CuDef*%
%ADD12RoundRect,0.250000X0.475000X-0.250000X0.475000X0.250000X-0.475000X0.250000X-0.475000X-0.250000X0*%
%TD*%
%TA.AperFunction,SMDPad,CuDef*%
%ADD13R,2.006600X7.416800*%
%TD*%
%TA.AperFunction,SMDPad,CuDef*%
%ADD14R,3.225800X4.953000*%
%TD*%
%TA.AperFunction,SMDPad,CuDef*%
%ADD15RoundRect,0.250000X0.450000X-0.262500X0.450000X0.262500X-0.450000X0.262500X-0.450000X-0.262500X0*%
%TD*%
%TA.AperFunction,ViaPad*%
%ADD16C,0.600000*%
%TD*%
G04 APERTURE END LIST*
D10*
%TO.P,J4,1,Pin_1*%
%TO.N,GND*%
X209000000Y-145800000D03*
%TD*%
%TO.P,J3,1,Pin_1*%
%TO.N,/VOUT*%
X209000000Y-126800000D03*
%TD*%
D11*
%TO.P,J1,2,Pin_2*%
%TO.N,GND*%
X209000000Y-137025000D03*
%TO.P,J1,1,Pin_1*%
%TO.N,/VOUT*%
X209000000Y-117975000D03*
%TD*%
%TO.P,J2,1,Pin_1*%
%TO.N,/VIN*%
X104000000Y-117975000D03*
%TO.P,J2,2,Pin_2*%
%TO.N,GND*%
X104000000Y-137025000D03*
%TD*%
D12*
%TO.P,C18,1*%
%TO.N,/VIN*%
X107500000Y-108987500D03*
%TO.P,C18,2*%
%TO.N,GND*%
X107500000Y-107087500D03*
%TD*%
%TO.P,C17,1*%
%TO.N,/VIN*%
X105000000Y-108987500D03*
%TO.P,C17,2*%
%TO.N,GND*%
X105000000Y-107087500D03*
%TD*%
D13*
%TO.P,C1,1*%
%TO.N,/VOUT*%
X167000000Y-121901800D03*
%TO.P,C1,2*%
%TO.N,GND*%
X167000000Y-107500000D03*
%TD*%
%TO.P,C5,1*%
%TO.N,/VOUT*%
X188000000Y-133549100D03*
%TO.P,C5,2*%
%TO.N,GND*%
X188000000Y-147950900D03*
%TD*%
D14*
%TO.P,L1,1,1*%
%TO.N,/VIN*%
X140602500Y-117500000D03*
%TO.P,L1,2,2*%
%TO.N,/VOUT*%
X151397500Y-117500000D03*
%TD*%
D13*
%TO.P,C2,1*%
%TO.N,/VOUT*%
X188000000Y-121901800D03*
%TO.P,C2,2*%
%TO.N,GND*%
X188000000Y-107500000D03*
%TD*%
%TO.P,C3,1*%
%TO.N,/VOUT*%
X146000000Y-133500000D03*
%TO.P,C3,2*%
%TO.N,GND*%
X146000000Y-147901800D03*
%TD*%
D12*
%TO.P,C11,1*%
%TO.N,/VOUT*%
X210500000Y-109900000D03*
%TO.P,C11,2*%
%TO.N,GND*%
X210500000Y-108000000D03*
%TD*%
D13*
%TO.P,C7,1*%
%TO.N,/VIN*%
X125000000Y-133549100D03*
%TO.P,C7,2*%
%TO.N,GND*%
X125000000Y-147950900D03*
%TD*%
%TO.P,C4,1*%
%TO.N,/VOUT*%
X167000000Y-133549100D03*
%TO.P,C4,2*%
%TO.N,GND*%
X167000000Y-147950900D03*
%TD*%
D12*
%TO.P,C10,1*%
%TO.N,/VOUT*%
X208000000Y-109900000D03*
%TO.P,C10,2*%
%TO.N,GND*%
X208000000Y-108000000D03*
%TD*%
%TO.P,C13,1*%
%TO.N,/VOUT*%
X215500000Y-109900000D03*
%TO.P,C13,2*%
%TO.N,GND*%
X215500000Y-108000000D03*
%TD*%
D13*
%TO.P,C6,1*%
%TO.N,/VIN*%
X125000000Y-121500000D03*
%TO.P,C6,2*%
%TO.N,GND*%
X125000000Y-107098200D03*
%TD*%
D12*
%TO.P,C15,1*%
%TO.N,/VIN*%
X100000000Y-108987500D03*
%TO.P,C15,2*%
%TO.N,GND*%
X100000000Y-107087500D03*
%TD*%
%TO.P,C12,1*%
%TO.N,/VOUT*%
X213000000Y-109900000D03*
%TO.P,C12,2*%
%TO.N,GND*%
X213000000Y-108000000D03*
%TD*%
%TO.P,C19,1*%
%TO.N,/VIN*%
X110000000Y-108987500D03*
%TO.P,C19,2*%
%TO.N,GND*%
X110000000Y-107087500D03*
%TD*%
%TO.P,C8,1*%
%TO.N,/VOUT*%
X202980000Y-109900000D03*
%TO.P,C8,2*%
%TO.N,GND*%
X202980000Y-108000000D03*
%TD*%
%TO.P,C9,1*%
%TO.N,/VOUT*%
X205500000Y-109900000D03*
%TO.P,C9,2*%
%TO.N,GND*%
X205500000Y-108000000D03*
%TD*%
D15*
%TO.P,R2,1*%
%TO.N,/VIN*%
X112500000Y-108912500D03*
%TO.P,R2,2*%
%TO.N,GND*%
X112500000Y-107087500D03*
%TD*%
D12*
%TO.P,C16,1*%
%TO.N,/VIN*%
X102500000Y-108987500D03*
%TO.P,C16,2*%
%TO.N,GND*%
X102500000Y-107087500D03*
%TD*%
D15*
%TO.P,R1,1*%
%TO.N,/VOUT*%
X200480000Y-109912500D03*
%TO.P,R1,2*%
%TO.N,GND*%
X200480000Y-108087500D03*
%TD*%
D12*
%TO.P,C14,1*%
%TO.N,/VIN*%
X97500000Y-108987500D03*
%TO.P,C14,2*%
%TO.N,GND*%
X97500000Y-107087500D03*
%TD*%
D16*
%TO.N,GND*%
X97000000Y-136000000D03*
X97000000Y-138500000D03*
X114500000Y-106500000D03*
X172000000Y-153500000D03*
X107000000Y-101500000D03*
X209500000Y-153500000D03*
X124500000Y-153500000D03*
X182000000Y-101500000D03*
X169500000Y-101500000D03*
X122000000Y-151000000D03*
X192000000Y-101500000D03*
X204500000Y-104000000D03*
X97000000Y-141000000D03*
X107000000Y-143500000D03*
X204500000Y-106500000D03*
X109500000Y-101500000D03*
X172000000Y-151000000D03*
X164500000Y-153500000D03*
X172000000Y-101500000D03*
X154500000Y-151000000D03*
X192000000Y-151000000D03*
X99500000Y-101500000D03*
X164500000Y-101500000D03*
X99500000Y-148500000D03*
X157000000Y-146000000D03*
X114500000Y-101500000D03*
X202000000Y-143500000D03*
X157000000Y-151000000D03*
X212000000Y-101500000D03*
X149500000Y-101500000D03*
X182000000Y-151000000D03*
X112000000Y-143500000D03*
X162000000Y-153500000D03*
X132000000Y-153500000D03*
X112000000Y-148500000D03*
X127000000Y-153500000D03*
X159500000Y-151000000D03*
X209500000Y-104000000D03*
X197000000Y-148500000D03*
X112000000Y-104000000D03*
X122000000Y-104000000D03*
X177000000Y-153500000D03*
X152000000Y-106500000D03*
X174500000Y-106500000D03*
X157000000Y-101500000D03*
X109500000Y-143500000D03*
X149500000Y-106500000D03*
X104500000Y-104000000D03*
X139500000Y-101500000D03*
X97000000Y-143500000D03*
X114500000Y-143500000D03*
X197000000Y-151000000D03*
X199500000Y-148500000D03*
X214500000Y-104000000D03*
X189500000Y-153500000D03*
X142000000Y-106500000D03*
X179500000Y-151000000D03*
X204500000Y-101500000D03*
X152000000Y-104000000D03*
X114500000Y-151000000D03*
X139500000Y-151000000D03*
X202000000Y-138500000D03*
X137000000Y-148500000D03*
X204500000Y-146000000D03*
X134500000Y-106500000D03*
X189500000Y-101500000D03*
X134500000Y-104000000D03*
X189500000Y-151000000D03*
X117000000Y-146000000D03*
X202000000Y-133500000D03*
X129500000Y-101500000D03*
X157000000Y-104000000D03*
X104500000Y-153500000D03*
X159500000Y-101500000D03*
X197000000Y-133500000D03*
X132000000Y-151000000D03*
X149500000Y-104000000D03*
X104500000Y-146000000D03*
X122000000Y-153500000D03*
X157000000Y-106500000D03*
X209500000Y-106500000D03*
X159500000Y-104000000D03*
X202000000Y-146000000D03*
X102000000Y-104000000D03*
X112000000Y-101500000D03*
X117000000Y-101500000D03*
X109500000Y-104000000D03*
X102000000Y-101500000D03*
X134500000Y-101500000D03*
X99500000Y-146000000D03*
X137000000Y-146000000D03*
X212000000Y-143500000D03*
X102000000Y-146000000D03*
X164500000Y-104000000D03*
X134500000Y-153500000D03*
X147000000Y-153500000D03*
X112000000Y-141000000D03*
X142000000Y-104000000D03*
X139500000Y-104000000D03*
X127000000Y-151000000D03*
X107000000Y-104000000D03*
X164500000Y-151000000D03*
X119500000Y-151000000D03*
X187000000Y-153500000D03*
X159500000Y-153500000D03*
X152000000Y-151000000D03*
X117000000Y-106500000D03*
X179500000Y-148500000D03*
X157000000Y-143500000D03*
X159500000Y-148500000D03*
X137000000Y-151000000D03*
X137000000Y-106500000D03*
X109500000Y-146000000D03*
X207000000Y-153500000D03*
X179500000Y-101500000D03*
X194500000Y-101500000D03*
X137000000Y-104000000D03*
X132000000Y-101500000D03*
X162000000Y-104000000D03*
X177000000Y-151000000D03*
X154500000Y-101500000D03*
X97000000Y-153500000D03*
X137000000Y-143500000D03*
X154500000Y-106500000D03*
X177000000Y-101500000D03*
X117000000Y-143500000D03*
X129500000Y-104000000D03*
X179500000Y-104000000D03*
X209500000Y-151000000D03*
X199500000Y-146000000D03*
X122000000Y-101500000D03*
X174500000Y-101500000D03*
X97000000Y-148500000D03*
X189500000Y-104000000D03*
X99500000Y-143500000D03*
X147000000Y-104000000D03*
X202000000Y-153500000D03*
X212000000Y-151000000D03*
X104500000Y-151000000D03*
X162000000Y-101500000D03*
X214500000Y-106500000D03*
X212000000Y-148500000D03*
X127000000Y-101500000D03*
X174500000Y-146000000D03*
X109500000Y-148500000D03*
X197000000Y-136000000D03*
X129500000Y-153500000D03*
X147000000Y-101500000D03*
X134500000Y-143500000D03*
X199500000Y-136000000D03*
X167000000Y-101500000D03*
X212000000Y-153500000D03*
X169500000Y-151000000D03*
X199500000Y-153500000D03*
X194500000Y-153500000D03*
X159500000Y-146000000D03*
X199500000Y-101500000D03*
X184500000Y-153500000D03*
X174500000Y-148500000D03*
X179500000Y-106500000D03*
X107000000Y-148500000D03*
X102000000Y-151000000D03*
X154500000Y-153500000D03*
X184500000Y-104000000D03*
X204500000Y-151000000D03*
X179500000Y-153500000D03*
X112000000Y-136000000D03*
X207000000Y-151000000D03*
X114500000Y-153500000D03*
X204500000Y-143500000D03*
X144500000Y-153500000D03*
X152000000Y-153500000D03*
X109500000Y-133500000D03*
X202000000Y-141000000D03*
X197000000Y-143500000D03*
X197000000Y-141000000D03*
X174500000Y-151000000D03*
X154500000Y-104000000D03*
X107000000Y-153500000D03*
X97000000Y-146000000D03*
X114500000Y-148500000D03*
X102000000Y-148500000D03*
X154500000Y-143500000D03*
X184500000Y-101500000D03*
X207000000Y-101500000D03*
X199500000Y-143500000D03*
X169500000Y-104000000D03*
X144500000Y-101500000D03*
X109500000Y-151000000D03*
X154500000Y-148500000D03*
X192000000Y-104000000D03*
X99500000Y-151000000D03*
X144500000Y-104000000D03*
X142000000Y-151000000D03*
X197000000Y-146000000D03*
X157000000Y-148500000D03*
X127000000Y-104000000D03*
X117000000Y-153500000D03*
X179500000Y-146000000D03*
X214500000Y-148500000D03*
X134500000Y-146000000D03*
X152000000Y-101500000D03*
X179500000Y-143500000D03*
X169500000Y-153500000D03*
X172000000Y-104000000D03*
X207000000Y-148500000D03*
X204500000Y-148500000D03*
X102000000Y-143500000D03*
X119500000Y-153500000D03*
X117000000Y-148500000D03*
X177000000Y-104000000D03*
X107000000Y-146000000D03*
X167000000Y-153500000D03*
X212000000Y-146000000D03*
X144500000Y-106500000D03*
X199500000Y-138500000D03*
X119500000Y-101500000D03*
X214500000Y-133500000D03*
X207000000Y-106500000D03*
X104500000Y-143500000D03*
X192000000Y-153500000D03*
X214500000Y-151000000D03*
X214500000Y-153500000D03*
X202000000Y-101500000D03*
X112000000Y-138500000D03*
X199500000Y-151000000D03*
X214500000Y-143500000D03*
X132000000Y-104000000D03*
X102000000Y-153500000D03*
X139500000Y-106500000D03*
X124500000Y-101500000D03*
X197000000Y-104000000D03*
X154500000Y-146000000D03*
X97000000Y-104000000D03*
X159500000Y-106500000D03*
X159500000Y-143500000D03*
X209500000Y-148500000D03*
X137000000Y-101500000D03*
X197000000Y-138500000D03*
X202000000Y-148500000D03*
X202000000Y-106500000D03*
X114500000Y-104000000D03*
X129500000Y-151000000D03*
X137000000Y-153500000D03*
X107000000Y-151000000D03*
X207000000Y-104000000D03*
X214500000Y-101500000D03*
X117000000Y-104000000D03*
X99500000Y-153500000D03*
X202000000Y-104000000D03*
X149500000Y-151000000D03*
X119500000Y-104000000D03*
X202000000Y-151000000D03*
X182000000Y-153500000D03*
X209500000Y-101500000D03*
X112000000Y-151000000D03*
X197000000Y-106500000D03*
X187000000Y-101500000D03*
X144500000Y-151000000D03*
X104500000Y-148500000D03*
X157000000Y-153500000D03*
X109500000Y-153500000D03*
X99500000Y-104000000D03*
X142000000Y-101500000D03*
X139500000Y-153500000D03*
X104500000Y-101500000D03*
X202000000Y-136000000D03*
X194500000Y-151000000D03*
X97000000Y-151000000D03*
X177000000Y-146000000D03*
X142000000Y-153500000D03*
X162000000Y-151000000D03*
X177000000Y-143500000D03*
X147000000Y-106500000D03*
X174500000Y-104000000D03*
X194500000Y-104000000D03*
X134500000Y-148500000D03*
X182000000Y-104000000D03*
X112000000Y-153500000D03*
X199500000Y-141000000D03*
X114500000Y-146000000D03*
X212000000Y-106500000D03*
X132000000Y-106500000D03*
X214500000Y-146000000D03*
X97000000Y-133500000D03*
X199500000Y-104000000D03*
X204500000Y-153500000D03*
X197000000Y-153500000D03*
X117000000Y-151000000D03*
X134500000Y-151000000D03*
X199500000Y-106500000D03*
X174500000Y-153500000D03*
X109500000Y-141000000D03*
X199500000Y-133500000D03*
X112000000Y-146000000D03*
X177000000Y-148500000D03*
X214500000Y-141000000D03*
X212000000Y-104000000D03*
X174500000Y-143500000D03*
X184500000Y-151000000D03*
X177000000Y-106500000D03*
X197000000Y-101500000D03*
X149500000Y-153500000D03*
X97000000Y-101500000D03*
%TD*%
%TA.AperFunction,Conductor*%
%TO.N,GND*%
G36*
X217337397Y-100520185D02*
G01*
X217358039Y-100536819D01*
X217463181Y-100641961D01*
X217496666Y-100703284D01*
X217499500Y-100729642D01*
X217499500Y-107770358D01*
X217479815Y-107837397D01*
X217463185Y-107858034D01*
X217321220Y-108000000D01*
X217315994Y-108005226D01*
X217302624Y-108016811D01*
X217088380Y-108177193D01*
X217073496Y-108186758D01*
X216838617Y-108315011D01*
X216822524Y-108322361D01*
X216571770Y-108415888D01*
X216554794Y-108420872D01*
X216293297Y-108477757D01*
X216275785Y-108480275D01*
X216004418Y-108499684D01*
X215995572Y-108500000D01*
X194674400Y-108500000D01*
X194607361Y-108480315D01*
X194561606Y-108427511D01*
X194550400Y-108376000D01*
X194550400Y-105150500D01*
X189054100Y-105150500D01*
X189054100Y-108376000D01*
X189034415Y-108443039D01*
X188981611Y-108488794D01*
X188930100Y-108500000D01*
X187069900Y-108500000D01*
X187002861Y-108480315D01*
X186957106Y-108427511D01*
X186945900Y-108376000D01*
X186945900Y-105150500D01*
X181199600Y-105150500D01*
X181199600Y-108376000D01*
X181179915Y-108443039D01*
X181127111Y-108488794D01*
X181075600Y-108500000D01*
X173674400Y-108500000D01*
X173607361Y-108480315D01*
X173561606Y-108427511D01*
X173550400Y-108376000D01*
X173550400Y-105150500D01*
X168054100Y-105150500D01*
X168054100Y-108376000D01*
X168034415Y-108443039D01*
X167981611Y-108488794D01*
X167930100Y-108500000D01*
X166069900Y-108500000D01*
X166002861Y-108480315D01*
X165957106Y-108427511D01*
X165945900Y-108376000D01*
X165945900Y-105150500D01*
X160199600Y-105150500D01*
X160199600Y-108376000D01*
X160179915Y-108443039D01*
X160127111Y-108488794D01*
X160075600Y-108500000D01*
X131674400Y-108500000D01*
X131607361Y-108480315D01*
X131561606Y-108427511D01*
X131550400Y-108376000D01*
X131550400Y-104748700D01*
X126054100Y-104748700D01*
X126054100Y-108376000D01*
X126034415Y-108443039D01*
X125981611Y-108488794D01*
X125930100Y-108500000D01*
X124069900Y-108500000D01*
X124002861Y-108480315D01*
X123957106Y-108427511D01*
X123945900Y-108376000D01*
X123945900Y-104748700D01*
X118199600Y-104748700D01*
X118199600Y-108376000D01*
X118179915Y-108443039D01*
X118127111Y-108488794D01*
X118075600Y-108500000D01*
X115508126Y-108500000D01*
X115491941Y-108498939D01*
X115478917Y-108497224D01*
X115386775Y-108485093D01*
X115355508Y-108476715D01*
X115265081Y-108439259D01*
X115237048Y-108423074D01*
X115159398Y-108363491D01*
X115136508Y-108340601D01*
X115076925Y-108262951D01*
X115060740Y-108234918D01*
X115023284Y-108144491D01*
X115014906Y-108113223D01*
X115000000Y-108000000D01*
X115000000Y-107500000D01*
X114500000Y-107500000D01*
X114499993Y-107500000D01*
X97004428Y-107500000D01*
X96995582Y-107499684D01*
X96724214Y-107480275D01*
X96706702Y-107477757D01*
X96445205Y-107420872D01*
X96428229Y-107415888D01*
X96177475Y-107322361D01*
X96161382Y-107315011D01*
X95926503Y-107186758D01*
X95911619Y-107177193D01*
X95697375Y-107016811D01*
X95684005Y-107005225D01*
X95536819Y-106858039D01*
X95503334Y-106796716D01*
X95500500Y-106770358D01*
X95500500Y-100729642D01*
X95520185Y-100662603D01*
X95536819Y-100641961D01*
X95641961Y-100536819D01*
X95703284Y-100503334D01*
X95729642Y-100500500D01*
X217270358Y-100500500D01*
X217337397Y-100520185D01*
G37*
%TD.AperFunction*%
%TD*%
%TA.AperFunction,Conductor*%
%TO.N,/VIN*%
G36*
X113508059Y-108501061D02*
G01*
X113613223Y-108514906D01*
X113644491Y-108523284D01*
X113734918Y-108560740D01*
X113762952Y-108576925D01*
X113840602Y-108636509D01*
X113863491Y-108659398D01*
X113923074Y-108737048D01*
X113939259Y-108765081D01*
X113976715Y-108855508D01*
X113985093Y-108886775D01*
X113997840Y-108983593D01*
X114000000Y-109000000D01*
X114000000Y-109500000D01*
X118075600Y-109500000D01*
X118142639Y-109519685D01*
X118188394Y-109572489D01*
X118199600Y-109624000D01*
X118199600Y-123849500D01*
X123945900Y-123849500D01*
X123945900Y-117864800D01*
X123965585Y-117797761D01*
X124018389Y-117752006D01*
X124069900Y-117740800D01*
X125930100Y-117740800D01*
X125997139Y-117760485D01*
X126042894Y-117813289D01*
X126054100Y-117864800D01*
X126054100Y-123849500D01*
X131550400Y-123849500D01*
X131550400Y-109624000D01*
X131570085Y-109556961D01*
X131622889Y-109511206D01*
X131674400Y-109500000D01*
X139192800Y-109500000D01*
X141991874Y-109500000D01*
X142008059Y-109501061D01*
X142113223Y-109514906D01*
X142144491Y-109523284D01*
X142234918Y-109560740D01*
X142262952Y-109576925D01*
X142340602Y-109636509D01*
X142363491Y-109659398D01*
X142423074Y-109737048D01*
X142439259Y-109765081D01*
X142476715Y-109855508D01*
X142485093Y-109886775D01*
X142498939Y-109991939D01*
X142500000Y-110008125D01*
X142500000Y-110975200D01*
X142480315Y-111042239D01*
X142427511Y-111087994D01*
X142376000Y-111099200D01*
X139192800Y-111099200D01*
X139192800Y-114972700D01*
X142142200Y-114972700D01*
X142209239Y-114992385D01*
X142254994Y-115045189D01*
X142266200Y-115096700D01*
X142266200Y-119903300D01*
X142246515Y-119970339D01*
X142193711Y-120016094D01*
X142142200Y-120027300D01*
X139192800Y-120027300D01*
X139192800Y-123900800D01*
X142376000Y-123900800D01*
X142443039Y-123920485D01*
X142488794Y-123973289D01*
X142500000Y-124024800D01*
X142500000Y-131026500D01*
X142480315Y-131093539D01*
X142427511Y-131139294D01*
X142376000Y-131150500D01*
X139449600Y-131150500D01*
X139449600Y-140376000D01*
X139429915Y-140443039D01*
X139377111Y-140488794D01*
X139325600Y-140500000D01*
X131924400Y-140500000D01*
X131857361Y-140480315D01*
X131811606Y-140427511D01*
X131800400Y-140376000D01*
X131800400Y-131199600D01*
X126054100Y-131199600D01*
X126054100Y-137184300D01*
X126034415Y-137251339D01*
X125981611Y-137297094D01*
X125930100Y-137308300D01*
X124069900Y-137308300D01*
X124002861Y-137288615D01*
X123957106Y-137235811D01*
X123945900Y-137184300D01*
X123945900Y-131199600D01*
X118449600Y-131199600D01*
X118449600Y-139738368D01*
X118429915Y-139805407D01*
X118377111Y-139851162D01*
X118307953Y-139861106D01*
X118244397Y-139832081D01*
X118226966Y-139813517D01*
X111663981Y-131199600D01*
X110900079Y-130196978D01*
X110900077Y-130196976D01*
X110750000Y-130000000D01*
X110502364Y-130000000D01*
X95624500Y-130000000D01*
X95557461Y-129980315D01*
X95511706Y-129927511D01*
X95500500Y-129876000D01*
X95500500Y-108624000D01*
X95520185Y-108556961D01*
X95572989Y-108511206D01*
X95624500Y-108500000D01*
X113491874Y-108500000D01*
X113508059Y-108501061D01*
G37*
%TD.AperFunction*%
%TD*%
%TA.AperFunction,Conductor*%
%TO.N,GND*%
G36*
X110505625Y-131019685D02*
G01*
X110537220Y-131048851D01*
X118424234Y-141400557D01*
X118449205Y-141465812D01*
X118449600Y-141475706D01*
X118449600Y-150300400D01*
X123945900Y-150300400D01*
X123945900Y-144315700D01*
X123965585Y-144248661D01*
X124018389Y-144202906D01*
X124069900Y-144191700D01*
X125930100Y-144191700D01*
X125997139Y-144211385D01*
X126042894Y-144264189D01*
X126054100Y-144315700D01*
X126054100Y-150300400D01*
X131800400Y-150300400D01*
X131800400Y-141624000D01*
X131820085Y-141556961D01*
X131872889Y-141511206D01*
X131924400Y-141500000D01*
X139325600Y-141500000D01*
X139392639Y-141519685D01*
X139438394Y-141572489D01*
X139449600Y-141624000D01*
X139449600Y-150251300D01*
X144945900Y-150251300D01*
X144945900Y-144266600D01*
X144965585Y-144199561D01*
X145018389Y-144153806D01*
X145069900Y-144142600D01*
X146930100Y-144142600D01*
X146997139Y-144162285D01*
X147042894Y-144215089D01*
X147054100Y-144266600D01*
X147054100Y-150251300D01*
X152800400Y-150251300D01*
X152800400Y-141624000D01*
X152820085Y-141556961D01*
X152872889Y-141511206D01*
X152924400Y-141500000D01*
X160325600Y-141500000D01*
X160392639Y-141519685D01*
X160438394Y-141572489D01*
X160449600Y-141624000D01*
X160449600Y-150300400D01*
X165945900Y-150300400D01*
X165945900Y-144315700D01*
X165965585Y-144248661D01*
X166018389Y-144202906D01*
X166069900Y-144191700D01*
X167930100Y-144191700D01*
X167997139Y-144211385D01*
X168042894Y-144264189D01*
X168054100Y-144315700D01*
X168054100Y-150300400D01*
X173800400Y-150300400D01*
X173800400Y-141624000D01*
X173820085Y-141556961D01*
X173872889Y-141511206D01*
X173924400Y-141500000D01*
X181325600Y-141500000D01*
X181392639Y-141519685D01*
X181438394Y-141572489D01*
X181449600Y-141624000D01*
X181449600Y-150300400D01*
X186945900Y-150300400D01*
X186945900Y-144315700D01*
X186965585Y-144248661D01*
X187018389Y-144202906D01*
X187069900Y-144191700D01*
X188930100Y-144191700D01*
X188997139Y-144211385D01*
X189042894Y-144264189D01*
X189054100Y-144315700D01*
X189054100Y-150300400D01*
X194800400Y-150300400D01*
X194800400Y-132124000D01*
X194820085Y-132056961D01*
X194872889Y-132011206D01*
X194924400Y-132000000D01*
X200250000Y-132000000D01*
X204235192Y-131003702D01*
X204265266Y-131000000D01*
X217375500Y-131000000D01*
X217442539Y-131019685D01*
X217488294Y-131072489D01*
X217499500Y-131124000D01*
X217499500Y-154375500D01*
X217479815Y-154442539D01*
X217427011Y-154488294D01*
X217375500Y-154499500D01*
X95624500Y-154499500D01*
X95557461Y-154479815D01*
X95511706Y-154427011D01*
X95500500Y-154375500D01*
X95500500Y-131124000D01*
X95520185Y-131056961D01*
X95572989Y-131011206D01*
X95624500Y-131000000D01*
X110438586Y-131000000D01*
X110505625Y-131019685D01*
G37*
%TD.AperFunction*%
%TD*%
%TA.AperFunction,Conductor*%
%TO.N,/VOUT*%
G36*
X160142639Y-109519685D02*
G01*
X160188394Y-109572489D01*
X160199600Y-109624000D01*
X160199600Y-124251300D01*
X165945900Y-124251300D01*
X165945900Y-118266600D01*
X165965585Y-118199561D01*
X166018389Y-118153806D01*
X166069900Y-118142600D01*
X167930100Y-118142600D01*
X167997139Y-118162285D01*
X168042894Y-118215089D01*
X168054100Y-118266600D01*
X168054100Y-124251300D01*
X173550400Y-124251300D01*
X173550400Y-109624000D01*
X173570085Y-109556961D01*
X173622889Y-109511206D01*
X173674400Y-109500000D01*
X181075600Y-109500000D01*
X181142639Y-109519685D01*
X181188394Y-109572489D01*
X181199600Y-109624000D01*
X181199600Y-124251300D01*
X186945900Y-124251300D01*
X186945900Y-118266600D01*
X186965585Y-118199561D01*
X187018389Y-118153806D01*
X187069900Y-118142600D01*
X188930100Y-118142600D01*
X188997139Y-118162285D01*
X189042894Y-118215089D01*
X189054100Y-118266600D01*
X189054100Y-124251300D01*
X194550400Y-124251300D01*
X194550400Y-109624000D01*
X194570085Y-109556961D01*
X194622889Y-109511206D01*
X194674400Y-109500000D01*
X217375500Y-109500000D01*
X217442539Y-109519685D01*
X217488294Y-109572489D01*
X217499500Y-109624000D01*
X217499500Y-130126000D01*
X217479815Y-130193039D01*
X217427011Y-130238794D01*
X217375500Y-130250000D01*
X204250000Y-130250000D01*
X204190288Y-130264928D01*
X200313400Y-131234149D01*
X200305983Y-131235764D01*
X200257017Y-131244864D01*
X200241950Y-131246718D01*
X200192232Y-131249767D01*
X200184642Y-131250000D01*
X194868667Y-131250000D01*
X194859747Y-131248609D01*
X194824917Y-131224117D01*
X194800400Y-131199600D01*
X189054100Y-131199600D01*
X189054100Y-137184300D01*
X189034415Y-137251339D01*
X188981611Y-137297094D01*
X188930100Y-137308300D01*
X187069900Y-137308300D01*
X187002861Y-137288615D01*
X186957106Y-137235811D01*
X186945900Y-137184300D01*
X186945900Y-131199600D01*
X181449600Y-131199600D01*
X181449600Y-140376000D01*
X181429915Y-140443039D01*
X181377111Y-140488794D01*
X181325600Y-140500000D01*
X173924400Y-140500000D01*
X173857361Y-140480315D01*
X173811606Y-140427511D01*
X173800400Y-140376000D01*
X173800400Y-131199600D01*
X168054100Y-131199600D01*
X168054100Y-137184300D01*
X168034415Y-137251339D01*
X167981611Y-137297094D01*
X167930100Y-137308300D01*
X166069900Y-137308300D01*
X166002861Y-137288615D01*
X165957106Y-137235811D01*
X165945900Y-137184300D01*
X165945900Y-131199600D01*
X160449600Y-131199600D01*
X160449600Y-140376000D01*
X160429915Y-140443039D01*
X160377111Y-140488794D01*
X160325600Y-140500000D01*
X152924400Y-140500000D01*
X152857361Y-140480315D01*
X152811606Y-140427511D01*
X152800400Y-140376000D01*
X152800400Y-131150500D01*
X147054100Y-131150500D01*
X147054100Y-137135200D01*
X147034415Y-137202239D01*
X146981611Y-137247994D01*
X146930100Y-137259200D01*
X145069900Y-137259200D01*
X145002861Y-137239515D01*
X144957106Y-137186711D01*
X144945900Y-137135200D01*
X144945900Y-131150500D01*
X144124000Y-131150500D01*
X144056961Y-131130815D01*
X144011206Y-131078011D01*
X144000000Y-131026500D01*
X144000000Y-124024800D01*
X144019685Y-123957761D01*
X144072489Y-123912006D01*
X144124000Y-123900800D01*
X152807200Y-123900800D01*
X152807200Y-120027300D01*
X149857800Y-120027300D01*
X149790761Y-120007615D01*
X149745006Y-119954811D01*
X149733800Y-119903300D01*
X149733800Y-115096700D01*
X149753485Y-115029661D01*
X149806289Y-114983906D01*
X149857800Y-114972700D01*
X152807200Y-114972700D01*
X152807200Y-111099200D01*
X144124000Y-111099200D01*
X144056961Y-111079515D01*
X144011206Y-111026711D01*
X144000000Y-110975200D01*
X144000000Y-110008125D01*
X144001061Y-109991940D01*
X144014906Y-109886776D01*
X144023284Y-109855508D01*
X144060740Y-109765081D01*
X144076923Y-109737050D01*
X144136513Y-109659392D01*
X144159392Y-109636513D01*
X144237050Y-109576923D01*
X144265079Y-109560740D01*
X144355509Y-109523283D01*
X144386775Y-109514906D01*
X144491941Y-109501061D01*
X144508126Y-109500000D01*
X160075600Y-109500000D01*
X160142639Y-109519685D01*
G37*
%TD.AperFunction*%
%TD*%
M02*
