M48
; DRILL file {KiCad 8.0.7} date 2025-01-31T21:54:56-0500
; FORMAT={-:-/ absolute / inch / decimal}
; #@! TF.CreationDate,2025-01-31T21:54:56-05:00
; #@! TF.GenerationSoftware,Kicad,Pcbnew,8.0.7
; #@! TF.FileFunction,Plated,1,2,PTH
FMAT,2
INCH
; #@! TA.AperFunction,Plated,PTH,ViaDrill
T1C0.0118
; #@! TA.AperFunction,Plated,PTH,ComponentDrill
T2C0.0827
; #@! TA.AperFunction,Plated,PTH,ComponentDrill
T3C0.2008
%
G90
G05
T1
X3.8189Y-3.9961
X3.8189Y-4.0945
X3.8189Y-5.2559
X3.8189Y-5.3543
X3.8189Y-5.4528
X3.8189Y-5.5512
X3.8189Y-5.6496
X3.8189Y-5.748
X3.8189Y-5.8465
X3.8189Y-5.9449
X3.8189Y-6.0433
X3.9173Y-3.9961
X3.9173Y-4.0945
X3.9173Y-5.6496
X3.9173Y-5.748
X3.9173Y-5.8465
X3.9173Y-5.9449
X3.9173Y-6.0433
X4.0157Y-3.9961
X4.0157Y-4.0945
X4.0157Y-5.6496
X4.0157Y-5.748
X4.0157Y-5.8465
X4.0157Y-5.9449
X4.0157Y-6.0433
X4.1142Y-3.9961
X4.1142Y-4.0945
X4.1142Y-5.6496
X4.1142Y-5.748
X4.1142Y-5.8465
X4.1142Y-5.9449
X4.1142Y-6.0433
X4.2126Y-3.9961
X4.2126Y-4.0945
X4.2126Y-5.6496
X4.2126Y-5.748
X4.2126Y-5.8465
X4.2126Y-5.9449
X4.2126Y-6.0433
X4.311Y-3.9961
X4.311Y-4.0945
X4.311Y-5.2559
X4.311Y-5.5512
X4.311Y-5.6496
X4.311Y-5.748
X4.311Y-5.8465
X4.311Y-5.9449
X4.311Y-6.0433
X4.4094Y-3.9961
X4.4094Y-4.0945
X4.4094Y-5.3543
X4.4094Y-5.4528
X4.4094Y-5.5512
X4.4094Y-5.6496
X4.4094Y-5.748
X4.4094Y-5.8465
X4.4094Y-5.9449
X4.4094Y-6.0433
X4.5079Y-3.9961
X4.5079Y-4.0945
X4.5079Y-4.1929
X4.5079Y-5.6496
X4.5079Y-5.748
X4.5079Y-5.8465
X4.5079Y-5.9449
X4.5079Y-6.0433
X4.6063Y-3.9961
X4.6063Y-4.0945
X4.6063Y-4.1929
X4.6063Y-5.6496
X4.6063Y-5.748
X4.6063Y-5.8465
X4.6063Y-5.9449
X4.6063Y-6.0433
X4.7047Y-3.9961
X4.7047Y-4.0945
X4.7047Y-5.9449
X4.7047Y-6.0433
X4.8031Y-3.9961
X4.8031Y-4.0945
X4.8031Y-5.9449
X4.8031Y-6.0433
X4.9016Y-3.9961
X4.9016Y-6.0433
X5.0Y-3.9961
X5.0Y-4.0945
X5.0Y-5.9449
X5.0Y-6.0433
X5.0984Y-3.9961
X5.0984Y-4.0945
X5.0984Y-5.9449
X5.0984Y-6.0433
X5.1969Y-3.9961
X5.1969Y-4.0945
X5.1969Y-4.1929
X5.1969Y-5.9449
X5.1969Y-6.0433
X5.2953Y-3.9961
X5.2953Y-4.0945
X5.2953Y-4.1929
X5.2953Y-5.6496
X5.2953Y-5.748
X5.2953Y-5.8465
X5.2953Y-5.9449
X5.2953Y-6.0433
X5.3937Y-3.9961
X5.3937Y-4.0945
X5.3937Y-4.1929
X5.3937Y-5.6496
X5.3937Y-5.748
X5.3937Y-5.8465
X5.3937Y-5.9449
X5.3937Y-6.0433
X5.4921Y-3.9961
X5.4921Y-4.0945
X5.4921Y-4.1929
X5.4921Y-5.9449
X5.4921Y-6.0433
X5.5906Y-3.9961
X5.5906Y-4.0945
X5.5906Y-4.1929
X5.5906Y-5.9449
X5.5906Y-6.0433
X5.689Y-3.9961
X5.689Y-4.0945
X5.689Y-4.1929
X5.689Y-5.9449
X5.689Y-6.0433
X5.7874Y-3.9961
X5.7874Y-4.0945
X5.7874Y-4.1929
X5.7874Y-6.0433
X5.8858Y-3.9961
X5.8858Y-4.0945
X5.8858Y-4.1929
X5.8858Y-5.9449
X5.8858Y-6.0433
X5.9843Y-3.9961
X5.9843Y-4.0945
X5.9843Y-4.1929
X5.9843Y-5.9449
X5.9843Y-6.0433
X6.0827Y-3.9961
X6.0827Y-4.0945
X6.0827Y-4.1929
X6.0827Y-5.6496
X6.0827Y-5.748
X6.0827Y-5.8465
X6.0827Y-5.9449
X6.0827Y-6.0433
X6.1811Y-3.9961
X6.1811Y-4.0945
X6.1811Y-4.1929
X6.1811Y-5.6496
X6.1811Y-5.748
X6.1811Y-5.8465
X6.1811Y-5.9449
X6.1811Y-6.0433
X6.2795Y-3.9961
X6.2795Y-4.0945
X6.2795Y-4.1929
X6.2795Y-5.6496
X6.2795Y-5.748
X6.2795Y-5.8465
X6.2795Y-5.9449
X6.2795Y-6.0433
X6.378Y-3.9961
X6.378Y-4.0945
X6.378Y-5.9449
X6.378Y-6.0433
X6.4764Y-3.9961
X6.4764Y-4.0945
X6.4764Y-5.9449
X6.4764Y-6.0433
X6.5748Y-3.9961
X6.5748Y-6.0433
X6.6732Y-3.9961
X6.6732Y-4.0945
X6.6732Y-5.9449
X6.6732Y-6.0433
X6.7717Y-3.9961
X6.7717Y-4.0945
X6.7717Y-5.9449
X6.7717Y-6.0433
X6.8701Y-3.9961
X6.8701Y-4.0945
X6.8701Y-4.1929
X6.8701Y-5.6496
X6.8701Y-5.748
X6.8701Y-5.8465
X6.8701Y-5.9449
X6.8701Y-6.0433
X6.9685Y-3.9961
X6.9685Y-4.0945
X6.9685Y-4.1929
X6.9685Y-5.6496
X6.9685Y-5.748
X6.9685Y-5.8465
X6.9685Y-5.9449
X6.9685Y-6.0433
X7.0669Y-3.9961
X7.0669Y-4.0945
X7.0669Y-4.1929
X7.0669Y-5.6496
X7.0669Y-5.748
X7.0669Y-5.8465
X7.0669Y-5.9449
X7.0669Y-6.0433
X7.1654Y-3.9961
X7.1654Y-4.0945
X7.1654Y-5.9449
X7.1654Y-6.0433
X7.2638Y-3.9961
X7.2638Y-4.0945
X7.2638Y-5.9449
X7.2638Y-6.0433
X7.3622Y-3.9961
X7.3622Y-6.0433
X7.4606Y-3.9961
X7.4606Y-4.0945
X7.4606Y-5.9449
X7.4606Y-6.0433
X7.5591Y-3.9961
X7.5591Y-4.0945
X7.5591Y-5.9449
X7.5591Y-6.0433
X7.6575Y-3.9961
X7.6575Y-4.0945
X7.6575Y-5.9449
X7.6575Y-6.0433
X7.7559Y-3.9961
X7.7559Y-4.0945
X7.7559Y-4.1929
X7.7559Y-5.2559
X7.7559Y-5.3543
X7.7559Y-5.4528
X7.7559Y-5.5512
X7.7559Y-5.6496
X7.7559Y-5.748
X7.7559Y-5.8465
X7.7559Y-5.9449
X7.7559Y-6.0433
X7.8543Y-3.9961
X7.8543Y-4.0945
X7.8543Y-4.1929
X7.8543Y-5.2559
X7.8543Y-5.3543
X7.8543Y-5.4528
X7.8543Y-5.5512
X7.8543Y-5.6496
X7.8543Y-5.748
X7.8543Y-5.8465
X7.8543Y-5.9449
X7.8543Y-6.0433
X7.9528Y-3.9961
X7.9528Y-4.0945
X7.9528Y-4.1929
X7.9528Y-5.2559
X7.9528Y-5.3543
X7.9528Y-5.4528
X7.9528Y-5.5512
X7.9528Y-5.6496
X7.9528Y-5.748
X7.9528Y-5.8465
X7.9528Y-5.9449
X7.9528Y-6.0433
X8.0512Y-3.9961
X8.0512Y-4.0945
X8.0512Y-4.1929
X8.0512Y-5.6496
X8.0512Y-5.748
X8.0512Y-5.8465
X8.0512Y-5.9449
X8.0512Y-6.0433
X8.1496Y-3.9961
X8.1496Y-4.0945
X8.1496Y-4.1929
X8.1496Y-5.8465
X8.1496Y-5.9449
X8.1496Y-6.0433
X8.248Y-3.9961
X8.248Y-4.0945
X8.248Y-4.1929
X8.248Y-5.8465
X8.248Y-5.9449
X8.248Y-6.0433
X8.3465Y-3.9961
X8.3465Y-4.0945
X8.3465Y-4.1929
X8.3465Y-5.6496
X8.3465Y-5.748
X8.3465Y-5.8465
X8.3465Y-5.9449
X8.3465Y-6.0433
X8.4449Y-3.9961
X8.4449Y-4.0945
X8.4449Y-4.1929
X8.4449Y-5.2559
X8.4449Y-5.5512
X8.4449Y-5.6496
X8.4449Y-5.748
X8.4449Y-5.8465
X8.4449Y-5.9449
X8.4449Y-6.0433
T2
X8.2283Y-4.9921
X8.2283Y-5.7402
T3
X4.0945Y-4.6447
X4.0945Y-5.3947
X8.2283Y-4.6447
X8.2283Y-5.3947
M30
