%TF.GenerationSoftware,KiCad,Pcbnew,8.0.7*%
%TF.CreationDate,2025-01-31T21:54:53-05:00*%
%TF.ProjectId,filter_board,66696c74-6572-45f6-926f-6172642e6b69,rev?*%
%TF.SameCoordinates,Original*%
%TF.FileFunction,Legend,Top*%
%TF.FilePolarity,Positive*%
%FSLAX46Y46*%
G04 Gerber Fmt 4.6, Leading zero omitted, Abs format (unit mm)*
G04 Created by KiCad (PCBNEW 8.0.7) date 2025-01-31 21:54:53*
%MOMM*%
%LPD*%
G01*
G04 APERTURE LIST*
%ADD10C,0.300000*%
%ADD11C,0.150000*%
%ADD12C,0.100000*%
%ADD13C,0.120000*%
%ADD14C,0.152400*%
G04 APERTURE END LIST*
D10*
X97378571Y-147370996D02*
X97378571Y-145870996D01*
X97378571Y-146585282D02*
X98235714Y-146585282D01*
X98235714Y-147370996D02*
X98235714Y-145870996D01*
X98950000Y-147370996D02*
X98950000Y-146370996D01*
X98950000Y-145870996D02*
X98878572Y-145942425D01*
X98878572Y-145942425D02*
X98950000Y-146013853D01*
X98950000Y-146013853D02*
X99021429Y-145942425D01*
X99021429Y-145942425D02*
X98950000Y-145870996D01*
X98950000Y-145870996D02*
X98950000Y-146013853D01*
X100307144Y-146370996D02*
X100307144Y-147585282D01*
X100307144Y-147585282D02*
X100235715Y-147728139D01*
X100235715Y-147728139D02*
X100164286Y-147799568D01*
X100164286Y-147799568D02*
X100021429Y-147870996D01*
X100021429Y-147870996D02*
X99807144Y-147870996D01*
X99807144Y-147870996D02*
X99664286Y-147799568D01*
X100307144Y-147299568D02*
X100164286Y-147370996D01*
X100164286Y-147370996D02*
X99878572Y-147370996D01*
X99878572Y-147370996D02*
X99735715Y-147299568D01*
X99735715Y-147299568D02*
X99664286Y-147228139D01*
X99664286Y-147228139D02*
X99592858Y-147085282D01*
X99592858Y-147085282D02*
X99592858Y-146656710D01*
X99592858Y-146656710D02*
X99664286Y-146513853D01*
X99664286Y-146513853D02*
X99735715Y-146442425D01*
X99735715Y-146442425D02*
X99878572Y-146370996D01*
X99878572Y-146370996D02*
X100164286Y-146370996D01*
X100164286Y-146370996D02*
X100307144Y-146442425D01*
X101021429Y-147370996D02*
X101021429Y-145870996D01*
X101664287Y-147370996D02*
X101664287Y-146585282D01*
X101664287Y-146585282D02*
X101592858Y-146442425D01*
X101592858Y-146442425D02*
X101450001Y-146370996D01*
X101450001Y-146370996D02*
X101235715Y-146370996D01*
X101235715Y-146370996D02*
X101092858Y-146442425D01*
X101092858Y-146442425D02*
X101021429Y-146513853D01*
X104378572Y-147228139D02*
X104307144Y-147299568D01*
X104307144Y-147299568D02*
X104092858Y-147370996D01*
X104092858Y-147370996D02*
X103950001Y-147370996D01*
X103950001Y-147370996D02*
X103735715Y-147299568D01*
X103735715Y-147299568D02*
X103592858Y-147156710D01*
X103592858Y-147156710D02*
X103521429Y-147013853D01*
X103521429Y-147013853D02*
X103450001Y-146728139D01*
X103450001Y-146728139D02*
X103450001Y-146513853D01*
X103450001Y-146513853D02*
X103521429Y-146228139D01*
X103521429Y-146228139D02*
X103592858Y-146085282D01*
X103592858Y-146085282D02*
X103735715Y-145942425D01*
X103735715Y-145942425D02*
X103950001Y-145870996D01*
X103950001Y-145870996D02*
X104092858Y-145870996D01*
X104092858Y-145870996D02*
X104307144Y-145942425D01*
X104307144Y-145942425D02*
X104378572Y-146013853D01*
X105664287Y-146370996D02*
X105664287Y-147370996D01*
X105021429Y-146370996D02*
X105021429Y-147156710D01*
X105021429Y-147156710D02*
X105092858Y-147299568D01*
X105092858Y-147299568D02*
X105235715Y-147370996D01*
X105235715Y-147370996D02*
X105450001Y-147370996D01*
X105450001Y-147370996D02*
X105592858Y-147299568D01*
X105592858Y-147299568D02*
X105664287Y-147228139D01*
X106378572Y-147370996D02*
X106378572Y-146370996D01*
X106378572Y-146656710D02*
X106450001Y-146513853D01*
X106450001Y-146513853D02*
X106521430Y-146442425D01*
X106521430Y-146442425D02*
X106664287Y-146370996D01*
X106664287Y-146370996D02*
X106807144Y-146370996D01*
X107307143Y-147370996D02*
X107307143Y-146370996D01*
X107307143Y-146656710D02*
X107378572Y-146513853D01*
X107378572Y-146513853D02*
X107450001Y-146442425D01*
X107450001Y-146442425D02*
X107592858Y-146370996D01*
X107592858Y-146370996D02*
X107735715Y-146370996D01*
X108807143Y-147299568D02*
X108664286Y-147370996D01*
X108664286Y-147370996D02*
X108378572Y-147370996D01*
X108378572Y-147370996D02*
X108235714Y-147299568D01*
X108235714Y-147299568D02*
X108164286Y-147156710D01*
X108164286Y-147156710D02*
X108164286Y-146585282D01*
X108164286Y-146585282D02*
X108235714Y-146442425D01*
X108235714Y-146442425D02*
X108378572Y-146370996D01*
X108378572Y-146370996D02*
X108664286Y-146370996D01*
X108664286Y-146370996D02*
X108807143Y-146442425D01*
X108807143Y-146442425D02*
X108878572Y-146585282D01*
X108878572Y-146585282D02*
X108878572Y-146728139D01*
X108878572Y-146728139D02*
X108164286Y-146870996D01*
X109521428Y-146370996D02*
X109521428Y-147370996D01*
X109521428Y-146513853D02*
X109592857Y-146442425D01*
X109592857Y-146442425D02*
X109735714Y-146370996D01*
X109735714Y-146370996D02*
X109950000Y-146370996D01*
X109950000Y-146370996D02*
X110092857Y-146442425D01*
X110092857Y-146442425D02*
X110164286Y-146585282D01*
X110164286Y-146585282D02*
X110164286Y-147370996D01*
X110664286Y-146370996D02*
X111235714Y-146370996D01*
X110878571Y-145870996D02*
X110878571Y-147156710D01*
X110878571Y-147156710D02*
X110950000Y-147299568D01*
X110950000Y-147299568D02*
X111092857Y-147370996D01*
X111092857Y-147370996D02*
X111235714Y-147370996D01*
X98307143Y-149000198D02*
X97807143Y-149000198D01*
X97807143Y-149785912D02*
X97807143Y-148285912D01*
X97807143Y-148285912D02*
X98521429Y-148285912D01*
X99092857Y-149785912D02*
X99092857Y-148785912D01*
X99092857Y-148285912D02*
X99021429Y-148357341D01*
X99021429Y-148357341D02*
X99092857Y-148428769D01*
X99092857Y-148428769D02*
X99164286Y-148357341D01*
X99164286Y-148357341D02*
X99092857Y-148285912D01*
X99092857Y-148285912D02*
X99092857Y-148428769D01*
X100021429Y-149785912D02*
X99878572Y-149714484D01*
X99878572Y-149714484D02*
X99807143Y-149571626D01*
X99807143Y-149571626D02*
X99807143Y-148285912D01*
X100378572Y-148785912D02*
X100950000Y-148785912D01*
X100592857Y-148285912D02*
X100592857Y-149571626D01*
X100592857Y-149571626D02*
X100664286Y-149714484D01*
X100664286Y-149714484D02*
X100807143Y-149785912D01*
X100807143Y-149785912D02*
X100950000Y-149785912D01*
X102021429Y-149714484D02*
X101878572Y-149785912D01*
X101878572Y-149785912D02*
X101592858Y-149785912D01*
X101592858Y-149785912D02*
X101450000Y-149714484D01*
X101450000Y-149714484D02*
X101378572Y-149571626D01*
X101378572Y-149571626D02*
X101378572Y-149000198D01*
X101378572Y-149000198D02*
X101450000Y-148857341D01*
X101450000Y-148857341D02*
X101592858Y-148785912D01*
X101592858Y-148785912D02*
X101878572Y-148785912D01*
X101878572Y-148785912D02*
X102021429Y-148857341D01*
X102021429Y-148857341D02*
X102092858Y-149000198D01*
X102092858Y-149000198D02*
X102092858Y-149143055D01*
X102092858Y-149143055D02*
X101378572Y-149285912D01*
X102735714Y-149785912D02*
X102735714Y-148785912D01*
X102735714Y-149071626D02*
X102807143Y-148928769D01*
X102807143Y-148928769D02*
X102878572Y-148857341D01*
X102878572Y-148857341D02*
X103021429Y-148785912D01*
X103021429Y-148785912D02*
X103164286Y-148785912D01*
X105307142Y-149000198D02*
X105521428Y-149071626D01*
X105521428Y-149071626D02*
X105592857Y-149143055D01*
X105592857Y-149143055D02*
X105664285Y-149285912D01*
X105664285Y-149285912D02*
X105664285Y-149500198D01*
X105664285Y-149500198D02*
X105592857Y-149643055D01*
X105592857Y-149643055D02*
X105521428Y-149714484D01*
X105521428Y-149714484D02*
X105378571Y-149785912D01*
X105378571Y-149785912D02*
X104807142Y-149785912D01*
X104807142Y-149785912D02*
X104807142Y-148285912D01*
X104807142Y-148285912D02*
X105307142Y-148285912D01*
X105307142Y-148285912D02*
X105450000Y-148357341D01*
X105450000Y-148357341D02*
X105521428Y-148428769D01*
X105521428Y-148428769D02*
X105592857Y-148571626D01*
X105592857Y-148571626D02*
X105592857Y-148714484D01*
X105592857Y-148714484D02*
X105521428Y-148857341D01*
X105521428Y-148857341D02*
X105450000Y-148928769D01*
X105450000Y-148928769D02*
X105307142Y-149000198D01*
X105307142Y-149000198D02*
X104807142Y-149000198D01*
X106521428Y-149785912D02*
X106378571Y-149714484D01*
X106378571Y-149714484D02*
X106307142Y-149643055D01*
X106307142Y-149643055D02*
X106235714Y-149500198D01*
X106235714Y-149500198D02*
X106235714Y-149071626D01*
X106235714Y-149071626D02*
X106307142Y-148928769D01*
X106307142Y-148928769D02*
X106378571Y-148857341D01*
X106378571Y-148857341D02*
X106521428Y-148785912D01*
X106521428Y-148785912D02*
X106735714Y-148785912D01*
X106735714Y-148785912D02*
X106878571Y-148857341D01*
X106878571Y-148857341D02*
X106950000Y-148928769D01*
X106950000Y-148928769D02*
X107021428Y-149071626D01*
X107021428Y-149071626D02*
X107021428Y-149500198D01*
X107021428Y-149500198D02*
X106950000Y-149643055D01*
X106950000Y-149643055D02*
X106878571Y-149714484D01*
X106878571Y-149714484D02*
X106735714Y-149785912D01*
X106735714Y-149785912D02*
X106521428Y-149785912D01*
X108307143Y-149785912D02*
X108307143Y-149000198D01*
X108307143Y-149000198D02*
X108235714Y-148857341D01*
X108235714Y-148857341D02*
X108092857Y-148785912D01*
X108092857Y-148785912D02*
X107807143Y-148785912D01*
X107807143Y-148785912D02*
X107664285Y-148857341D01*
X108307143Y-149714484D02*
X108164285Y-149785912D01*
X108164285Y-149785912D02*
X107807143Y-149785912D01*
X107807143Y-149785912D02*
X107664285Y-149714484D01*
X107664285Y-149714484D02*
X107592857Y-149571626D01*
X107592857Y-149571626D02*
X107592857Y-149428769D01*
X107592857Y-149428769D02*
X107664285Y-149285912D01*
X107664285Y-149285912D02*
X107807143Y-149214484D01*
X107807143Y-149214484D02*
X108164285Y-149214484D01*
X108164285Y-149214484D02*
X108307143Y-149143055D01*
X109021428Y-149785912D02*
X109021428Y-148785912D01*
X109021428Y-149071626D02*
X109092857Y-148928769D01*
X109092857Y-148928769D02*
X109164286Y-148857341D01*
X109164286Y-148857341D02*
X109307143Y-148785912D01*
X109307143Y-148785912D02*
X109450000Y-148785912D01*
X110592857Y-149785912D02*
X110592857Y-148285912D01*
X110592857Y-149714484D02*
X110449999Y-149785912D01*
X110449999Y-149785912D02*
X110164285Y-149785912D01*
X110164285Y-149785912D02*
X110021428Y-149714484D01*
X110021428Y-149714484D02*
X109949999Y-149643055D01*
X109949999Y-149643055D02*
X109878571Y-149500198D01*
X109878571Y-149500198D02*
X109878571Y-149071626D01*
X109878571Y-149071626D02*
X109949999Y-148928769D01*
X109949999Y-148928769D02*
X110021428Y-148857341D01*
X110021428Y-148857341D02*
X110164285Y-148785912D01*
X110164285Y-148785912D02*
X110449999Y-148785912D01*
X110449999Y-148785912D02*
X110592857Y-148857341D01*
X99164286Y-150700828D02*
X99450000Y-150700828D01*
X99450000Y-150700828D02*
X99592857Y-150772257D01*
X99592857Y-150772257D02*
X99735714Y-150915114D01*
X99735714Y-150915114D02*
X99807143Y-151200828D01*
X99807143Y-151200828D02*
X99807143Y-151700828D01*
X99807143Y-151700828D02*
X99735714Y-151986542D01*
X99735714Y-151986542D02*
X99592857Y-152129400D01*
X99592857Y-152129400D02*
X99450000Y-152200828D01*
X99450000Y-152200828D02*
X99164286Y-152200828D01*
X99164286Y-152200828D02*
X99021429Y-152129400D01*
X99021429Y-152129400D02*
X98878571Y-151986542D01*
X98878571Y-151986542D02*
X98807143Y-151700828D01*
X98807143Y-151700828D02*
X98807143Y-151200828D01*
X98807143Y-151200828D02*
X98878571Y-150915114D01*
X98878571Y-150915114D02*
X99021429Y-150772257D01*
X99021429Y-150772257D02*
X99164286Y-150700828D01*
X100307143Y-151200828D02*
X100592858Y-152200828D01*
X100592858Y-152200828D02*
X100878572Y-151486542D01*
X100878572Y-151486542D02*
X101164286Y-152200828D01*
X101164286Y-152200828D02*
X101450000Y-151200828D01*
X102592858Y-152129400D02*
X102450001Y-152200828D01*
X102450001Y-152200828D02*
X102164287Y-152200828D01*
X102164287Y-152200828D02*
X102021429Y-152129400D01*
X102021429Y-152129400D02*
X101950001Y-151986542D01*
X101950001Y-151986542D02*
X101950001Y-151415114D01*
X101950001Y-151415114D02*
X102021429Y-151272257D01*
X102021429Y-151272257D02*
X102164287Y-151200828D01*
X102164287Y-151200828D02*
X102450001Y-151200828D01*
X102450001Y-151200828D02*
X102592858Y-151272257D01*
X102592858Y-151272257D02*
X102664287Y-151415114D01*
X102664287Y-151415114D02*
X102664287Y-151557971D01*
X102664287Y-151557971D02*
X101950001Y-151700828D01*
X103307143Y-151200828D02*
X103307143Y-152200828D01*
X103307143Y-151343685D02*
X103378572Y-151272257D01*
X103378572Y-151272257D02*
X103521429Y-151200828D01*
X103521429Y-151200828D02*
X103735715Y-151200828D01*
X103735715Y-151200828D02*
X103878572Y-151272257D01*
X103878572Y-151272257D02*
X103950001Y-151415114D01*
X103950001Y-151415114D02*
X103950001Y-152200828D01*
X106307143Y-151415114D02*
X106521429Y-151486542D01*
X106521429Y-151486542D02*
X106592858Y-151557971D01*
X106592858Y-151557971D02*
X106664286Y-151700828D01*
X106664286Y-151700828D02*
X106664286Y-151915114D01*
X106664286Y-151915114D02*
X106592858Y-152057971D01*
X106592858Y-152057971D02*
X106521429Y-152129400D01*
X106521429Y-152129400D02*
X106378572Y-152200828D01*
X106378572Y-152200828D02*
X105807143Y-152200828D01*
X105807143Y-152200828D02*
X105807143Y-150700828D01*
X105807143Y-150700828D02*
X106307143Y-150700828D01*
X106307143Y-150700828D02*
X106450001Y-150772257D01*
X106450001Y-150772257D02*
X106521429Y-150843685D01*
X106521429Y-150843685D02*
X106592858Y-150986542D01*
X106592858Y-150986542D02*
X106592858Y-151129400D01*
X106592858Y-151129400D02*
X106521429Y-151272257D01*
X106521429Y-151272257D02*
X106450001Y-151343685D01*
X106450001Y-151343685D02*
X106307143Y-151415114D01*
X106307143Y-151415114D02*
X105807143Y-151415114D01*
X107950001Y-152200828D02*
X107950001Y-151415114D01*
X107950001Y-151415114D02*
X107878572Y-151272257D01*
X107878572Y-151272257D02*
X107735715Y-151200828D01*
X107735715Y-151200828D02*
X107450001Y-151200828D01*
X107450001Y-151200828D02*
X107307143Y-151272257D01*
X107950001Y-152129400D02*
X107807143Y-152200828D01*
X107807143Y-152200828D02*
X107450001Y-152200828D01*
X107450001Y-152200828D02*
X107307143Y-152129400D01*
X107307143Y-152129400D02*
X107235715Y-151986542D01*
X107235715Y-151986542D02*
X107235715Y-151843685D01*
X107235715Y-151843685D02*
X107307143Y-151700828D01*
X107307143Y-151700828D02*
X107450001Y-151629400D01*
X107450001Y-151629400D02*
X107807143Y-151629400D01*
X107807143Y-151629400D02*
X107950001Y-151557971D01*
X108878572Y-152200828D02*
X108735715Y-152129400D01*
X108735715Y-152129400D02*
X108664286Y-151986542D01*
X108664286Y-151986542D02*
X108664286Y-150700828D01*
X109664286Y-152200828D02*
X109521429Y-152129400D01*
X109521429Y-152129400D02*
X109450000Y-151986542D01*
X109450000Y-151986542D02*
X109450000Y-150700828D01*
X201383082Y-151900828D02*
X201383082Y-152972257D01*
X201383082Y-152972257D02*
X201311653Y-153186542D01*
X201311653Y-153186542D02*
X201168796Y-153329400D01*
X201168796Y-153329400D02*
X200954510Y-153400828D01*
X200954510Y-153400828D02*
X200811653Y-153400828D01*
X202811653Y-153400828D02*
X202097367Y-153400828D01*
X202097367Y-153400828D02*
X202097367Y-151900828D01*
X204168796Y-153257971D02*
X204097368Y-153329400D01*
X204097368Y-153329400D02*
X203883082Y-153400828D01*
X203883082Y-153400828D02*
X203740225Y-153400828D01*
X203740225Y-153400828D02*
X203525939Y-153329400D01*
X203525939Y-153329400D02*
X203383082Y-153186542D01*
X203383082Y-153186542D02*
X203311653Y-153043685D01*
X203311653Y-153043685D02*
X203240225Y-152757971D01*
X203240225Y-152757971D02*
X203240225Y-152543685D01*
X203240225Y-152543685D02*
X203311653Y-152257971D01*
X203311653Y-152257971D02*
X203383082Y-152115114D01*
X203383082Y-152115114D02*
X203525939Y-151972257D01*
X203525939Y-151972257D02*
X203740225Y-151900828D01*
X203740225Y-151900828D02*
X203883082Y-151900828D01*
X203883082Y-151900828D02*
X204097368Y-151972257D01*
X204097368Y-151972257D02*
X204168796Y-152043685D01*
X205240225Y-151900828D02*
X205240225Y-152972257D01*
X205240225Y-152972257D02*
X205168796Y-153186542D01*
X205168796Y-153186542D02*
X205025939Y-153329400D01*
X205025939Y-153329400D02*
X204811653Y-153400828D01*
X204811653Y-153400828D02*
X204668796Y-153400828D01*
X206668796Y-153400828D02*
X205954510Y-153400828D01*
X205954510Y-153400828D02*
X205954510Y-151900828D01*
X208025939Y-153257971D02*
X207954511Y-153329400D01*
X207954511Y-153329400D02*
X207740225Y-153400828D01*
X207740225Y-153400828D02*
X207597368Y-153400828D01*
X207597368Y-153400828D02*
X207383082Y-153329400D01*
X207383082Y-153329400D02*
X207240225Y-153186542D01*
X207240225Y-153186542D02*
X207168796Y-153043685D01*
X207168796Y-153043685D02*
X207097368Y-152757971D01*
X207097368Y-152757971D02*
X207097368Y-152543685D01*
X207097368Y-152543685D02*
X207168796Y-152257971D01*
X207168796Y-152257971D02*
X207240225Y-152115114D01*
X207240225Y-152115114D02*
X207383082Y-151972257D01*
X207383082Y-151972257D02*
X207597368Y-151900828D01*
X207597368Y-151900828D02*
X207740225Y-151900828D01*
X207740225Y-151900828D02*
X207954511Y-151972257D01*
X207954511Y-151972257D02*
X208025939Y-152043685D01*
X209097368Y-151900828D02*
X209097368Y-152972257D01*
X209097368Y-152972257D02*
X209025939Y-153186542D01*
X209025939Y-153186542D02*
X208883082Y-153329400D01*
X208883082Y-153329400D02*
X208668796Y-153400828D01*
X208668796Y-153400828D02*
X208525939Y-153400828D01*
X210525939Y-153400828D02*
X209811653Y-153400828D01*
X209811653Y-153400828D02*
X209811653Y-151900828D01*
X211883082Y-153257971D02*
X211811654Y-153329400D01*
X211811654Y-153329400D02*
X211597368Y-153400828D01*
X211597368Y-153400828D02*
X211454511Y-153400828D01*
X211454511Y-153400828D02*
X211240225Y-153329400D01*
X211240225Y-153329400D02*
X211097368Y-153186542D01*
X211097368Y-153186542D02*
X211025939Y-153043685D01*
X211025939Y-153043685D02*
X210954511Y-152757971D01*
X210954511Y-152757971D02*
X210954511Y-152543685D01*
X210954511Y-152543685D02*
X211025939Y-152257971D01*
X211025939Y-152257971D02*
X211097368Y-152115114D01*
X211097368Y-152115114D02*
X211240225Y-151972257D01*
X211240225Y-151972257D02*
X211454511Y-151900828D01*
X211454511Y-151900828D02*
X211597368Y-151900828D01*
X211597368Y-151900828D02*
X211811654Y-151972257D01*
X211811654Y-151972257D02*
X211883082Y-152043685D01*
X212954511Y-151900828D02*
X212954511Y-152972257D01*
X212954511Y-152972257D02*
X212883082Y-153186542D01*
X212883082Y-153186542D02*
X212740225Y-153329400D01*
X212740225Y-153329400D02*
X212525939Y-153400828D01*
X212525939Y-153400828D02*
X212383082Y-153400828D01*
X214383082Y-153400828D02*
X213668796Y-153400828D01*
X213668796Y-153400828D02*
X213668796Y-151900828D01*
X215740225Y-153257971D02*
X215668797Y-153329400D01*
X215668797Y-153329400D02*
X215454511Y-153400828D01*
X215454511Y-153400828D02*
X215311654Y-153400828D01*
X215311654Y-153400828D02*
X215097368Y-153329400D01*
X215097368Y-153329400D02*
X214954511Y-153186542D01*
X214954511Y-153186542D02*
X214883082Y-153043685D01*
X214883082Y-153043685D02*
X214811654Y-152757971D01*
X214811654Y-152757971D02*
X214811654Y-152543685D01*
X214811654Y-152543685D02*
X214883082Y-152257971D01*
X214883082Y-152257971D02*
X214954511Y-152115114D01*
X214954511Y-152115114D02*
X215097368Y-151972257D01*
X215097368Y-151972257D02*
X215311654Y-151900828D01*
X215311654Y-151900828D02*
X215454511Y-151900828D01*
X215454511Y-151900828D02*
X215668797Y-151972257D01*
X215668797Y-151972257D02*
X215740225Y-152043685D01*
X111161653Y-118199400D02*
X113447368Y-118199400D01*
X112304510Y-119342257D02*
X112304510Y-117056542D01*
X111161653Y-136949400D02*
X113447368Y-136949400D01*
D11*
X107859580Y-105180357D02*
X107907200Y-105227976D01*
X107907200Y-105227976D02*
X107954819Y-105370833D01*
X107954819Y-105370833D02*
X107954819Y-105466071D01*
X107954819Y-105466071D02*
X107907200Y-105608928D01*
X107907200Y-105608928D02*
X107811961Y-105704166D01*
X107811961Y-105704166D02*
X107716723Y-105751785D01*
X107716723Y-105751785D02*
X107526247Y-105799404D01*
X107526247Y-105799404D02*
X107383390Y-105799404D01*
X107383390Y-105799404D02*
X107192914Y-105751785D01*
X107192914Y-105751785D02*
X107097676Y-105704166D01*
X107097676Y-105704166D02*
X107002438Y-105608928D01*
X107002438Y-105608928D02*
X106954819Y-105466071D01*
X106954819Y-105466071D02*
X106954819Y-105370833D01*
X106954819Y-105370833D02*
X107002438Y-105227976D01*
X107002438Y-105227976D02*
X107050057Y-105180357D01*
X107954819Y-104227976D02*
X107954819Y-104799404D01*
X107954819Y-104513690D02*
X106954819Y-104513690D01*
X106954819Y-104513690D02*
X107097676Y-104608928D01*
X107097676Y-104608928D02*
X107192914Y-104704166D01*
X107192914Y-104704166D02*
X107240533Y-104799404D01*
X107383390Y-103656547D02*
X107335771Y-103751785D01*
X107335771Y-103751785D02*
X107288152Y-103799404D01*
X107288152Y-103799404D02*
X107192914Y-103847023D01*
X107192914Y-103847023D02*
X107145295Y-103847023D01*
X107145295Y-103847023D02*
X107050057Y-103799404D01*
X107050057Y-103799404D02*
X107002438Y-103751785D01*
X107002438Y-103751785D02*
X106954819Y-103656547D01*
X106954819Y-103656547D02*
X106954819Y-103466071D01*
X106954819Y-103466071D02*
X107002438Y-103370833D01*
X107002438Y-103370833D02*
X107050057Y-103323214D01*
X107050057Y-103323214D02*
X107145295Y-103275595D01*
X107145295Y-103275595D02*
X107192914Y-103275595D01*
X107192914Y-103275595D02*
X107288152Y-103323214D01*
X107288152Y-103323214D02*
X107335771Y-103370833D01*
X107335771Y-103370833D02*
X107383390Y-103466071D01*
X107383390Y-103466071D02*
X107383390Y-103656547D01*
X107383390Y-103656547D02*
X107431009Y-103751785D01*
X107431009Y-103751785D02*
X107478628Y-103799404D01*
X107478628Y-103799404D02*
X107573866Y-103847023D01*
X107573866Y-103847023D02*
X107764342Y-103847023D01*
X107764342Y-103847023D02*
X107859580Y-103799404D01*
X107859580Y-103799404D02*
X107907200Y-103751785D01*
X107907200Y-103751785D02*
X107954819Y-103656547D01*
X107954819Y-103656547D02*
X107954819Y-103466071D01*
X107954819Y-103466071D02*
X107907200Y-103370833D01*
X107907200Y-103370833D02*
X107859580Y-103323214D01*
X107859580Y-103323214D02*
X107764342Y-103275595D01*
X107764342Y-103275595D02*
X107573866Y-103275595D01*
X107573866Y-103275595D02*
X107478628Y-103323214D01*
X107478628Y-103323214D02*
X107431009Y-103370833D01*
X107431009Y-103370833D02*
X107383390Y-103466071D01*
X105359580Y-105180357D02*
X105407200Y-105227976D01*
X105407200Y-105227976D02*
X105454819Y-105370833D01*
X105454819Y-105370833D02*
X105454819Y-105466071D01*
X105454819Y-105466071D02*
X105407200Y-105608928D01*
X105407200Y-105608928D02*
X105311961Y-105704166D01*
X105311961Y-105704166D02*
X105216723Y-105751785D01*
X105216723Y-105751785D02*
X105026247Y-105799404D01*
X105026247Y-105799404D02*
X104883390Y-105799404D01*
X104883390Y-105799404D02*
X104692914Y-105751785D01*
X104692914Y-105751785D02*
X104597676Y-105704166D01*
X104597676Y-105704166D02*
X104502438Y-105608928D01*
X104502438Y-105608928D02*
X104454819Y-105466071D01*
X104454819Y-105466071D02*
X104454819Y-105370833D01*
X104454819Y-105370833D02*
X104502438Y-105227976D01*
X104502438Y-105227976D02*
X104550057Y-105180357D01*
X105454819Y-104227976D02*
X105454819Y-104799404D01*
X105454819Y-104513690D02*
X104454819Y-104513690D01*
X104454819Y-104513690D02*
X104597676Y-104608928D01*
X104597676Y-104608928D02*
X104692914Y-104704166D01*
X104692914Y-104704166D02*
X104740533Y-104799404D01*
X104454819Y-103894642D02*
X104454819Y-103227976D01*
X104454819Y-103227976D02*
X105454819Y-103656547D01*
X160609580Y-127617566D02*
X160657200Y-127665185D01*
X160657200Y-127665185D02*
X160704819Y-127808042D01*
X160704819Y-127808042D02*
X160704819Y-127903280D01*
X160704819Y-127903280D02*
X160657200Y-128046137D01*
X160657200Y-128046137D02*
X160561961Y-128141375D01*
X160561961Y-128141375D02*
X160466723Y-128188994D01*
X160466723Y-128188994D02*
X160276247Y-128236613D01*
X160276247Y-128236613D02*
X160133390Y-128236613D01*
X160133390Y-128236613D02*
X159942914Y-128188994D01*
X159942914Y-128188994D02*
X159847676Y-128141375D01*
X159847676Y-128141375D02*
X159752438Y-128046137D01*
X159752438Y-128046137D02*
X159704819Y-127903280D01*
X159704819Y-127903280D02*
X159704819Y-127808042D01*
X159704819Y-127808042D02*
X159752438Y-127665185D01*
X159752438Y-127665185D02*
X159800057Y-127617566D01*
X160704819Y-126665185D02*
X160704819Y-127236613D01*
X160704819Y-126950899D02*
X159704819Y-126950899D01*
X159704819Y-126950899D02*
X159847676Y-127046137D01*
X159847676Y-127046137D02*
X159942914Y-127141375D01*
X159942914Y-127141375D02*
X159990533Y-127236613D01*
D10*
X163474400Y-128039246D02*
X163474400Y-125753532D01*
X164617257Y-126896389D02*
X162331542Y-126896389D01*
D11*
X194390419Y-127833333D02*
X194342800Y-127785714D01*
X194342800Y-127785714D02*
X194295180Y-127642857D01*
X194295180Y-127642857D02*
X194295180Y-127547619D01*
X194295180Y-127547619D02*
X194342800Y-127404762D01*
X194342800Y-127404762D02*
X194438038Y-127309524D01*
X194438038Y-127309524D02*
X194533276Y-127261905D01*
X194533276Y-127261905D02*
X194723752Y-127214286D01*
X194723752Y-127214286D02*
X194866609Y-127214286D01*
X194866609Y-127214286D02*
X195057085Y-127261905D01*
X195057085Y-127261905D02*
X195152323Y-127309524D01*
X195152323Y-127309524D02*
X195247561Y-127404762D01*
X195247561Y-127404762D02*
X195295180Y-127547619D01*
X195295180Y-127547619D02*
X195295180Y-127642857D01*
X195295180Y-127642857D02*
X195247561Y-127785714D01*
X195247561Y-127785714D02*
X195199942Y-127833333D01*
X195295180Y-128738095D02*
X195295180Y-128261905D01*
X195295180Y-128261905D02*
X194818990Y-128214286D01*
X194818990Y-128214286D02*
X194866609Y-128261905D01*
X194866609Y-128261905D02*
X194914228Y-128357143D01*
X194914228Y-128357143D02*
X194914228Y-128595238D01*
X194914228Y-128595238D02*
X194866609Y-128690476D01*
X194866609Y-128690476D02*
X194818990Y-128738095D01*
X194818990Y-128738095D02*
X194723752Y-128785714D01*
X194723752Y-128785714D02*
X194485657Y-128785714D01*
X194485657Y-128785714D02*
X194390419Y-128738095D01*
X194390419Y-128738095D02*
X194342800Y-128690476D01*
X194342800Y-128690476D02*
X194295180Y-128595238D01*
X194295180Y-128595238D02*
X194295180Y-128357143D01*
X194295180Y-128357143D02*
X194342800Y-128261905D01*
X194342800Y-128261905D02*
X194390419Y-128214286D01*
D10*
X191525600Y-127411653D02*
X191525600Y-129697368D01*
X190382742Y-128554510D02*
X192668457Y-128554510D01*
D11*
X145833333Y-109954819D02*
X145357143Y-109954819D01*
X145357143Y-109954819D02*
X145357143Y-108954819D01*
X146690476Y-109954819D02*
X146119048Y-109954819D01*
X146404762Y-109954819D02*
X146404762Y-108954819D01*
X146404762Y-108954819D02*
X146309524Y-109097676D01*
X146309524Y-109097676D02*
X146214286Y-109192914D01*
X146214286Y-109192914D02*
X146119048Y-109240533D01*
X181609580Y-127617566D02*
X181657200Y-127665185D01*
X181657200Y-127665185D02*
X181704819Y-127808042D01*
X181704819Y-127808042D02*
X181704819Y-127903280D01*
X181704819Y-127903280D02*
X181657200Y-128046137D01*
X181657200Y-128046137D02*
X181561961Y-128141375D01*
X181561961Y-128141375D02*
X181466723Y-128188994D01*
X181466723Y-128188994D02*
X181276247Y-128236613D01*
X181276247Y-128236613D02*
X181133390Y-128236613D01*
X181133390Y-128236613D02*
X180942914Y-128188994D01*
X180942914Y-128188994D02*
X180847676Y-128141375D01*
X180847676Y-128141375D02*
X180752438Y-128046137D01*
X180752438Y-128046137D02*
X180704819Y-127903280D01*
X180704819Y-127903280D02*
X180704819Y-127808042D01*
X180704819Y-127808042D02*
X180752438Y-127665185D01*
X180752438Y-127665185D02*
X180800057Y-127617566D01*
X180800057Y-127236613D02*
X180752438Y-127188994D01*
X180752438Y-127188994D02*
X180704819Y-127093756D01*
X180704819Y-127093756D02*
X180704819Y-126855661D01*
X180704819Y-126855661D02*
X180752438Y-126760423D01*
X180752438Y-126760423D02*
X180800057Y-126712804D01*
X180800057Y-126712804D02*
X180895295Y-126665185D01*
X180895295Y-126665185D02*
X180990533Y-126665185D01*
X180990533Y-126665185D02*
X181133390Y-126712804D01*
X181133390Y-126712804D02*
X181704819Y-127284232D01*
X181704819Y-127284232D02*
X181704819Y-126665185D01*
D10*
X184474400Y-128039246D02*
X184474400Y-125753532D01*
X185617257Y-126896389D02*
X183331542Y-126896389D01*
D11*
X152390419Y-127784233D02*
X152342800Y-127736614D01*
X152342800Y-127736614D02*
X152295180Y-127593757D01*
X152295180Y-127593757D02*
X152295180Y-127498519D01*
X152295180Y-127498519D02*
X152342800Y-127355662D01*
X152342800Y-127355662D02*
X152438038Y-127260424D01*
X152438038Y-127260424D02*
X152533276Y-127212805D01*
X152533276Y-127212805D02*
X152723752Y-127165186D01*
X152723752Y-127165186D02*
X152866609Y-127165186D01*
X152866609Y-127165186D02*
X153057085Y-127212805D01*
X153057085Y-127212805D02*
X153152323Y-127260424D01*
X153152323Y-127260424D02*
X153247561Y-127355662D01*
X153247561Y-127355662D02*
X153295180Y-127498519D01*
X153295180Y-127498519D02*
X153295180Y-127593757D01*
X153295180Y-127593757D02*
X153247561Y-127736614D01*
X153247561Y-127736614D02*
X153199942Y-127784233D01*
X153295180Y-128117567D02*
X153295180Y-128736614D01*
X153295180Y-128736614D02*
X152914228Y-128403281D01*
X152914228Y-128403281D02*
X152914228Y-128546138D01*
X152914228Y-128546138D02*
X152866609Y-128641376D01*
X152866609Y-128641376D02*
X152818990Y-128688995D01*
X152818990Y-128688995D02*
X152723752Y-128736614D01*
X152723752Y-128736614D02*
X152485657Y-128736614D01*
X152485657Y-128736614D02*
X152390419Y-128688995D01*
X152390419Y-128688995D02*
X152342800Y-128641376D01*
X152342800Y-128641376D02*
X152295180Y-128546138D01*
X152295180Y-128546138D02*
X152295180Y-128260424D01*
X152295180Y-128260424D02*
X152342800Y-128165186D01*
X152342800Y-128165186D02*
X152390419Y-128117567D01*
D10*
X149525600Y-127362553D02*
X149525600Y-129648268D01*
X148382742Y-128505410D02*
X150668457Y-128505410D01*
D11*
X210859580Y-106142857D02*
X210907200Y-106190476D01*
X210907200Y-106190476D02*
X210954819Y-106333333D01*
X210954819Y-106333333D02*
X210954819Y-106428571D01*
X210954819Y-106428571D02*
X210907200Y-106571428D01*
X210907200Y-106571428D02*
X210811961Y-106666666D01*
X210811961Y-106666666D02*
X210716723Y-106714285D01*
X210716723Y-106714285D02*
X210526247Y-106761904D01*
X210526247Y-106761904D02*
X210383390Y-106761904D01*
X210383390Y-106761904D02*
X210192914Y-106714285D01*
X210192914Y-106714285D02*
X210097676Y-106666666D01*
X210097676Y-106666666D02*
X210002438Y-106571428D01*
X210002438Y-106571428D02*
X209954819Y-106428571D01*
X209954819Y-106428571D02*
X209954819Y-106333333D01*
X209954819Y-106333333D02*
X210002438Y-106190476D01*
X210002438Y-106190476D02*
X210050057Y-106142857D01*
X210954819Y-105190476D02*
X210954819Y-105761904D01*
X210954819Y-105476190D02*
X209954819Y-105476190D01*
X209954819Y-105476190D02*
X210097676Y-105571428D01*
X210097676Y-105571428D02*
X210192914Y-105666666D01*
X210192914Y-105666666D02*
X210240533Y-105761904D01*
X210954819Y-104238095D02*
X210954819Y-104809523D01*
X210954819Y-104523809D02*
X209954819Y-104523809D01*
X209954819Y-104523809D02*
X210097676Y-104619047D01*
X210097676Y-104619047D02*
X210192914Y-104714285D01*
X210192914Y-104714285D02*
X210240533Y-104809523D01*
X131390419Y-127833333D02*
X131342800Y-127785714D01*
X131342800Y-127785714D02*
X131295180Y-127642857D01*
X131295180Y-127642857D02*
X131295180Y-127547619D01*
X131295180Y-127547619D02*
X131342800Y-127404762D01*
X131342800Y-127404762D02*
X131438038Y-127309524D01*
X131438038Y-127309524D02*
X131533276Y-127261905D01*
X131533276Y-127261905D02*
X131723752Y-127214286D01*
X131723752Y-127214286D02*
X131866609Y-127214286D01*
X131866609Y-127214286D02*
X132057085Y-127261905D01*
X132057085Y-127261905D02*
X132152323Y-127309524D01*
X132152323Y-127309524D02*
X132247561Y-127404762D01*
X132247561Y-127404762D02*
X132295180Y-127547619D01*
X132295180Y-127547619D02*
X132295180Y-127642857D01*
X132295180Y-127642857D02*
X132247561Y-127785714D01*
X132247561Y-127785714D02*
X132199942Y-127833333D01*
X132295180Y-128166667D02*
X132295180Y-128833333D01*
X132295180Y-128833333D02*
X131295180Y-128404762D01*
D10*
X128525600Y-127411653D02*
X128525600Y-129697368D01*
X127382742Y-128554510D02*
X129668457Y-128554510D01*
D11*
X173390419Y-127833333D02*
X173342800Y-127785714D01*
X173342800Y-127785714D02*
X173295180Y-127642857D01*
X173295180Y-127642857D02*
X173295180Y-127547619D01*
X173295180Y-127547619D02*
X173342800Y-127404762D01*
X173342800Y-127404762D02*
X173438038Y-127309524D01*
X173438038Y-127309524D02*
X173533276Y-127261905D01*
X173533276Y-127261905D02*
X173723752Y-127214286D01*
X173723752Y-127214286D02*
X173866609Y-127214286D01*
X173866609Y-127214286D02*
X174057085Y-127261905D01*
X174057085Y-127261905D02*
X174152323Y-127309524D01*
X174152323Y-127309524D02*
X174247561Y-127404762D01*
X174247561Y-127404762D02*
X174295180Y-127547619D01*
X174295180Y-127547619D02*
X174295180Y-127642857D01*
X174295180Y-127642857D02*
X174247561Y-127785714D01*
X174247561Y-127785714D02*
X174199942Y-127833333D01*
X173961847Y-128690476D02*
X173295180Y-128690476D01*
X174342800Y-128452381D02*
X173628514Y-128214286D01*
X173628514Y-128214286D02*
X173628514Y-128833333D01*
D10*
X170525600Y-127411653D02*
X170525600Y-129697368D01*
X169382742Y-128554510D02*
X171668457Y-128554510D01*
D11*
X208359580Y-106142857D02*
X208407200Y-106190476D01*
X208407200Y-106190476D02*
X208454819Y-106333333D01*
X208454819Y-106333333D02*
X208454819Y-106428571D01*
X208454819Y-106428571D02*
X208407200Y-106571428D01*
X208407200Y-106571428D02*
X208311961Y-106666666D01*
X208311961Y-106666666D02*
X208216723Y-106714285D01*
X208216723Y-106714285D02*
X208026247Y-106761904D01*
X208026247Y-106761904D02*
X207883390Y-106761904D01*
X207883390Y-106761904D02*
X207692914Y-106714285D01*
X207692914Y-106714285D02*
X207597676Y-106666666D01*
X207597676Y-106666666D02*
X207502438Y-106571428D01*
X207502438Y-106571428D02*
X207454819Y-106428571D01*
X207454819Y-106428571D02*
X207454819Y-106333333D01*
X207454819Y-106333333D02*
X207502438Y-106190476D01*
X207502438Y-106190476D02*
X207550057Y-106142857D01*
X208454819Y-105190476D02*
X208454819Y-105761904D01*
X208454819Y-105476190D02*
X207454819Y-105476190D01*
X207454819Y-105476190D02*
X207597676Y-105571428D01*
X207597676Y-105571428D02*
X207692914Y-105666666D01*
X207692914Y-105666666D02*
X207740533Y-105761904D01*
X207454819Y-104571428D02*
X207454819Y-104476190D01*
X207454819Y-104476190D02*
X207502438Y-104380952D01*
X207502438Y-104380952D02*
X207550057Y-104333333D01*
X207550057Y-104333333D02*
X207645295Y-104285714D01*
X207645295Y-104285714D02*
X207835771Y-104238095D01*
X207835771Y-104238095D02*
X208073866Y-104238095D01*
X208073866Y-104238095D02*
X208264342Y-104285714D01*
X208264342Y-104285714D02*
X208359580Y-104333333D01*
X208359580Y-104333333D02*
X208407200Y-104380952D01*
X208407200Y-104380952D02*
X208454819Y-104476190D01*
X208454819Y-104476190D02*
X208454819Y-104571428D01*
X208454819Y-104571428D02*
X208407200Y-104666666D01*
X208407200Y-104666666D02*
X208359580Y-104714285D01*
X208359580Y-104714285D02*
X208264342Y-104761904D01*
X208264342Y-104761904D02*
X208073866Y-104809523D01*
X208073866Y-104809523D02*
X207835771Y-104809523D01*
X207835771Y-104809523D02*
X207645295Y-104761904D01*
X207645295Y-104761904D02*
X207550057Y-104714285D01*
X207550057Y-104714285D02*
X207502438Y-104666666D01*
X207502438Y-104666666D02*
X207454819Y-104571428D01*
X215859580Y-106042857D02*
X215907200Y-106090476D01*
X215907200Y-106090476D02*
X215954819Y-106233333D01*
X215954819Y-106233333D02*
X215954819Y-106328571D01*
X215954819Y-106328571D02*
X215907200Y-106471428D01*
X215907200Y-106471428D02*
X215811961Y-106566666D01*
X215811961Y-106566666D02*
X215716723Y-106614285D01*
X215716723Y-106614285D02*
X215526247Y-106661904D01*
X215526247Y-106661904D02*
X215383390Y-106661904D01*
X215383390Y-106661904D02*
X215192914Y-106614285D01*
X215192914Y-106614285D02*
X215097676Y-106566666D01*
X215097676Y-106566666D02*
X215002438Y-106471428D01*
X215002438Y-106471428D02*
X214954819Y-106328571D01*
X214954819Y-106328571D02*
X214954819Y-106233333D01*
X214954819Y-106233333D02*
X215002438Y-106090476D01*
X215002438Y-106090476D02*
X215050057Y-106042857D01*
X215954819Y-105090476D02*
X215954819Y-105661904D01*
X215954819Y-105376190D02*
X214954819Y-105376190D01*
X214954819Y-105376190D02*
X215097676Y-105471428D01*
X215097676Y-105471428D02*
X215192914Y-105566666D01*
X215192914Y-105566666D02*
X215240533Y-105661904D01*
X214954819Y-104757142D02*
X214954819Y-104138095D01*
X214954819Y-104138095D02*
X215335771Y-104471428D01*
X215335771Y-104471428D02*
X215335771Y-104328571D01*
X215335771Y-104328571D02*
X215383390Y-104233333D01*
X215383390Y-104233333D02*
X215431009Y-104185714D01*
X215431009Y-104185714D02*
X215526247Y-104138095D01*
X215526247Y-104138095D02*
X215764342Y-104138095D01*
X215764342Y-104138095D02*
X215859580Y-104185714D01*
X215859580Y-104185714D02*
X215907200Y-104233333D01*
X215907200Y-104233333D02*
X215954819Y-104328571D01*
X215954819Y-104328571D02*
X215954819Y-104614285D01*
X215954819Y-104614285D02*
X215907200Y-104709523D01*
X215907200Y-104709523D02*
X215859580Y-104757142D01*
X118609580Y-127215766D02*
X118657200Y-127263385D01*
X118657200Y-127263385D02*
X118704819Y-127406242D01*
X118704819Y-127406242D02*
X118704819Y-127501480D01*
X118704819Y-127501480D02*
X118657200Y-127644337D01*
X118657200Y-127644337D02*
X118561961Y-127739575D01*
X118561961Y-127739575D02*
X118466723Y-127787194D01*
X118466723Y-127787194D02*
X118276247Y-127834813D01*
X118276247Y-127834813D02*
X118133390Y-127834813D01*
X118133390Y-127834813D02*
X117942914Y-127787194D01*
X117942914Y-127787194D02*
X117847676Y-127739575D01*
X117847676Y-127739575D02*
X117752438Y-127644337D01*
X117752438Y-127644337D02*
X117704819Y-127501480D01*
X117704819Y-127501480D02*
X117704819Y-127406242D01*
X117704819Y-127406242D02*
X117752438Y-127263385D01*
X117752438Y-127263385D02*
X117800057Y-127215766D01*
X117704819Y-126358623D02*
X117704819Y-126549099D01*
X117704819Y-126549099D02*
X117752438Y-126644337D01*
X117752438Y-126644337D02*
X117800057Y-126691956D01*
X117800057Y-126691956D02*
X117942914Y-126787194D01*
X117942914Y-126787194D02*
X118133390Y-126834813D01*
X118133390Y-126834813D02*
X118514342Y-126834813D01*
X118514342Y-126834813D02*
X118609580Y-126787194D01*
X118609580Y-126787194D02*
X118657200Y-126739575D01*
X118657200Y-126739575D02*
X118704819Y-126644337D01*
X118704819Y-126644337D02*
X118704819Y-126453861D01*
X118704819Y-126453861D02*
X118657200Y-126358623D01*
X118657200Y-126358623D02*
X118609580Y-126311004D01*
X118609580Y-126311004D02*
X118514342Y-126263385D01*
X118514342Y-126263385D02*
X118276247Y-126263385D01*
X118276247Y-126263385D02*
X118181009Y-126311004D01*
X118181009Y-126311004D02*
X118133390Y-126358623D01*
X118133390Y-126358623D02*
X118085771Y-126453861D01*
X118085771Y-126453861D02*
X118085771Y-126644337D01*
X118085771Y-126644337D02*
X118133390Y-126739575D01*
X118133390Y-126739575D02*
X118181009Y-126787194D01*
X118181009Y-126787194D02*
X118276247Y-126834813D01*
D10*
X121474400Y-127637446D02*
X121474400Y-125351732D01*
X122617257Y-126494589D02*
X120331542Y-126494589D01*
D11*
X100359580Y-105180357D02*
X100407200Y-105227976D01*
X100407200Y-105227976D02*
X100454819Y-105370833D01*
X100454819Y-105370833D02*
X100454819Y-105466071D01*
X100454819Y-105466071D02*
X100407200Y-105608928D01*
X100407200Y-105608928D02*
X100311961Y-105704166D01*
X100311961Y-105704166D02*
X100216723Y-105751785D01*
X100216723Y-105751785D02*
X100026247Y-105799404D01*
X100026247Y-105799404D02*
X99883390Y-105799404D01*
X99883390Y-105799404D02*
X99692914Y-105751785D01*
X99692914Y-105751785D02*
X99597676Y-105704166D01*
X99597676Y-105704166D02*
X99502438Y-105608928D01*
X99502438Y-105608928D02*
X99454819Y-105466071D01*
X99454819Y-105466071D02*
X99454819Y-105370833D01*
X99454819Y-105370833D02*
X99502438Y-105227976D01*
X99502438Y-105227976D02*
X99550057Y-105180357D01*
X100454819Y-104227976D02*
X100454819Y-104799404D01*
X100454819Y-104513690D02*
X99454819Y-104513690D01*
X99454819Y-104513690D02*
X99597676Y-104608928D01*
X99597676Y-104608928D02*
X99692914Y-104704166D01*
X99692914Y-104704166D02*
X99740533Y-104799404D01*
X99454819Y-103323214D02*
X99454819Y-103799404D01*
X99454819Y-103799404D02*
X99931009Y-103847023D01*
X99931009Y-103847023D02*
X99883390Y-103799404D01*
X99883390Y-103799404D02*
X99835771Y-103704166D01*
X99835771Y-103704166D02*
X99835771Y-103466071D01*
X99835771Y-103466071D02*
X99883390Y-103370833D01*
X99883390Y-103370833D02*
X99931009Y-103323214D01*
X99931009Y-103323214D02*
X100026247Y-103275595D01*
X100026247Y-103275595D02*
X100264342Y-103275595D01*
X100264342Y-103275595D02*
X100359580Y-103323214D01*
X100359580Y-103323214D02*
X100407200Y-103370833D01*
X100407200Y-103370833D02*
X100454819Y-103466071D01*
X100454819Y-103466071D02*
X100454819Y-103704166D01*
X100454819Y-103704166D02*
X100407200Y-103799404D01*
X100407200Y-103799404D02*
X100359580Y-103847023D01*
X213359580Y-106042857D02*
X213407200Y-106090476D01*
X213407200Y-106090476D02*
X213454819Y-106233333D01*
X213454819Y-106233333D02*
X213454819Y-106328571D01*
X213454819Y-106328571D02*
X213407200Y-106471428D01*
X213407200Y-106471428D02*
X213311961Y-106566666D01*
X213311961Y-106566666D02*
X213216723Y-106614285D01*
X213216723Y-106614285D02*
X213026247Y-106661904D01*
X213026247Y-106661904D02*
X212883390Y-106661904D01*
X212883390Y-106661904D02*
X212692914Y-106614285D01*
X212692914Y-106614285D02*
X212597676Y-106566666D01*
X212597676Y-106566666D02*
X212502438Y-106471428D01*
X212502438Y-106471428D02*
X212454819Y-106328571D01*
X212454819Y-106328571D02*
X212454819Y-106233333D01*
X212454819Y-106233333D02*
X212502438Y-106090476D01*
X212502438Y-106090476D02*
X212550057Y-106042857D01*
X213454819Y-105090476D02*
X213454819Y-105661904D01*
X213454819Y-105376190D02*
X212454819Y-105376190D01*
X212454819Y-105376190D02*
X212597676Y-105471428D01*
X212597676Y-105471428D02*
X212692914Y-105566666D01*
X212692914Y-105566666D02*
X212740533Y-105661904D01*
X212550057Y-104709523D02*
X212502438Y-104661904D01*
X212502438Y-104661904D02*
X212454819Y-104566666D01*
X212454819Y-104566666D02*
X212454819Y-104328571D01*
X212454819Y-104328571D02*
X212502438Y-104233333D01*
X212502438Y-104233333D02*
X212550057Y-104185714D01*
X212550057Y-104185714D02*
X212645295Y-104138095D01*
X212645295Y-104138095D02*
X212740533Y-104138095D01*
X212740533Y-104138095D02*
X212883390Y-104185714D01*
X212883390Y-104185714D02*
X213454819Y-104757142D01*
X213454819Y-104757142D02*
X213454819Y-104138095D01*
X110359580Y-105180357D02*
X110407200Y-105227976D01*
X110407200Y-105227976D02*
X110454819Y-105370833D01*
X110454819Y-105370833D02*
X110454819Y-105466071D01*
X110454819Y-105466071D02*
X110407200Y-105608928D01*
X110407200Y-105608928D02*
X110311961Y-105704166D01*
X110311961Y-105704166D02*
X110216723Y-105751785D01*
X110216723Y-105751785D02*
X110026247Y-105799404D01*
X110026247Y-105799404D02*
X109883390Y-105799404D01*
X109883390Y-105799404D02*
X109692914Y-105751785D01*
X109692914Y-105751785D02*
X109597676Y-105704166D01*
X109597676Y-105704166D02*
X109502438Y-105608928D01*
X109502438Y-105608928D02*
X109454819Y-105466071D01*
X109454819Y-105466071D02*
X109454819Y-105370833D01*
X109454819Y-105370833D02*
X109502438Y-105227976D01*
X109502438Y-105227976D02*
X109550057Y-105180357D01*
X110454819Y-104227976D02*
X110454819Y-104799404D01*
X110454819Y-104513690D02*
X109454819Y-104513690D01*
X109454819Y-104513690D02*
X109597676Y-104608928D01*
X109597676Y-104608928D02*
X109692914Y-104704166D01*
X109692914Y-104704166D02*
X109740533Y-104799404D01*
X110454819Y-103751785D02*
X110454819Y-103561309D01*
X110454819Y-103561309D02*
X110407200Y-103466071D01*
X110407200Y-103466071D02*
X110359580Y-103418452D01*
X110359580Y-103418452D02*
X110216723Y-103323214D01*
X110216723Y-103323214D02*
X110026247Y-103275595D01*
X110026247Y-103275595D02*
X109645295Y-103275595D01*
X109645295Y-103275595D02*
X109550057Y-103323214D01*
X109550057Y-103323214D02*
X109502438Y-103370833D01*
X109502438Y-103370833D02*
X109454819Y-103466071D01*
X109454819Y-103466071D02*
X109454819Y-103656547D01*
X109454819Y-103656547D02*
X109502438Y-103751785D01*
X109502438Y-103751785D02*
X109550057Y-103799404D01*
X109550057Y-103799404D02*
X109645295Y-103847023D01*
X109645295Y-103847023D02*
X109883390Y-103847023D01*
X109883390Y-103847023D02*
X109978628Y-103799404D01*
X109978628Y-103799404D02*
X110026247Y-103751785D01*
X110026247Y-103751785D02*
X110073866Y-103656547D01*
X110073866Y-103656547D02*
X110073866Y-103466071D01*
X110073866Y-103466071D02*
X110026247Y-103370833D01*
X110026247Y-103370833D02*
X109978628Y-103323214D01*
X109978628Y-103323214D02*
X109883390Y-103275595D01*
X203359580Y-106166666D02*
X203407200Y-106214285D01*
X203407200Y-106214285D02*
X203454819Y-106357142D01*
X203454819Y-106357142D02*
X203454819Y-106452380D01*
X203454819Y-106452380D02*
X203407200Y-106595237D01*
X203407200Y-106595237D02*
X203311961Y-106690475D01*
X203311961Y-106690475D02*
X203216723Y-106738094D01*
X203216723Y-106738094D02*
X203026247Y-106785713D01*
X203026247Y-106785713D02*
X202883390Y-106785713D01*
X202883390Y-106785713D02*
X202692914Y-106738094D01*
X202692914Y-106738094D02*
X202597676Y-106690475D01*
X202597676Y-106690475D02*
X202502438Y-106595237D01*
X202502438Y-106595237D02*
X202454819Y-106452380D01*
X202454819Y-106452380D02*
X202454819Y-106357142D01*
X202454819Y-106357142D02*
X202502438Y-106214285D01*
X202502438Y-106214285D02*
X202550057Y-106166666D01*
X202883390Y-105595237D02*
X202835771Y-105690475D01*
X202835771Y-105690475D02*
X202788152Y-105738094D01*
X202788152Y-105738094D02*
X202692914Y-105785713D01*
X202692914Y-105785713D02*
X202645295Y-105785713D01*
X202645295Y-105785713D02*
X202550057Y-105738094D01*
X202550057Y-105738094D02*
X202502438Y-105690475D01*
X202502438Y-105690475D02*
X202454819Y-105595237D01*
X202454819Y-105595237D02*
X202454819Y-105404761D01*
X202454819Y-105404761D02*
X202502438Y-105309523D01*
X202502438Y-105309523D02*
X202550057Y-105261904D01*
X202550057Y-105261904D02*
X202645295Y-105214285D01*
X202645295Y-105214285D02*
X202692914Y-105214285D01*
X202692914Y-105214285D02*
X202788152Y-105261904D01*
X202788152Y-105261904D02*
X202835771Y-105309523D01*
X202835771Y-105309523D02*
X202883390Y-105404761D01*
X202883390Y-105404761D02*
X202883390Y-105595237D01*
X202883390Y-105595237D02*
X202931009Y-105690475D01*
X202931009Y-105690475D02*
X202978628Y-105738094D01*
X202978628Y-105738094D02*
X203073866Y-105785713D01*
X203073866Y-105785713D02*
X203264342Y-105785713D01*
X203264342Y-105785713D02*
X203359580Y-105738094D01*
X203359580Y-105738094D02*
X203407200Y-105690475D01*
X203407200Y-105690475D02*
X203454819Y-105595237D01*
X203454819Y-105595237D02*
X203454819Y-105404761D01*
X203454819Y-105404761D02*
X203407200Y-105309523D01*
X203407200Y-105309523D02*
X203359580Y-105261904D01*
X203359580Y-105261904D02*
X203264342Y-105214285D01*
X203264342Y-105214285D02*
X203073866Y-105214285D01*
X203073866Y-105214285D02*
X202978628Y-105261904D01*
X202978628Y-105261904D02*
X202931009Y-105309523D01*
X202931009Y-105309523D02*
X202883390Y-105404761D01*
X205859580Y-106166666D02*
X205907200Y-106214285D01*
X205907200Y-106214285D02*
X205954819Y-106357142D01*
X205954819Y-106357142D02*
X205954819Y-106452380D01*
X205954819Y-106452380D02*
X205907200Y-106595237D01*
X205907200Y-106595237D02*
X205811961Y-106690475D01*
X205811961Y-106690475D02*
X205716723Y-106738094D01*
X205716723Y-106738094D02*
X205526247Y-106785713D01*
X205526247Y-106785713D02*
X205383390Y-106785713D01*
X205383390Y-106785713D02*
X205192914Y-106738094D01*
X205192914Y-106738094D02*
X205097676Y-106690475D01*
X205097676Y-106690475D02*
X205002438Y-106595237D01*
X205002438Y-106595237D02*
X204954819Y-106452380D01*
X204954819Y-106452380D02*
X204954819Y-106357142D01*
X204954819Y-106357142D02*
X205002438Y-106214285D01*
X205002438Y-106214285D02*
X205050057Y-106166666D01*
X205954819Y-105690475D02*
X205954819Y-105499999D01*
X205954819Y-105499999D02*
X205907200Y-105404761D01*
X205907200Y-105404761D02*
X205859580Y-105357142D01*
X205859580Y-105357142D02*
X205716723Y-105261904D01*
X205716723Y-105261904D02*
X205526247Y-105214285D01*
X205526247Y-105214285D02*
X205145295Y-105214285D01*
X205145295Y-105214285D02*
X205050057Y-105261904D01*
X205050057Y-105261904D02*
X205002438Y-105309523D01*
X205002438Y-105309523D02*
X204954819Y-105404761D01*
X204954819Y-105404761D02*
X204954819Y-105595237D01*
X204954819Y-105595237D02*
X205002438Y-105690475D01*
X205002438Y-105690475D02*
X205050057Y-105738094D01*
X205050057Y-105738094D02*
X205145295Y-105785713D01*
X205145295Y-105785713D02*
X205383390Y-105785713D01*
X205383390Y-105785713D02*
X205478628Y-105738094D01*
X205478628Y-105738094D02*
X205526247Y-105690475D01*
X205526247Y-105690475D02*
X205573866Y-105595237D01*
X205573866Y-105595237D02*
X205573866Y-105404761D01*
X205573866Y-105404761D02*
X205526247Y-105309523D01*
X205526247Y-105309523D02*
X205478628Y-105261904D01*
X205478628Y-105261904D02*
X205383390Y-105214285D01*
X112954819Y-105254166D02*
X112478628Y-105587499D01*
X112954819Y-105825594D02*
X111954819Y-105825594D01*
X111954819Y-105825594D02*
X111954819Y-105444642D01*
X111954819Y-105444642D02*
X112002438Y-105349404D01*
X112002438Y-105349404D02*
X112050057Y-105301785D01*
X112050057Y-105301785D02*
X112145295Y-105254166D01*
X112145295Y-105254166D02*
X112288152Y-105254166D01*
X112288152Y-105254166D02*
X112383390Y-105301785D01*
X112383390Y-105301785D02*
X112431009Y-105349404D01*
X112431009Y-105349404D02*
X112478628Y-105444642D01*
X112478628Y-105444642D02*
X112478628Y-105825594D01*
X112050057Y-104873213D02*
X112002438Y-104825594D01*
X112002438Y-104825594D02*
X111954819Y-104730356D01*
X111954819Y-104730356D02*
X111954819Y-104492261D01*
X111954819Y-104492261D02*
X112002438Y-104397023D01*
X112002438Y-104397023D02*
X112050057Y-104349404D01*
X112050057Y-104349404D02*
X112145295Y-104301785D01*
X112145295Y-104301785D02*
X112240533Y-104301785D01*
X112240533Y-104301785D02*
X112383390Y-104349404D01*
X112383390Y-104349404D02*
X112954819Y-104920832D01*
X112954819Y-104920832D02*
X112954819Y-104301785D01*
X102859580Y-105180357D02*
X102907200Y-105227976D01*
X102907200Y-105227976D02*
X102954819Y-105370833D01*
X102954819Y-105370833D02*
X102954819Y-105466071D01*
X102954819Y-105466071D02*
X102907200Y-105608928D01*
X102907200Y-105608928D02*
X102811961Y-105704166D01*
X102811961Y-105704166D02*
X102716723Y-105751785D01*
X102716723Y-105751785D02*
X102526247Y-105799404D01*
X102526247Y-105799404D02*
X102383390Y-105799404D01*
X102383390Y-105799404D02*
X102192914Y-105751785D01*
X102192914Y-105751785D02*
X102097676Y-105704166D01*
X102097676Y-105704166D02*
X102002438Y-105608928D01*
X102002438Y-105608928D02*
X101954819Y-105466071D01*
X101954819Y-105466071D02*
X101954819Y-105370833D01*
X101954819Y-105370833D02*
X102002438Y-105227976D01*
X102002438Y-105227976D02*
X102050057Y-105180357D01*
X102954819Y-104227976D02*
X102954819Y-104799404D01*
X102954819Y-104513690D02*
X101954819Y-104513690D01*
X101954819Y-104513690D02*
X102097676Y-104608928D01*
X102097676Y-104608928D02*
X102192914Y-104704166D01*
X102192914Y-104704166D02*
X102240533Y-104799404D01*
X101954819Y-103370833D02*
X101954819Y-103561309D01*
X101954819Y-103561309D02*
X102002438Y-103656547D01*
X102002438Y-103656547D02*
X102050057Y-103704166D01*
X102050057Y-103704166D02*
X102192914Y-103799404D01*
X102192914Y-103799404D02*
X102383390Y-103847023D01*
X102383390Y-103847023D02*
X102764342Y-103847023D01*
X102764342Y-103847023D02*
X102859580Y-103799404D01*
X102859580Y-103799404D02*
X102907200Y-103751785D01*
X102907200Y-103751785D02*
X102954819Y-103656547D01*
X102954819Y-103656547D02*
X102954819Y-103466071D01*
X102954819Y-103466071D02*
X102907200Y-103370833D01*
X102907200Y-103370833D02*
X102859580Y-103323214D01*
X102859580Y-103323214D02*
X102764342Y-103275595D01*
X102764342Y-103275595D02*
X102526247Y-103275595D01*
X102526247Y-103275595D02*
X102431009Y-103323214D01*
X102431009Y-103323214D02*
X102383390Y-103370833D01*
X102383390Y-103370833D02*
X102335771Y-103466071D01*
X102335771Y-103466071D02*
X102335771Y-103656547D01*
X102335771Y-103656547D02*
X102383390Y-103751785D01*
X102383390Y-103751785D02*
X102431009Y-103799404D01*
X102431009Y-103799404D02*
X102526247Y-103847023D01*
X200934819Y-106166666D02*
X200458628Y-106499999D01*
X200934819Y-106738094D02*
X199934819Y-106738094D01*
X199934819Y-106738094D02*
X199934819Y-106357142D01*
X199934819Y-106357142D02*
X199982438Y-106261904D01*
X199982438Y-106261904D02*
X200030057Y-106214285D01*
X200030057Y-106214285D02*
X200125295Y-106166666D01*
X200125295Y-106166666D02*
X200268152Y-106166666D01*
X200268152Y-106166666D02*
X200363390Y-106214285D01*
X200363390Y-106214285D02*
X200411009Y-106261904D01*
X200411009Y-106261904D02*
X200458628Y-106357142D01*
X200458628Y-106357142D02*
X200458628Y-106738094D01*
X200934819Y-105214285D02*
X200934819Y-105785713D01*
X200934819Y-105499999D02*
X199934819Y-105499999D01*
X199934819Y-105499999D02*
X200077676Y-105595237D01*
X200077676Y-105595237D02*
X200172914Y-105690475D01*
X200172914Y-105690475D02*
X200220533Y-105785713D01*
X97859580Y-105180357D02*
X97907200Y-105227976D01*
X97907200Y-105227976D02*
X97954819Y-105370833D01*
X97954819Y-105370833D02*
X97954819Y-105466071D01*
X97954819Y-105466071D02*
X97907200Y-105608928D01*
X97907200Y-105608928D02*
X97811961Y-105704166D01*
X97811961Y-105704166D02*
X97716723Y-105751785D01*
X97716723Y-105751785D02*
X97526247Y-105799404D01*
X97526247Y-105799404D02*
X97383390Y-105799404D01*
X97383390Y-105799404D02*
X97192914Y-105751785D01*
X97192914Y-105751785D02*
X97097676Y-105704166D01*
X97097676Y-105704166D02*
X97002438Y-105608928D01*
X97002438Y-105608928D02*
X96954819Y-105466071D01*
X96954819Y-105466071D02*
X96954819Y-105370833D01*
X96954819Y-105370833D02*
X97002438Y-105227976D01*
X97002438Y-105227976D02*
X97050057Y-105180357D01*
X97954819Y-104227976D02*
X97954819Y-104799404D01*
X97954819Y-104513690D02*
X96954819Y-104513690D01*
X96954819Y-104513690D02*
X97097676Y-104608928D01*
X97097676Y-104608928D02*
X97192914Y-104704166D01*
X97192914Y-104704166D02*
X97240533Y-104799404D01*
X97288152Y-103370833D02*
X97954819Y-103370833D01*
X96907200Y-103608928D02*
X97621485Y-103847023D01*
X97621485Y-103847023D02*
X97621485Y-103227976D01*
%TO.C,J1*%
D12*
X203000000Y-111975000D02*
X215000000Y-111975000D01*
X215000000Y-143025000D01*
X203000000Y-143025000D01*
X203000000Y-111975000D01*
%TO.C,J2*%
X98000000Y-111975000D02*
X110000000Y-111975000D01*
X110000000Y-143025000D01*
X98000000Y-143025000D01*
X98000000Y-111975000D01*
D13*
%TO.C,C18*%
X106765000Y-108298752D02*
X106765000Y-107776248D01*
X108235000Y-108298752D02*
X108235000Y-107776248D01*
%TO.C,C17*%
X104265000Y-108298752D02*
X104265000Y-107776248D01*
X105735000Y-108298752D02*
X105735000Y-107776248D01*
D14*
%TO.C,C1*%
X157271800Y-104972700D02*
X157271800Y-119450900D01*
X157271800Y-119450900D02*
X162250000Y-124429100D01*
X162250000Y-124429100D02*
X165663960Y-124429100D01*
X165663960Y-104972700D02*
X157271800Y-104972700D01*
X168336040Y-124429100D02*
X171750000Y-124429100D01*
X171750000Y-124429100D02*
X176728200Y-119450900D01*
X176728200Y-104972700D02*
X168336040Y-104972700D01*
X176728200Y-119450900D02*
X176728200Y-104972700D01*
%TO.C,C5*%
X178271800Y-136000000D02*
X178271800Y-150478200D01*
X178271800Y-150478200D02*
X186663960Y-150478200D01*
X183250000Y-131021800D02*
X178271800Y-136000000D01*
X186663960Y-131021800D02*
X183250000Y-131021800D01*
X189336040Y-150478200D02*
X197728200Y-150478200D01*
X192750000Y-131021800D02*
X189336040Y-131021800D01*
X197728200Y-136000000D02*
X192750000Y-131021800D01*
X197728200Y-150478200D02*
X197728200Y-136000000D01*
%TO.C,L1*%
X139015000Y-110921400D02*
X139015000Y-114690760D01*
X139015000Y-120309240D02*
X139015000Y-124078600D01*
X139015000Y-124078600D02*
X152985000Y-124078600D01*
X152985000Y-110921400D02*
X139015000Y-110921400D01*
X152985000Y-114690760D02*
X152985000Y-110921400D01*
X152985000Y-124078600D02*
X152985000Y-120309240D01*
X137948200Y-117500000D02*
G75*
G02*
X137795800Y-117500000I-76200J0D01*
G01*
X137795800Y-117500000D02*
G75*
G02*
X137948200Y-117500000I76200J0D01*
G01*
%TO.C,C2*%
X178271800Y-104972700D02*
X178271800Y-119450900D01*
X178271800Y-119450900D02*
X183250000Y-124429100D01*
X183250000Y-124429100D02*
X186663960Y-124429100D01*
X186663960Y-104972700D02*
X178271800Y-104972700D01*
X189336040Y-124429100D02*
X192750000Y-124429100D01*
X192750000Y-124429100D02*
X197728200Y-119450900D01*
X197728200Y-104972700D02*
X189336040Y-104972700D01*
X197728200Y-119450900D02*
X197728200Y-104972700D01*
%TO.C,C3*%
X136271800Y-135950900D02*
X136271800Y-150429100D01*
X136271800Y-150429100D02*
X144663960Y-150429100D01*
X141250000Y-130972700D02*
X136271800Y-135950900D01*
X144663960Y-130972700D02*
X141250000Y-130972700D01*
X147336040Y-150429100D02*
X155728200Y-150429100D01*
X150750000Y-130972700D02*
X147336040Y-130972700D01*
X155728200Y-135950900D02*
X150750000Y-130972700D01*
X155728200Y-150429100D02*
X155728200Y-135950900D01*
D13*
%TO.C,C11*%
X209765000Y-109211252D02*
X209765000Y-108688748D01*
X211235000Y-109211252D02*
X211235000Y-108688748D01*
D14*
%TO.C,C7*%
X115271800Y-136000000D02*
X115271800Y-150478200D01*
X115271800Y-150478200D02*
X123663960Y-150478200D01*
X120250000Y-131021800D02*
X115271800Y-136000000D01*
X123663960Y-131021800D02*
X120250000Y-131021800D01*
X126336040Y-150478200D02*
X134728200Y-150478200D01*
X129750000Y-131021800D02*
X126336040Y-131021800D01*
X134728200Y-136000000D02*
X129750000Y-131021800D01*
X134728200Y-150478200D02*
X134728200Y-136000000D01*
%TO.C,C4*%
X157271800Y-136000000D02*
X157271800Y-150478200D01*
X157271800Y-150478200D02*
X165663960Y-150478200D01*
X162250000Y-131021800D02*
X157271800Y-136000000D01*
X165663960Y-131021800D02*
X162250000Y-131021800D01*
X168336040Y-150478200D02*
X176728200Y-150478200D01*
X171750000Y-131021800D02*
X168336040Y-131021800D01*
X176728200Y-136000000D02*
X171750000Y-131021800D01*
X176728200Y-150478200D02*
X176728200Y-136000000D01*
D13*
%TO.C,C10*%
X207265000Y-109211252D02*
X207265000Y-108688748D01*
X208735000Y-109211252D02*
X208735000Y-108688748D01*
%TO.C,C13*%
X214765000Y-109211252D02*
X214765000Y-108688748D01*
X216235000Y-109211252D02*
X216235000Y-108688748D01*
D14*
%TO.C,C6*%
X115271800Y-104570900D02*
X115271800Y-119049100D01*
X115271800Y-119049100D02*
X120250000Y-124027300D01*
X120250000Y-124027300D02*
X123663960Y-124027300D01*
X123663960Y-104570900D02*
X115271800Y-104570900D01*
X126336040Y-124027300D02*
X129750000Y-124027300D01*
X129750000Y-124027300D02*
X134728200Y-119049100D01*
X134728200Y-104570900D02*
X126336040Y-104570900D01*
X134728200Y-119049100D02*
X134728200Y-104570900D01*
D13*
%TO.C,C15*%
X99265000Y-108298752D02*
X99265000Y-107776248D01*
X100735000Y-108298752D02*
X100735000Y-107776248D01*
%TO.C,C12*%
X212265000Y-109211252D02*
X212265000Y-108688748D01*
X213735000Y-109211252D02*
X213735000Y-108688748D01*
%TO.C,C19*%
X109265000Y-108298752D02*
X109265000Y-107776248D01*
X110735000Y-108298752D02*
X110735000Y-107776248D01*
%TO.C,C8*%
X202245000Y-109211252D02*
X202245000Y-108688748D01*
X203715000Y-109211252D02*
X203715000Y-108688748D01*
%TO.C,C9*%
X204765000Y-109211252D02*
X204765000Y-108688748D01*
X206235000Y-109211252D02*
X206235000Y-108688748D01*
%TO.C,R2*%
X111765000Y-108227064D02*
X111765000Y-107772936D01*
X113235000Y-108227064D02*
X113235000Y-107772936D01*
%TO.C,C16*%
X101765000Y-108298752D02*
X101765000Y-107776248D01*
X103235000Y-108298752D02*
X103235000Y-107776248D01*
%TO.C,R1*%
X199745000Y-109227064D02*
X199745000Y-108772936D01*
X201215000Y-109227064D02*
X201215000Y-108772936D01*
%TO.C,C14*%
X96765000Y-108298752D02*
X96765000Y-107776248D01*
X98235000Y-108298752D02*
X98235000Y-107776248D01*
%TD*%
M02*
