  0
SECTION
  2
HEADER
  9
$ANGBASE
  50
0.0
  9
$ANGDIR
  70
1
  9
$MEASUREMENT
  70
0
  0
ENDSEC
  0
SECTION
  2
TABLES
  0
TABLE
  2
LTYPE
  70
4
  0
LTYPE
  5
40F
  2
CONTINUOUS
  70
0
  3
Solid line
  72
65
  73
0
  40
0.0
  0
LTYPE
  5
410
  2
DASHDOT
 70
0
  3
Dash Dot ____ _ ____ _
 72
65
 73
4
 40
2.0
 49
1.25
 49
-0.25
 49
0.25
 49
-0.25
  0
LTYPE
  5
411
  2
DASHED
 70
0
  3
Dashed __ __ __ __ __
 72
65
 73
2
 40
0.75
 49
0.5
 49
-0.25
  0
LTYPE
  5
43B
  2
DOTTED
 70
0
  3
Dotted .  .  .  .
 72
65
 73
2
 40
0.2
 49
0.0
 49
-0.2
  0
ENDTAB
  0
TABLE
  2
STYLE
  70
4
  0
STYLE
  2
KICAD
  70
0
  40
0
  41
1
  42
1
  50
0
  71
0
  3
isocp.shx
  0
STYLE
  2
KICADB
  70
0
  40
0
  41
1
  42
1
  50
0
  71
0
  3
isocp.shx
  0
STYLE
  2
KICADI
  70
0
  40
0
  41
1
  42
1
  50
15
  71
0
  3
isocp.shx
  0
STYLE
  2
KICADBI
  70
0
  40
0
  41
1
  42
1
  50
15
  71
0
  3
isocp.shx
  0
ENDTAB
  0
TABLE
  2
LAYER
  70
1
  0
LAYER
  2
BLACK
  70
0
  62
7
  6
CONTINUOUS
  0
ENDTAB
  0
ENDSEC
  0
SECTION
  2
ENTITIES
0
LINE
8
BLACK
6
CONTINUOUS
10
4.3506151574803145
20
-5.1582553149606296
11
4.3518590551181102
21
-5.1594035826771654
0
LINE
8
BLACK
6
CONTINUOUS
10
4.3518590551181102
20
-5.1594035826771654
11
4.6623714173228343
21
-5.5669510629921257
0
LINE
8
BLACK
6
CONTINUOUS
10
4.6623714173228343
20
-5.5669510629921257
11
4.6633545275590551
21
-5.5695201574803148
0
LINE
8
BLACK
6
CONTINUOUS
10
4.6633545275590551
20
-5.5695201574803148
11
4.6633700787401571
21
-5.5699096850393701
0
LINE
8
BLACK
6
CONTINUOUS
10
4.6633700787401571
20
-5.5699096850393701
11
4.6633700787401571
21
-5.9173385826771652
0
LINE
8
BLACK
6
CONTINUOUS
10
4.6633700787401571
20
-5.9173385826771652
11
4.8797598425196851
21
-5.9173385826771652
0
LINE
8
BLACK
6
CONTINUOUS
10
4.8797598425196851
20
-5.9173385826771652
11
4.8797598425196851
21
-5.6817204724409445
0
LINE
8
BLACK
6
CONTINUOUS
10
4.8797598425196851
20
-5.6817204724409445
11
4.8805348425196851
21
-5.6790811417322837
0
LINE
8
BLACK
6
CONTINUOUS
10
4.8805348425196851
20
-5.6790811417322837
11
4.8826137401574803
21
-5.6772797637795271
0
LINE
8
BLACK
6
CONTINUOUS
10
4.8826137401574803
20
-5.6772797637795271
11
4.8846417322834643
21
-5.6768385826771652
0
LINE
8
BLACK
6
CONTINUOUS
10
4.8846417322834643
20
-5.6768385826771652
11
4.9578779527559051
21
-5.6768385826771652
0
LINE
8
BLACK
6
CONTINUOUS
10
4.9578779527559051
20
-5.6768385826771652
11
4.9605172834645668
21
-5.6776135826771652
0
LINE
8
BLACK
6
CONTINUOUS
10
4.9605172834645668
20
-5.6776135826771652
11
4.9623186614173225
21
-5.6796924803149604
0
LINE
8
BLACK
6
CONTINUOUS
10
4.9623186614173225
20
-5.6796924803149604
11
4.9627598425196853
21
-5.6817204724409445
0
LINE
8
BLACK
6
CONTINUOUS
10
4.9627598425196853
20
-5.6817204724409445
11
4.9627598425196853
21
-5.9173385826771652
0
LINE
8
BLACK
6
CONTINUOUS
10
4.9627598425196853
20
-5.9173385826771652
11
5.1889921259842522
21
-5.9173385826771652
0
LINE
8
BLACK
6
CONTINUOUS
10
5.1889921259842522
20
-5.9173385826771652
11
5.1889921259842522
21
-5.5757480314960626
0
LINE
8
BLACK
6
CONTINUOUS
10
5.1889921259842522
20
-5.5757480314960626
11
5.1897671259842522
21
-5.5731087007874018
0
LINE
8
BLACK
6
CONTINUOUS
10
5.1897671259842522
20
-5.5731087007874018
11
5.1918460236220474
21
-5.5713073228346452
0
LINE
8
BLACK
6
CONTINUOUS
10
5.1918460236220474
20
-5.5713073228346452
11
5.1938740157480314
21
-5.5708661417322833
0
LINE
8
BLACK
6
CONTINUOUS
10
5.1938740157480314
20
-5.5708661417322833
11
5.4852598425196852
21
-5.5708661417322833
0
LINE
8
BLACK
6
CONTINUOUS
10
5.4852598425196852
20
-5.5708661417322833
11
5.487899173228346
21
-5.5716411417322833
0
LINE
8
BLACK
6
CONTINUOUS
10
5.487899173228346
20
-5.5716411417322833
11
5.4897005511811026
21
-5.5737200393700785
0
LINE
8
BLACK
6
CONTINUOUS
10
5.4897005511811026
20
-5.5737200393700785
11
5.4901417322834645
21
-5.5757480314960626
0
LINE
8
BLACK
6
CONTINUOUS
10
5.4901417322834645
20
-5.5757480314960626
11
5.4901417322834645
21
-5.9154055118110236
0
LINE
8
BLACK
6
CONTINUOUS
10
5.4901417322834645
20
-5.9154055118110236
11
5.7065314960629916
21
-5.9154055118110236
0
LINE
8
BLACK
6
CONTINUOUS
10
5.7065314960629916
20
-5.9154055118110236
11
5.7065314960629916
21
-5.6797874015748029
0
LINE
8
BLACK
6
CONTINUOUS
10
5.7065314960629916
20
-5.6797874015748029
11
5.7073064960629916
21
-5.6771480708661413
0
LINE
8
BLACK
6
CONTINUOUS
10
5.7073064960629916
20
-5.6771480708661413
11
5.7093853937007877
21
-5.6753466929133856
0
LINE
8
BLACK
6
CONTINUOUS
10
5.7093853937007877
20
-5.6753466929133856
11
5.7114133858267717
21
-5.6749055118110237
0
LINE
8
BLACK
6
CONTINUOUS
10
5.7114133858267717
20
-5.6749055118110237
11
5.7846496062992125
21
-5.6749055118110237
0
LINE
8
BLACK
6
CONTINUOUS
10
5.7846496062992125
20
-5.6749055118110237
11
5.7872889370078742
21
-5.6756805118110236
0
LINE
8
BLACK
6
CONTINUOUS
10
5.7872889370078742
20
-5.6756805118110236
11
5.7890903149606299
21
-5.6777594094488189
0
LINE
8
BLACK
6
CONTINUOUS
10
5.7890903149606299
20
-5.6777594094488189
11
5.7895314960629918
21
-5.6797874015748029
0
LINE
8
BLACK
6
CONTINUOUS
10
5.7895314960629918
20
-5.6797874015748029
11
5.7895314960629918
21
-5.9154055118110236
0
LINE
8
BLACK
6
CONTINUOUS
10
5.7895314960629918
20
-5.9154055118110236
11
6.0157637795275587
21
-5.9154055118110236
0
LINE
8
BLACK
6
CONTINUOUS
10
6.0157637795275587
20
-5.9154055118110236
11
6.0157637795275587
21
-5.5757480314960626
0
LINE
8
BLACK
6
CONTINUOUS
10
6.0157637795275587
20
-5.5757480314960626
11
6.0165387795275587
21
-5.5731087007874018
0
LINE
8
BLACK
6
CONTINUOUS
10
6.0165387795275587
20
-5.5731087007874018
11
6.0186176771653539
21
-5.5713073228346452
0
LINE
8
BLACK
6
CONTINUOUS
10
6.0186176771653539
20
-5.5713073228346452
11
6.0206456692913388
21
-5.5708661417322833
0
LINE
8
BLACK
6
CONTINUOUS
10
6.0206456692913388
20
-5.5708661417322833
11
6.3120314960629917
21
-5.5708661417322833
0
LINE
8
BLACK
6
CONTINUOUS
10
6.3120314960629917
20
-5.5708661417322833
11
6.3146708267716534
21
-5.5716411417322833
0
LINE
8
BLACK
6
CONTINUOUS
10
6.3146708267716534
20
-5.5716411417322833
11
6.3164722047244091
21
-5.5737200393700785
0
LINE
8
BLACK
6
CONTINUOUS
10
6.3164722047244091
20
-5.5737200393700785
11
6.3169133858267719
21
-5.5757480314960626
0
LINE
8
BLACK
6
CONTINUOUS
10
6.3169133858267719
20
-5.5757480314960626
11
6.3169133858267719
21
-5.9173385826771652
0
LINE
8
BLACK
6
CONTINUOUS
10
6.3169133858267719
20
-5.9173385826771652
11
6.533303149606299
21
-5.9173385826771652
0
LINE
8
BLACK
6
CONTINUOUS
10
6.533303149606299
20
-5.9173385826771652
11
6.533303149606299
21
-5.6817204724409445
0
LINE
8
BLACK
6
CONTINUOUS
10
6.533303149606299
20
-5.6817204724409445
11
6.534078149606299
21
-5.6790811417322837
0
LINE
8
BLACK
6
CONTINUOUS
10
6.534078149606299
20
-5.6790811417322837
11
6.5361570472440942
21
-5.6772797637795271
0
LINE
8
BLACK
6
CONTINUOUS
10
6.5361570472440942
20
-5.6772797637795271
11
6.5381850393700782
21
-5.6768385826771652
0
LINE
8
BLACK
6
CONTINUOUS
10
6.5381850393700782
20
-5.6768385826771652
11
6.6114212598425199
21
-5.6768385826771652
0
LINE
8
BLACK
6
CONTINUOUS
10
6.6114212598425199
20
-5.6768385826771652
11
6.6140605905511807
21
-5.6776135826771652
0
LINE
8
BLACK
6
CONTINUOUS
10
6.6140605905511807
20
-5.6776135826771652
11
6.6158619685039373
21
-5.6796924803149604
0
LINE
8
BLACK
6
CONTINUOUS
10
6.6158619685039373
20
-5.6796924803149604
11
6.6163031496062992
21
-5.6817204724409445
0
LINE
8
BLACK
6
CONTINUOUS
10
6.6163031496062992
20
-5.6817204724409445
11
6.6163031496062992
21
-5.9173385826771652
0
LINE
8
BLACK
6
CONTINUOUS
10
6.6163031496062992
20
-5.9173385826771652
11
6.8425354330708661
21
-5.9173385826771652
0
LINE
8
BLACK
6
CONTINUOUS
10
6.8425354330708661
20
-5.9173385826771652
11
6.8425354330708661
21
-5.5757480314960626
0
LINE
8
BLACK
6
CONTINUOUS
10
6.8425354330708661
20
-5.5757480314960626
11
6.8433104330708661
21
-5.5731087007874018
0
LINE
8
BLACK
6
CONTINUOUS
10
6.8433104330708661
20
-5.5731087007874018
11
6.8453893307086613
21
-5.5713073228346452
0
LINE
8
BLACK
6
CONTINUOUS
10
6.8453893307086613
20
-5.5713073228346452
11
6.8474173228346453
21
-5.5708661417322833
0
LINE
8
BLACK
6
CONTINUOUS
10
6.8474173228346453
20
-5.5708661417322833
11
7.1388031496062991
21
-5.5708661417322833
0
LINE
8
BLACK
6
CONTINUOUS
10
7.1388031496062991
20
-5.5708661417322833
11
7.1414424803149608
21
-5.5716411417322833
0
LINE
8
BLACK
6
CONTINUOUS
10
7.1414424803149608
20
-5.5716411417322833
11
7.1432438582677165
21
-5.5737200393700785
0
LINE
8
BLACK
6
CONTINUOUS
10
7.1432438582677165
20
-5.5737200393700785
11
7.1436850393700784
21
-5.5757480314960626
0
LINE
8
BLACK
6
CONTINUOUS
10
7.1436850393700784
20
-5.5757480314960626
11
7.1436850393700784
21
-5.9173385826771652
0
LINE
8
BLACK
6
CONTINUOUS
10
7.1436850393700784
20
-5.9173385826771652
11
7.3600748031496064
21
-5.9173385826771652
0
LINE
8
BLACK
6
CONTINUOUS
10
7.3600748031496064
20
-5.9173385826771652
11
7.3600748031496064
21
-5.6817204724409445
0
LINE
8
BLACK
6
CONTINUOUS
10
7.3600748031496064
20
-5.6817204724409445
11
7.3608498031496064
21
-5.6790811417322837
0
LINE
8
BLACK
6
CONTINUOUS
10
7.3608498031496064
20
-5.6790811417322837
11
7.3629287007874016
21
-5.6772797637795271
0
LINE
8
BLACK
6
CONTINUOUS
10
7.3629287007874016
20
-5.6772797637795271
11
7.3649566929133856
21
-5.6768385826771652
0
LINE
8
BLACK
6
CONTINUOUS
10
7.3649566929133856
20
-5.6768385826771652
11
7.4381929133858264
21
-5.6768385826771652
0
LINE
8
BLACK
6
CONTINUOUS
10
7.4381929133858264
20
-5.6768385826771652
11
7.4408322440944881
21
-5.6776135826771652
0
LINE
8
BLACK
6
CONTINUOUS
10
7.4408322440944881
20
-5.6776135826771652
11
7.4426336220472438
21
-5.6796924803149604
0
LINE
8
BLACK
6
CONTINUOUS
10
7.4426336220472438
20
-5.6796924803149604
11
7.4430748031496066
21
-5.6817204724409445
0
LINE
8
BLACK
6
CONTINUOUS
10
7.4430748031496066
20
-5.6817204724409445
11
7.4430748031496066
21
-5.9173385826771652
0
LINE
8
BLACK
6
CONTINUOUS
10
7.4430748031496066
20
-5.9173385826771652
11
7.6693070866141735
21
-5.9173385826771652
0
LINE
8
BLACK
6
CONTINUOUS
10
7.6693070866141735
20
-5.9173385826771652
11
7.6693070866141735
21
-5.2017322834645672
0
LINE
8
BLACK
6
CONTINUOUS
10
7.6693070866141735
20
-5.2017322834645672
11
7.6700820866141735
21
-5.1990929527559056
0
LINE
8
BLACK
6
CONTINUOUS
10
7.6700820866141735
20
-5.1990929527559056
11
7.6721609842519687
21
-5.1972915748031498
0
LINE
8
BLACK
6
CONTINUOUS
10
7.6721609842519687
20
-5.1972915748031498
11
7.6741889763779527
21
-5.1968503937007871
0
LINE
8
BLACK
6
CONTINUOUS
10
7.6741889763779527
20
-5.1968503937007871
11
7.8838582677165352
21
-5.1968503937007871
0
LINE
8
BLACK
6
CONTINUOUS
10
7.8838582677165352
20
-5.1968503937007871
11
8.0407555905511803
21
-5.1576260629921258
0
LINE
8
BLACK
6
CONTINUOUS
10
8.0407555905511803
20
-5.1576260629921258
11
8.0419396062992128
21
-5.1574803149606296
0
LINE
8
BLACK
6
CONTINUOUS
10
8.0419396062992128
20
-5.1574803149606296
11
8.5580905511811025
21
-5.1574803149606296
0
LINE
8
BLACK
6
CONTINUOUS
10
8.5580905511811025
20
-5.1574803149606296
11
8.5607298818897632
21
-5.1582553149606296
0
LINE
8
BLACK
6
CONTINUOUS
10
8.5607298818897632
20
-5.1582553149606296
11
8.5625312598425189
21
-5.1603342125984248
0
LINE
8
BLACK
6
CONTINUOUS
10
8.5625312598425189
20
-5.1603342125984248
11
8.5629724409448809
21
-5.1623622047244098
0
LINE
8
BLACK
6
CONTINUOUS
10
8.5629724409448809
20
-5.1623622047244098
11
8.5629724409448809
21
-6.0777755905511812
0
LINE
8
BLACK
6
CONTINUOUS
10
8.5629724409448809
20
-6.0777755905511812
11
8.5621974409448818
21
-6.080414921259842
0
LINE
8
BLACK
6
CONTINUOUS
10
8.5621974409448818
20
-6.080414921259842
11
8.5601185433070857
21
-6.0822162992125985
0
LINE
8
BLACK
6
CONTINUOUS
10
8.5601185433070857
20
-6.0822162992125985
11
8.5580905511811025
21
-6.0826574803149605
0
LINE
8
BLACK
6
CONTINUOUS
10
8.5580905511811025
20
-6.0826574803149605
11
3.7647440944881887
21
-6.0826574803149605
0
LINE
8
BLACK
6
CONTINUOUS
10
3.7647440944881887
20
-6.0826574803149605
11
3.7621047637795275
21
-6.0818824803149605
0
LINE
8
BLACK
6
CONTINUOUS
10
3.7621047637795275
20
-6.0818824803149605
11
3.7603033858267714
21
-6.0798035826771653
0
LINE
8
BLACK
6
CONTINUOUS
10
3.7603033858267714
20
-6.0798035826771653
11
3.7598622047244095
21
-6.0777755905511812
0
LINE
8
BLACK
6
CONTINUOUS
10
3.7598622047244095
20
-6.0777755905511812
11
3.7598622047244095
21
-5.1623622047244098
0
LINE
8
BLACK
6
CONTINUOUS
10
3.7598622047244095
20
-5.1623622047244098
11
3.7606372047244094
21
-5.1597228740157481
0
LINE
8
BLACK
6
CONTINUOUS
10
3.7606372047244094
20
-5.1597228740157481
11
3.7627161023622047
21
-5.1579214960629924
0
LINE
8
BLACK
6
CONTINUOUS
10
3.7627161023622047
20
-5.1579214960629924
11
3.7647440944881887
21
-5.1574803149606296
0
LINE
8
BLACK
6
CONTINUOUS
10
3.7647440944881887
20
-5.1574803149606296
11
4.3479758267716537
21
-5.1574803149606296
0
LINE
8
BLACK
6
CONTINUOUS
10
4.3479758267716537
20
-5.1574803149606296
11
4.3506151574803145
21
-5.1582553149606296
0
LINE
8
BLACK
6
CONTINUOUS
10
4.4506169685039367
20
-4.2684657480314963
11
4.4538101181102361
21
-4.2705993307086612
0
LINE
8
BLACK
6
CONTINUOUS
10
4.4538101181102361
20
-4.2705993307086612
11
4.4545145275590547
21
-4.2716535433070861
0
LINE
8
BLACK
6
CONTINUOUS
10
4.4545145275590547
20
-4.2716535433070861
11
4.4681840157480313
21
-4.2716535433070861
0
LINE
8
BLACK
6
CONTINUOUS
10
4.4681840157480313
20
-4.2716535433070861
11
4.4688212204724405
21
-4.2716953149606303
0
LINE
8
BLACK
6
CONTINUOUS
10
4.4688212204724405
20
-4.2716953149606303
11
4.472961535433071
21
-4.2722403937007876
0
LINE
8
BLACK
6
CONTINUOUS
10
4.472961535433071
20
-4.2722403937007876
11
4.4741925590551181
21
-4.2725702362204725
0
LINE
8
BLACK
6
CONTINUOUS
10
4.4741925590551181
20
-4.2725702362204725
11
4.4777526771653546
21
-4.2740448818897638
0
LINE
8
BLACK
6
CONTINUOUS
10
4.4777526771653546
20
-4.2740448818897638
11
4.4788563779527557
21
-4.274682086614173
0
LINE
8
BLACK
6
CONTINUOUS
10
4.4788563779527557
20
-4.274682086614173
11
4.4819134645669294
21
-4.2770279133858269
0
LINE
8
BLACK
6
CONTINUOUS
10
4.4819134645669294
20
-4.2770279133858269
11
4.4828146062992129
21
-4.2779290551181104
0
LINE
8
BLACK
6
CONTINUOUS
10
4.4828146062992129
20
-4.2779290551181104
11
4.4851603937007871
21
-4.2809861417322832
0
LINE
8
BLACK
6
CONTINUOUS
10
4.4851603937007871
20
-4.2809861417322832
11
4.4857975984251963
21
-4.2820898031496064
0
LINE
8
BLACK
6
CONTINUOUS
10
4.4857975984251963
20
-4.2820898031496064
11
4.4872722440944877
21
-4.285649921259842
0
LINE
8
BLACK
6
CONTINUOUS
10
4.4872722440944877
20
-4.285649921259842
11
4.4876020866141735
21
-4.2868809055118113
0
LINE
8
BLACK
6
CONTINUOUS
10
4.4876020866141735
20
-4.2868809055118113
11
4.4881039370078737
21
-4.2906926377952752
0
LINE
8
BLACK
6
CONTINUOUS
10
4.4881039370078737
20
-4.2906926377952752
11
4.4881889763779528
21
-4.2913385826771648
0
LINE
8
BLACK
6
CONTINUOUS
10
4.4881889763779528
20
-4.2913385826771648
11
4.4881889763779528
21
-4.3110236220472444
0
LINE
8
BLACK
6
CONTINUOUS
10
4.4881889763779528
20
-4.3110236220472444
11
4.648645669291338
21
-4.3110236220472444
0
LINE
8
BLACK
6
CONTINUOUS
10
4.648645669291338
20
-4.3110236220472444
11
4.6512849999999997
21
-4.3117986220472444
0
LINE
8
BLACK
6
CONTINUOUS
10
4.6512849999999997
20
-4.3117986220472444
11
4.6530863779527554
21
-4.3138775196850396
0
LINE
8
BLACK
6
CONTINUOUS
10
4.6530863779527554
20
-4.3138775196850396
11
4.6535275590551182
21
-4.3159055118110237
0
LINE
8
BLACK
6
CONTINUOUS
10
4.6535275590551182
20
-4.3159055118110237
11
4.6535275590551182
21
-4.8759645669291336
0
LINE
8
BLACK
6
CONTINUOUS
10
4.6535275590551182
20
-4.8759645669291336
11
4.8797598425196851
21
-4.8759645669291336
0
LINE
8
BLACK
6
CONTINUOUS
10
4.8797598425196851
20
-4.8759645669291336
11
4.8797598425196851
21
-4.6403464566929129
0
LINE
8
BLACK
6
CONTINUOUS
10
4.8797598425196851
20
-4.6403464566929129
11
4.8805348425196851
21
-4.6377071259842522
0
LINE
8
BLACK
6
CONTINUOUS
10
4.8805348425196851
20
-4.6377071259842522
11
4.8826137401574803
21
-4.6359057480314956
0
LINE
8
BLACK
6
CONTINUOUS
10
4.8826137401574803
20
-4.6359057480314956
11
4.8846417322834643
21
-4.6354645669291337
0
LINE
8
BLACK
6
CONTINUOUS
10
4.8846417322834643
20
-4.6354645669291337
11
4.9578779527559051
21
-4.6354645669291337
0
LINE
8
BLACK
6
CONTINUOUS
10
4.9578779527559051
20
-4.6354645669291337
11
4.9605172834645668
21
-4.6362395669291336
0
LINE
8
BLACK
6
CONTINUOUS
10
4.9605172834645668
20
-4.6362395669291336
11
4.9623186614173225
21
-4.6383184645669289
0
LINE
8
BLACK
6
CONTINUOUS
10
4.9623186614173225
20
-4.6383184645669289
11
4.9627598425196853
21
-4.6403464566929129
0
LINE
8
BLACK
6
CONTINUOUS
10
4.9627598425196853
20
-4.6403464566929129
11
4.9627598425196853
21
-4.8759645669291336
0
LINE
8
BLACK
6
CONTINUOUS
10
4.9627598425196853
20
-4.8759645669291336
11
5.1791496062992124
21
-4.8759645669291336
0
LINE
8
BLACK
6
CONTINUOUS
10
5.1791496062992124
20
-4.8759645669291336
11
5.1791496062992124
21
-4.3159055118110237
0
LINE
8
BLACK
6
CONTINUOUS
10
5.1791496062992124
20
-4.3159055118110237
11
5.1799246062992124
21
-4.313266181102362
0
LINE
8
BLACK
6
CONTINUOUS
10
5.1799246062992124
20
-4.313266181102362
11
5.1820035039370076
21
-4.3114648031496063
0
LINE
8
BLACK
6
CONTINUOUS
10
5.1820035039370076
20
-4.3114648031496063
11
5.1840314960629916
21
-4.3110236220472444
0
LINE
8
BLACK
6
CONTINUOUS
10
5.1840314960629916
20
-4.3110236220472444
11
5.4800314960629919
21
-4.3110236220472444
0
LINE
8
BLACK
6
CONTINUOUS
10
5.4800314960629919
20
-4.3110236220472444
11
5.5902312598425192
21
-4.3110236220472444
0
LINE
8
BLACK
6
CONTINUOUS
10
5.5902312598425192
20
-4.3110236220472444
11
5.5908684645669293
21
-4.3110653937007877
0
LINE
8
BLACK
6
CONTINUOUS
10
5.5908684645669293
20
-4.3110653937007877
11
5.5950087795275589
21
-4.311610472440945
0
LINE
8
BLACK
6
CONTINUOUS
10
5.5950087795275589
20
-4.311610472440945
11
5.5962398031496061
21
-4.3119403149606299
0
LINE
8
BLACK
6
CONTINUOUS
10
5.5962398031496061
20
-4.3119403149606299
11
5.5997999212598426
21
-4.3134149606299212
0
LINE
8
BLACK
6
CONTINUOUS
10
5.5997999212598426
20
-4.3134149606299212
11
5.6009036220472437
21
-4.3140521653543304
0
LINE
8
BLACK
6
CONTINUOUS
10
5.6009036220472437
20
-4.3140521653543304
11
5.6039607086614174
21
-4.3163979921259843
0
LINE
8
BLACK
6
CONTINUOUS
10
5.6039607086614174
20
-4.3163979921259843
11
5.6048618503937009
21
-4.3172991338582678
0
LINE
8
BLACK
6
CONTINUOUS
10
5.6048618503937009
20
-4.3172991338582678
11
5.6072076377952751
21
-4.3203562204724406
0
LINE
8
BLACK
6
CONTINUOUS
10
5.6072076377952751
20
-4.3203562204724406
11
5.6078448425196852
21
-4.3214598818897638
0
LINE
8
BLACK
6
CONTINUOUS
10
5.6078448425196852
20
-4.3214598818897638
11
5.6093194881889765
21
-4.3250200000000003
0
LINE
8
BLACK
6
CONTINUOUS
10
5.6093194881889765
20
-4.3250200000000003
11
5.6096493307086615
21
-4.3262509842519687
0
LINE
8
BLACK
6
CONTINUOUS
10
5.6096493307086615
20
-4.3262509842519687
11
5.6101944488188975
21
-4.3303912992125984
0
LINE
8
BLACK
6
CONTINUOUS
10
5.6101944488188975
20
-4.3303912992125984
11
5.6102362204724407
21
-4.3310285433070863
0
LINE
8
BLACK
6
CONTINUOUS
10
5.6102362204724407
20
-4.3310285433070863
11
5.6102362204724407
21
-4.3691023622047247
0
LINE
8
BLACK
6
CONTINUOUS
10
5.6102362204724407
20
-4.3691023622047247
11
5.6094612204724408
21
-4.3717416929133854
0
LINE
8
BLACK
6
CONTINUOUS
10
5.6094612204724408
20
-4.3717416929133854
11
5.6073823228346455
21
-4.373543070866142
0
LINE
8
BLACK
6
CONTINUOUS
10
5.6073823228346455
20
-4.373543070866142
11
5.6053543307086615
21
-4.3739842519685039
0
LINE
8
BLACK
6
CONTINUOUS
10
5.6053543307086615
20
-4.3739842519685039
11
5.4800314960629919
21
-4.3739842519685039
0
LINE
8
BLACK
6
CONTINUOUS
10
5.4800314960629919
20
-4.3739842519685039
11
5.4800314960629919
21
-4.5264842519685038
0
LINE
8
BLACK
6
CONTINUOUS
10
5.4800314960629919
20
-4.5264842519685038
11
5.5961496062992122
21
-4.5264842519685038
0
LINE
8
BLACK
6
CONTINUOUS
10
5.5961496062992122
20
-4.5264842519685038
11
5.5987889370078738
21
-4.5272592519685038
0
LINE
8
BLACK
6
CONTINUOUS
10
5.5987889370078738
20
-4.5272592519685038
11
5.6005903149606295
21
-4.529338149606299
0
LINE
8
BLACK
6
CONTINUOUS
10
5.6005903149606295
20
-4.529338149606299
11
5.6010314960629923
21
-4.531366141732283
0
LINE
8
BLACK
6
CONTINUOUS
10
5.6010314960629923
20
-4.531366141732283
11
5.6010314960629923
21
-4.7206023622047244
0
LINE
8
BLACK
6
CONTINUOUS
10
5.6010314960629923
20
-4.7206023622047244
11
5.6002564960629924
21
-4.723241692913386
0
LINE
8
BLACK
6
CONTINUOUS
10
5.6002564960629924
20
-4.723241692913386
11
5.5981775984251971
21
-4.7250430708661417
0
LINE
8
BLACK
6
CONTINUOUS
10
5.5981775984251971
20
-4.7250430708661417
11
5.5961496062992122
21
-4.7254842519685036
0
LINE
8
BLACK
6
CONTINUOUS
10
5.5961496062992122
20
-4.7254842519685036
11
5.4800314960629919
21
-4.7254842519685036
0
LINE
8
BLACK
6
CONTINUOUS
10
5.4800314960629919
20
-4.7254842519685036
11
5.4800314960629919
21
-4.8779842519685035
0
LINE
8
BLACK
6
CONTINUOUS
10
5.4800314960629919
20
-4.8779842519685035
11
5.6053543307086615
21
-4.8779842519685035
0
LINE
8
BLACK
6
CONTINUOUS
10
5.6053543307086615
20
-4.8779842519685035
11
5.6079936614173231
21
-4.8787592519685035
0
LINE
8
BLACK
6
CONTINUOUS
10
5.6079936614173231
20
-4.8787592519685035
11
5.6097950393700788
21
-4.8808381496062987
0
LINE
8
BLACK
6
CONTINUOUS
10
5.6097950393700788
20
-4.8808381496062987
11
5.6102362204724407
21
-4.8828661417322836
0
LINE
8
BLACK
6
CONTINUOUS
10
5.6102362204724407
20
-4.8828661417322836
11
5.6102362204724407
21
-5.1585236220472437
0
LINE
8
BLACK
6
CONTINUOUS
10
5.6102362204724407
20
-5.1585236220472437
11
5.6094612204724408
21
-5.1611629527559053
0
LINE
8
BLACK
6
CONTINUOUS
10
5.6094612204724408
20
-5.1611629527559053
11
5.6073823228346455
21
-5.162964330708661
0
LINE
8
BLACK
6
CONTINUOUS
10
5.6073823228346455
20
-5.162964330708661
11
5.6053543307086615
21
-5.1634055118110238
0
LINE
8
BLACK
6
CONTINUOUS
10
5.6053543307086615
20
-5.1634055118110238
11
5.4901417322834645
21
-5.1634055118110238
0
LINE
8
BLACK
6
CONTINUOUS
10
5.4901417322834645
20
-5.1634055118110238
11
5.4901417322834645
21
-5.5266141732283467
0
LINE
8
BLACK
6
CONTINUOUS
10
5.4901417322834645
20
-5.5266141732283467
11
5.4893667322834645
21
-5.5292535039370074
0
LINE
8
BLACK
6
CONTINUOUS
10
5.4893667322834645
20
-5.5292535039370074
11
5.4872878346456693
21
-5.531054881889764
0
LINE
8
BLACK
6
CONTINUOUS
10
5.4872878346456693
20
-5.531054881889764
11
5.4852598425196852
21
-5.5314960629921259
0
LINE
8
BLACK
6
CONTINUOUS
10
5.4852598425196852
20
-5.5314960629921259
11
5.1938740157480314
21
-5.5314960629921259
0
LINE
8
BLACK
6
CONTINUOUS
10
5.1938740157480314
20
-5.5314960629921259
11
5.1912346850393698
21
-5.530721062992126
0
LINE
8
BLACK
6
CONTINUOUS
10
5.1912346850393698
20
-5.530721062992126
11
5.1894333070866141
21
-5.5286421653543307
0
LINE
8
BLACK
6
CONTINUOUS
10
5.1894333070866141
20
-5.5286421653543307
11
5.1889921259842522
21
-5.5266141732283467
0
LINE
8
BLACK
6
CONTINUOUS
10
5.1889921259842522
20
-5.5266141732283467
11
5.1889921259842522
21
-5.1653385826771654
0
LINE
8
BLACK
6
CONTINUOUS
10
5.1889921259842522
20
-5.1653385826771654
11
4.9627598425196853
21
-5.1653385826771654
0
LINE
8
BLACK
6
CONTINUOUS
10
4.9627598425196853
20
-5.1653385826771654
11
4.9627598425196853
21
-5.4009566929133861
0
LINE
8
BLACK
6
CONTINUOUS
10
4.9627598425196853
20
-5.4009566929133861
11
4.9619848425196853
21
-5.4035960236220468
0
LINE
8
BLACK
6
CONTINUOUS
10
4.9619848425196853
20
-5.4035960236220468
11
4.9599059448818901
21
-5.4053974015748034
0
LINE
8
BLACK
6
CONTINUOUS
10
4.9599059448818901
20
-5.4053974015748034
11
4.9578779527559051
21
-5.4058385826771653
0
LINE
8
BLACK
6
CONTINUOUS
10
4.9578779527559051
20
-5.4058385826771653
11
4.8846417322834643
21
-5.4058385826771653
0
LINE
8
BLACK
6
CONTINUOUS
10
4.8846417322834643
20
-5.4058385826771653
11
4.8820024015748027
21
-5.4050635826771654
0
LINE
8
BLACK
6
CONTINUOUS
10
4.8820024015748027
20
-5.4050635826771654
11
4.880201023622047
21
-5.4029846850393701
0
LINE
8
BLACK
6
CONTINUOUS
10
4.880201023622047
20
-5.4029846850393701
11
4.8797598425196851
21
-5.4009566929133861
0
LINE
8
BLACK
6
CONTINUOUS
10
4.8797598425196851
20
-5.4009566929133861
11
4.8797598425196851
21
-5.1653385826771654
0
LINE
8
BLACK
6
CONTINUOUS
10
4.8797598425196851
20
-5.1653385826771654
11
4.6633700787401571
21
-5.1653385826771654
0
LINE
8
BLACK
6
CONTINUOUS
10
4.6633700787401571
20
-5.1653385826771654
11
4.6633700787401571
21
-5.5015105511811022
0
LINE
8
BLACK
6
CONTINUOUS
10
4.6633700787401571
20
-5.5015105511811022
11
4.6625950787401571
21
-5.5041498818897638
0
LINE
8
BLACK
6
CONTINUOUS
10
4.6625950787401571
20
-5.5041498818897638
11
4.6605161811023619
21
-5.5059512598425195
0
LINE
8
BLACK
6
CONTINUOUS
10
4.6605161811023619
20
-5.5059512598425195
11
4.65779342519685
21
-5.5063427559055116
0
LINE
8
BLACK
6
CONTINUOUS
10
4.65779342519685
20
-5.5063427559055116
11
4.6552912204724413
21
-5.5052000393700782
0
LINE
8
BLACK
6
CONTINUOUS
10
4.6552912204724413
20
-5.5052000393700782
11
4.6546049606299214
21
-5.5044691732283466
0
LINE
8
BLACK
6
CONTINUOUS
10
4.6546049606299214
20
-5.5044691732283466
11
4.3962197244094483
21
-5.1653385826771654
0
LINE
8
BLACK
6
CONTINUOUS
10
4.3962197244094483
20
-5.1653385826771654
11
4.3661448425196854
21
-5.1258652755905514
0
LINE
8
BLACK
6
CONTINUOUS
10
4.3661448425196854
20
-5.1258652755905514
11
4.3661447637795279
21
-5.1258651968503939
0
LINE
8
BLACK
6
CONTINUOUS
10
4.3661447637795279
20
-5.1258651968503939
11
4.3602362204724407
21
-5.1181102362204722
0
LINE
8
BLACK
6
CONTINUOUS
10
4.3602362204724407
20
-5.1181102362204722
11
4.3504867716535429
21
-5.1181102362204722
0
LINE
8
BLACK
6
CONTINUOUS
10
4.3504867716535429
20
-5.1181102362204722
11
3.7647440944881887
21
-5.1181102362204722
0
LINE
8
BLACK
6
CONTINUOUS
10
3.7647440944881887
20
-5.1181102362204722
11
3.7621047637795275
21
-5.1173352362204723
0
LINE
8
BLACK
6
CONTINUOUS
10
3.7621047637795275
20
-5.1173352362204723
11
3.7603033858267714
21
-5.115256338582677
0
LINE
8
BLACK
6
CONTINUOUS
10
3.7603033858267714
20
-5.115256338582677
11
3.7598622047244095
21
-5.113228346456693
0
LINE
8
BLACK
6
CONTINUOUS
10
3.7598622047244095
20
-5.113228346456693
11
3.7598622047244095
21
-4.2765354330708663
0
LINE
8
BLACK
6
CONTINUOUS
10
3.7598622047244095
20
-4.2765354330708663
11
3.7606372047244094
21
-4.2738961023622046
0
LINE
8
BLACK
6
CONTINUOUS
10
3.7606372047244094
20
-4.2738961023622046
11
3.7627161023622047
21
-4.2720947244094489
0
LINE
8
BLACK
6
CONTINUOUS
10
3.7627161023622047
20
-4.2720947244094489
11
3.7647440944881887
21
-4.2716535433070861
0
LINE
8
BLACK
6
CONTINUOUS
10
3.7647440944881887
20
-4.2716535433070861
11
3.8174077952755905
21
-4.2716535433070861
0
LINE
8
BLACK
6
CONTINUOUS
10
3.8174077952755905
20
-4.2716535433070861
11
3.8198818897637796
21
-4.2711614173228343
0
LINE
8
BLACK
6
CONTINUOUS
10
3.8198818897637796
20
-4.2711614173228343
11
3.8572834645669292
21
-4.2711614173228343
0
LINE
8
BLACK
6
CONTINUOUS
10
3.8572834645669292
20
-4.2711614173228343
11
3.8597575590551179
21
-4.2716535433070861
0
LINE
8
BLACK
6
CONTINUOUS
10
3.8597575590551179
20
-4.2716535433070861
11
3.915832992125984
21
-4.2716535433070861
0
LINE
8
BLACK
6
CONTINUOUS
10
3.915832992125984
20
-4.2716535433070861
11
3.9183070866141732
21
-4.2711614173228343
0
LINE
8
BLACK
6
CONTINUOUS
10
3.9183070866141732
20
-4.2711614173228343
11
3.9557086614173227
21
-4.2711614173228343
0
LINE
8
BLACK
6
CONTINUOUS
10
3.9557086614173227
20
-4.2711614173228343
11
3.9581827559055118
21
-4.2716535433070861
0
LINE
8
BLACK
6
CONTINUOUS
10
3.9581827559055118
20
-4.2716535433070861
11
4.0142581889763775
21
-4.2716535433070861
0
LINE
8
BLACK
6
CONTINUOUS
10
4.0142581889763775
20
-4.2716535433070861
11
4.0167322834645667
21
-4.2711614173228343
0
LINE
8
BLACK
6
CONTINUOUS
10
4.0167322834645667
20
-4.2711614173228343
11
4.0541338582677167
21
-4.2711614173228343
0
LINE
8
BLACK
6
CONTINUOUS
10
4.0541338582677167
20
-4.2711614173228343
11
4.0566079527559058
21
-4.2716535433070861
0
LINE
8
BLACK
6
CONTINUOUS
10
4.0566079527559058
20
-4.2716535433070861
11
4.112683385826772
21
-4.2716535433070861
0
LINE
8
BLACK
6
CONTINUOUS
10
4.112683385826772
20
-4.2716535433070861
11
4.1151574803149602
21
-4.2711614173228343
0
LINE
8
BLACK
6
CONTINUOUS
10
4.1151574803149602
20
-4.2711614173228343
11
4.1525590551181102
21
-4.2711614173228343
0
LINE
8
BLACK
6
CONTINUOUS
10
4.1525590551181102
20
-4.2711614173228343
11
4.1550331496062993
21
-4.2716535433070861
0
LINE
8
BLACK
6
CONTINUOUS
10
4.1550331496062993
20
-4.2716535433070861
11
4.2111085826771655
21
-4.2716535433070861
0
LINE
8
BLACK
6
CONTINUOUS
10
4.2111085826771655
20
-4.2716535433070861
11
4.2135826771653546
21
-4.2711614173228343
0
LINE
8
BLACK
6
CONTINUOUS
10
4.2135826771653546
20
-4.2711614173228343
11
4.2509842519685037
21
-4.2711614173228343
0
LINE
8
BLACK
6
CONTINUOUS
10
4.2509842519685037
20
-4.2711614173228343
11
4.2534583464566929
21
-4.2716535433070861
0
LINE
8
BLACK
6
CONTINUOUS
10
4.2534583464566929
20
-4.2716535433070861
11
4.309533779527559
21
-4.2716535433070861
0
LINE
8
BLACK
6
CONTINUOUS
10
4.309533779527559
20
-4.2716535433070861
11
4.3120078740157481
21
-4.2711614173228343
0
LINE
8
BLACK
6
CONTINUOUS
10
4.3120078740157481
20
-4.2711614173228343
11
4.3494094488188972
21
-4.2711614173228343
0
LINE
8
BLACK
6
CONTINUOUS
10
4.3494094488188972
20
-4.2711614173228343
11
4.3518835433070864
21
-4.2716535433070861
0
LINE
8
BLACK
6
CONTINUOUS
10
4.3518835433070864
20
-4.2716535433070861
11
4.4037531889763777
21
-4.2716535433070861
0
LINE
8
BLACK
6
CONTINUOUS
10
4.4037531889763777
20
-4.2716535433070861
11
4.4044575984251964
21
-4.2705993307086612
0
LINE
8
BLACK
6
CONTINUOUS
10
4.4044575984251964
20
-4.2705993307086612
11
4.4076507480314957
21
-4.2684657480314963
0
LINE
8
BLACK
6
CONTINUOUS
10
4.4076507480314957
20
-4.2684657480314963
11
4.4114173228346454
21
-4.2677165354330704
0
LINE
8
BLACK
6
CONTINUOUS
10
4.4114173228346454
20
-4.2677165354330704
11
4.4468503937007871
21
-4.2677165354330704
0
LINE
8
BLACK
6
CONTINUOUS
10
4.4468503937007871
20
-4.2677165354330704
11
4.4506169685039367
21
-4.2684657480314963
0
LINE
8
BLACK
6
CONTINUOUS
10
7.9143964960629916
20
-4.3078358267716537
11
7.9175896456692909
21
-4.3099694094488186
0
LINE
8
BLACK
6
CONTINUOUS
10
7.9175896456692909
20
-4.3099694094488186
11
7.9182940551181105
21
-4.3110236220472444
0
LINE
8
BLACK
6
CONTINUOUS
10
7.9182940551181105
20
-4.3110236220472444
11
7.9649736614173223
21
-4.3110236220472444
0
LINE
8
BLACK
6
CONTINUOUS
10
7.9649736614173223
20
-4.3110236220472444
11
7.9656780708661419
21
-4.3099694094488186
0
LINE
8
BLACK
6
CONTINUOUS
10
7.9656780708661419
20
-4.3099694094488186
11
7.9688712204724403
21
-4.3078358267716537
0
LINE
8
BLACK
6
CONTINUOUS
10
7.9688712204724403
20
-4.3078358267716537
11
7.97263779527559
21
-4.3070866141732287
0
LINE
8
BLACK
6
CONTINUOUS
10
7.97263779527559
20
-4.3070866141732287
11
8.01003937007874
21
-4.3070866141732287
0
LINE
8
BLACK
6
CONTINUOUS
10
8.01003937007874
20
-4.3070866141732287
11
8.0138059448818897
21
-4.3078358267716537
0
LINE
8
BLACK
6
CONTINUOUS
10
8.0138059448818897
20
-4.3078358267716537
11
8.0169990944881881
21
-4.3099694094488186
0
LINE
8
BLACK
6
CONTINUOUS
10
8.0169990944881881
20
-4.3099694094488186
11
8.0177035039370068
21
-4.3110236220472444
0
LINE
8
BLACK
6
CONTINUOUS
10
8.0177035039370068
20
-4.3110236220472444
11
8.0641862598425202
21
-4.3110236220472444
0
LINE
8
BLACK
6
CONTINUOUS
10
8.0641862598425202
20
-4.3110236220472444
11
8.0648906692913389
21
-4.3099694094488186
0
LINE
8
BLACK
6
CONTINUOUS
10
8.0648906692913389
20
-4.3099694094488186
11
8.0680838188976374
21
-4.3078358267716537
0
LINE
8
BLACK
6
CONTINUOUS
10
8.0680838188976374
20
-4.3078358267716537
11
8.0718503937007871
21
-4.3070866141732287
0
LINE
8
BLACK
6
CONTINUOUS
10
8.0718503937007871
20
-4.3070866141732287
11
8.109251968503937
21
-4.3070866141732287
0
LINE
8
BLACK
6
CONTINUOUS
10
8.109251968503937
20
-4.3070866141732287
11
8.1130185433070867
21
-4.3078358267716537
0
LINE
8
BLACK
6
CONTINUOUS
10
8.1130185433070867
20
-4.3078358267716537
11
8.1162116929133852
21
-4.3099694094488186
0
LINE
8
BLACK
6
CONTINUOUS
10
8.1162116929133852
20
-4.3099694094488186
11
8.1169161023622038
21
-4.3110236220472444
0
LINE
8
BLACK
6
CONTINUOUS
10
8.1169161023622038
20
-4.3110236220472444
11
8.1626114566929129
21
-4.3110236220472444
0
LINE
8
BLACK
6
CONTINUOUS
10
8.1626114566929129
20
-4.3110236220472444
11
8.1633158661417315
21
-4.3099694094488186
0
LINE
8
BLACK
6
CONTINUOUS
10
8.1633158661417315
20
-4.3099694094488186
11
8.1665090157480318
21
-4.3078358267716537
0
LINE
8
BLACK
6
CONTINUOUS
10
8.1665090157480318
20
-4.3078358267716537
11
8.1702755905511815
21
-4.3070866141732287
0
LINE
8
BLACK
6
CONTINUOUS
10
8.1702755905511815
20
-4.3070866141732287
11
8.2076771653543297
21
-4.3070866141732287
0
LINE
8
BLACK
6
CONTINUOUS
10
8.2076771653543297
20
-4.3070866141732287
11
8.2114437401574794
21
-4.3078358267716537
0
LINE
8
BLACK
6
CONTINUOUS
10
8.2114437401574794
20
-4.3078358267716537
11
8.2146368897637796
21
-4.3099694094488186
0
LINE
8
BLACK
6
CONTINUOUS
10
8.2146368897637796
20
-4.3099694094488186
11
8.2153412992125983
21
-4.3110236220472444
0
LINE
8
BLACK
6
CONTINUOUS
10
8.2153412992125983
20
-4.3110236220472444
11
8.2610366535433073
21
-4.3110236220472444
0
LINE
8
BLACK
6
CONTINUOUS
10
8.2610366535433073
20
-4.3110236220472444
11
8.261741062992126
21
-4.3099694094488186
0
LINE
8
BLACK
6
CONTINUOUS
10
8.261741062992126
20
-4.3099694094488186
11
8.2649342125984244
21
-4.3078358267716537
0
LINE
8
BLACK
6
CONTINUOUS
10
8.2649342125984244
20
-4.3078358267716537
11
8.2687007874015741
21
-4.3070866141732287
0
LINE
8
BLACK
6
CONTINUOUS
10
8.2687007874015741
20
-4.3070866141732287
11
8.3061023622047241
21
-4.3070866141732287
0
LINE
8
BLACK
6
CONTINUOUS
10
8.3061023622047241
20
-4.3070866141732287
11
8.3098689370078738
21
-4.3078358267716537
0
LINE
8
BLACK
6
CONTINUOUS
10
8.3098689370078738
20
-4.3078358267716537
11
8.3130620866141722
21
-4.3099694094488186
0
LINE
8
BLACK
6
CONTINUOUS
10
8.3130620866141722
20
-4.3099694094488186
11
8.3137664960629927
21
-4.3110236220472444
0
LINE
8
BLACK
6
CONTINUOUS
10
8.3137664960629927
20
-4.3110236220472444
11
8.3594618503936999
21
-4.3110236220472444
0
LINE
8
BLACK
6
CONTINUOUS
10
8.3594618503936999
20
-4.3110236220472444
11
8.3601662598425204
21
-4.3099694094488186
0
LINE
8
BLACK
6
CONTINUOUS
10
8.3601662598425204
20
-4.3099694094488186
11
8.3633594094488188
21
-4.3078358267716537
0
LINE
8
BLACK
6
CONTINUOUS
10
8.3633594094488188
20
-4.3078358267716537
11
8.3671259842519685
21
-4.3070866141732287
0
LINE
8
BLACK
6
CONTINUOUS
10
8.3671259842519685
20
-4.3070866141732287
11
8.4045275590551185
21
-4.3070866141732287
0
LINE
8
BLACK
6
CONTINUOUS
10
8.4045275590551185
20
-4.3070866141732287
11
8.4082941338582682
21
-4.3078358267716537
0
LINE
8
BLACK
6
CONTINUOUS
10
8.4082941338582682
20
-4.3078358267716537
11
8.4114872834645666
21
-4.3099694094488186
0
LINE
8
BLACK
6
CONTINUOUS
10
8.4114872834645666
20
-4.3099694094488186
11
8.4121916929133853
21
-4.3110236220472444
0
LINE
8
BLACK
6
CONTINUOUS
10
8.4121916929133853
20
-4.3110236220472444
11
8.4578870472440943
21
-4.3110236220472444
0
LINE
8
BLACK
6
CONTINUOUS
10
8.4578870472440943
20
-4.3110236220472444
11
8.458591456692913
21
-4.3099694094488186
0
LINE
8
BLACK
6
CONTINUOUS
10
8.458591456692913
20
-4.3099694094488186
11
8.4617846062992133
21
-4.3078358267716537
0
LINE
8
BLACK
6
CONTINUOUS
10
8.4617846062992133
20
-4.3078358267716537
11
8.4655511811023612
21
-4.3070866141732287
0
LINE
8
BLACK
6
CONTINUOUS
10
8.4655511811023612
20
-4.3070866141732287
11
8.5029527559055111
21
-4.3070866141732287
0
LINE
8
BLACK
6
CONTINUOUS
10
8.5029527559055111
20
-4.3070866141732287
11
8.5067193307086608
21
-4.3078358267716537
0
LINE
8
BLACK
6
CONTINUOUS
10
8.5067193307086608
20
-4.3078358267716537
11
8.5099124803149611
21
-4.3099694094488186
0
LINE
8
BLACK
6
CONTINUOUS
10
8.5099124803149611
20
-4.3099694094488186
11
8.5106168897637797
21
-4.3110236220472444
0
LINE
8
BLACK
6
CONTINUOUS
10
8.5106168897637797
20
-4.3110236220472444
11
8.5580905511811025
21
-4.3110236220472444
0
LINE
8
BLACK
6
CONTINUOUS
10
8.5580905511811025
20
-4.3110236220472444
11
8.5607298818897632
21
-4.3117986220472444
0
LINE
8
BLACK
6
CONTINUOUS
10
8.5607298818897632
20
-4.3117986220472444
11
8.5625312598425189
21
-4.3138775196850396
0
LINE
8
BLACK
6
CONTINUOUS
10
8.5625312598425189
20
-4.3138775196850396
11
8.5629724409448809
21
-4.3159055118110237
0
LINE
8
BLACK
6
CONTINUOUS
10
8.5629724409448809
20
-4.3159055118110237
11
8.5629724409448809
21
-5.1230708661417319
0
LINE
8
BLACK
6
CONTINUOUS
10
8.5629724409448809
20
-5.1230708661417319
11
8.5621974409448818
21
-5.1257101968503935
0
LINE
8
BLACK
6
CONTINUOUS
10
8.5621974409448818
20
-5.1257101968503935
11
8.5601185433070857
21
-5.1275115748031492
0
LINE
8
BLACK
6
CONTINUOUS
10
8.5601185433070857
20
-5.1275115748031492
11
8.5580905511811025
21
-5.127952755905512
0
LINE
8
BLACK
6
CONTINUOUS
10
8.5580905511811025
20
-5.127952755905512
11
8.0413385826771648
21
-5.127952755905512
0
LINE
8
BLACK
6
CONTINUOUS
10
8.0413385826771648
20
-5.127952755905512
11
8.0389877165354324
21
-5.1285404724409451
0
LINE
8
BLACK
6
CONTINUOUS
10
8.0389877165354324
20
-5.1285404724409451
11
7.8863543307086612
21
-5.1666987795275592
0
LINE
8
BLACK
6
CONTINUOUS
10
7.8863543307086612
20
-5.1666987795275592
11
7.8860623228346451
21
-5.1667623622047243
0
LINE
8
BLACK
6
CONTINUOUS
10
7.8860623228346451
20
-5.1667623622047243
11
7.8841345275590546
21
-5.1671206299212598
0
LINE
8
BLACK
6
CONTINUOUS
10
7.8841345275590546
20
-5.1671206299212598
11
7.8835413385826767
21
-5.1671936220472441
0
LINE
8
BLACK
6
CONTINUOUS
10
7.8835413385826767
20
-5.1671936220472441
11
7.881583937007874
21
-5.1673136614173227
0
LINE
8
BLACK
6
CONTINUOUS
10
7.881583937007874
20
-5.1673136614173227
11
7.8812851181102364
21
-5.1673228346456694
0
LINE
8
BLACK
6
CONTINUOUS
10
7.8812851181102364
20
-5.1673228346456694
11
7.6719947637795274
21
-5.1673228346456694
0
LINE
8
BLACK
6
CONTINUOUS
10
7.6719947637795274
20
-5.1673228346456694
11
7.6716435826771656
21
-5.1672680708661414
0
LINE
8
BLACK
6
CONTINUOUS
10
7.6716435826771656
20
-5.1672680708661414
11
7.6702723228346459
21
-5.1663038188976378
0
LINE
8
BLACK
6
CONTINUOUS
10
7.6702723228346459
20
-5.1663038188976378
11
7.6693070866141735
21
-5.1653385826771654
0
LINE
8
BLACK
6
CONTINUOUS
10
7.6693070866141735
20
-5.1653385826771654
11
7.4430748031496066
21
-5.1653385826771654
0
LINE
8
BLACK
6
CONTINUOUS
10
7.4430748031496066
20
-5.1653385826771654
11
7.4430748031496066
21
-5.4009566929133861
0
LINE
8
BLACK
6
CONTINUOUS
10
7.4430748031496066
20
-5.4009566929133861
11
7.4422998031496057
21
-5.4035960236220468
0
LINE
8
BLACK
6
CONTINUOUS
10
7.4422998031496057
20
-5.4035960236220468
11
7.4402209055118105
21
-5.4053974015748034
0
LINE
8
BLACK
6
CONTINUOUS
10
7.4402209055118105
20
-5.4053974015748034
11
7.4381929133858264
21
-5.4058385826771653
0
LINE
8
BLACK
6
CONTINUOUS
10
7.4381929133858264
20
-5.4058385826771653
11
7.3649566929133856
21
-5.4058385826771653
0
LINE
8
BLACK
6
CONTINUOUS
10
7.3649566929133856
20
-5.4058385826771653
11
7.362317362204724
21
-5.4050635826771654
0
LINE
8
BLACK
6
CONTINUOUS
10
7.362317362204724
20
-5.4050635826771654
11
7.3605159842519683
21
-5.4029846850393701
0
LINE
8
BLACK
6
CONTINUOUS
10
7.3605159842519683
20
-5.4029846850393701
11
7.3600748031496064
21
-5.4009566929133861
0
LINE
8
BLACK
6
CONTINUOUS
10
7.3600748031496064
20
-5.4009566929133861
11
7.3600748031496064
21
-5.1653385826771654
0
LINE
8
BLACK
6
CONTINUOUS
10
7.3600748031496064
20
-5.1653385826771654
11
7.1436850393700784
21
-5.1653385826771654
0
LINE
8
BLACK
6
CONTINUOUS
10
7.1436850393700784
20
-5.1653385826771654
11
7.1436850393700784
21
-5.5266141732283467
0
LINE
8
BLACK
6
CONTINUOUS
10
7.1436850393700784
20
-5.5266141732283467
11
7.1429100393700784
21
-5.5292535039370074
0
LINE
8
BLACK
6
CONTINUOUS
10
7.1429100393700784
20
-5.5292535039370074
11
7.1408311417322832
21
-5.531054881889764
0
LINE
8
BLACK
6
CONTINUOUS
10
7.1408311417322832
20
-5.531054881889764
11
7.1388031496062991
21
-5.5314960629921259
0
LINE
8
BLACK
6
CONTINUOUS
10
7.1388031496062991
20
-5.5314960629921259
11
6.8474173228346453
21
-5.5314960629921259
0
LINE
8
BLACK
6
CONTINUOUS
10
6.8474173228346453
20
-5.5314960629921259
11
6.8447779921259837
21
-5.530721062992126
0
LINE
8
BLACK
6
CONTINUOUS
10
6.8447779921259837
20
-5.530721062992126
11
6.842976614173228
21
-5.5286421653543307
0
LINE
8
BLACK
6
CONTINUOUS
10
6.842976614173228
20
-5.5286421653543307
11
6.8425354330708661
21
-5.5266141732283467
0
LINE
8
BLACK
6
CONTINUOUS
10
6.8425354330708661
20
-5.5266141732283467
11
6.8425354330708661
21
-5.1653385826771654
0
LINE
8
BLACK
6
CONTINUOUS
10
6.8425354330708661
20
-5.1653385826771654
11
6.6163031496062992
21
-5.1653385826771654
0
LINE
8
BLACK
6
CONTINUOUS
10
6.6163031496062992
20
-5.1653385826771654
11
6.6163031496062992
21
-5.4009566929133861
0
LINE
8
BLACK
6
CONTINUOUS
10
6.6163031496062992
20
-5.4009566929133861
11
6.6155281496062992
21
-5.4035960236220468
0
LINE
8
BLACK
6
CONTINUOUS
10
6.6155281496062992
20
-5.4035960236220468
11
6.613449251968504
21
-5.4053974015748034
0
LINE
8
BLACK
6
CONTINUOUS
10
6.613449251968504
20
-5.4053974015748034
11
6.6114212598425199
21
-5.4058385826771653
0
LINE
8
BLACK
6
CONTINUOUS
10
6.6114212598425199
20
-5.4058385826771653
11
6.5381850393700782
21
-5.4058385826771653
0
LINE
8
BLACK
6
CONTINUOUS
10
6.5381850393700782
20
-5.4058385826771653
11
6.5355457086614175
21
-5.4050635826771654
0
LINE
8
BLACK
6
CONTINUOUS
10
6.5355457086614175
20
-5.4050635826771654
11
6.5337443307086609
21
-5.4029846850393701
0
LINE
8
BLACK
6
CONTINUOUS
10
6.5337443307086609
20
-5.4029846850393701
11
6.533303149606299
21
-5.4009566929133861
0
LINE
8
BLACK
6
CONTINUOUS
10
6.533303149606299
20
-5.4009566929133861
11
6.533303149606299
21
-5.1653385826771654
0
LINE
8
BLACK
6
CONTINUOUS
10
6.533303149606299
20
-5.1653385826771654
11
6.3169133858267719
21
-5.1653385826771654
0
LINE
8
BLACK
6
CONTINUOUS
10
6.3169133858267719
20
-5.1653385826771654
11
6.3169133858267719
21
-5.5266141732283467
0
LINE
8
BLACK
6
CONTINUOUS
10
6.3169133858267719
20
-5.5266141732283467
11
6.3161383858267719
21
-5.5292535039370074
0
LINE
8
BLACK
6
CONTINUOUS
10
6.3161383858267719
20
-5.5292535039370074
11
6.3140594881889767
21
-5.531054881889764
0
LINE
8
BLACK
6
CONTINUOUS
10
6.3140594881889767
20
-5.531054881889764
11
6.3120314960629917
21
-5.5314960629921259
0
LINE
8
BLACK
6
CONTINUOUS
10
6.3120314960629917
20
-5.5314960629921259
11
6.0206456692913388
21
-5.5314960629921259
0
LINE
8
BLACK
6
CONTINUOUS
10
6.0206456692913388
20
-5.5314960629921259
11
6.0180063385826772
21
-5.530721062992126
0
LINE
8
BLACK
6
CONTINUOUS
10
6.0180063385826772
20
-5.530721062992126
11
6.0162049606299215
21
-5.5286421653543307
0
LINE
8
BLACK
6
CONTINUOUS
10
6.0162049606299215
20
-5.5286421653543307
11
6.0157637795275587
21
-5.5266141732283467
0
LINE
8
BLACK
6
CONTINUOUS
10
6.0157637795275587
20
-5.5266141732283467
11
6.0157637795275587
21
-5.1634055118110238
0
LINE
8
BLACK
6
CONTINUOUS
10
6.0157637795275587
20
-5.1634055118110238
11
5.7895314960629918
21
-5.1634055118110238
0
LINE
8
BLACK
6
CONTINUOUS
10
5.7895314960629918
20
-5.1634055118110238
11
5.7895314960629918
21
-5.3990236220472436
0
LINE
8
BLACK
6
CONTINUOUS
10
5.7895314960629918
20
-5.3990236220472436
11
5.7887564960629918
21
-5.4016629527559052
0
LINE
8
BLACK
6
CONTINUOUS
10
5.7887564960629918
20
-5.4016629527559052
11
5.7866775984251966
21
-5.4034643307086609
0
LINE
8
BLACK
6
CONTINUOUS
10
5.7866775984251966
20
-5.4034643307086609
11
5.7846496062992125
21
-5.4039055118110237
0
LINE
8
BLACK
6
CONTINUOUS
10
5.7846496062992125
20
-5.4039055118110237
11
5.7114133858267717
21
-5.4039055118110237
0
LINE
8
BLACK
6
CONTINUOUS
10
5.7114133858267717
20
-5.4039055118110237
11
5.7087740551181101
21
-5.4031305118110238
0
LINE
8
BLACK
6
CONTINUOUS
10
5.7087740551181101
20
-5.4031305118110238
11
5.7069726771653544
21
-5.4010516141732285
0
LINE
8
BLACK
6
CONTINUOUS
10
5.7069726771653544
20
-5.4010516141732285
11
5.7065314960629916
21
-5.3990236220472436
0
LINE
8
BLACK
6
CONTINUOUS
10
5.7065314960629916
20
-5.3990236220472436
11
5.7065314960629916
21
-5.1634055118110238
0
LINE
8
BLACK
6
CONTINUOUS
10
5.7065314960629916
20
-5.1634055118110238
11
5.674173228346457
21
-5.1634055118110238
0
LINE
8
BLACK
6
CONTINUOUS
10
5.674173228346457
20
-5.1634055118110238
11
5.6715338976377954
21
-5.1626305118110238
0
LINE
8
BLACK
6
CONTINUOUS
10
5.6715338976377954
20
-5.1626305118110238
11
5.6697325196850397
21
-5.1605516141732286
0
LINE
8
BLACK
6
CONTINUOUS
10
5.6697325196850397
20
-5.1605516141732286
11
5.6692913385826769
21
-5.1585236220472437
0
LINE
8
BLACK
6
CONTINUOUS
10
5.6692913385826769
20
-5.1585236220472437
11
5.6692913385826769
21
-4.8828661417322836
0
LINE
8
BLACK
6
CONTINUOUS
10
5.6692913385826769
20
-4.8828661417322836
11
5.6700663385826768
21
-4.880226811023622
0
LINE
8
BLACK
6
CONTINUOUS
10
5.6700663385826768
20
-4.880226811023622
11
5.6721452362204721
21
-4.8784254330708663
0
LINE
8
BLACK
6
CONTINUOUS
10
5.6721452362204721
20
-4.8784254330708663
11
5.674173228346457
21
-4.8779842519685035
0
LINE
8
BLACK
6
CONTINUOUS
10
5.674173228346457
20
-4.8779842519685035
11
6.0160314960629924
21
-4.8779842519685035
0
LINE
8
BLACK
6
CONTINUOUS
10
6.0160314960629924
20
-4.8779842519685035
11
6.0160314960629924
21
-4.7254842519685036
0
LINE
8
BLACK
6
CONTINUOUS
10
6.0160314960629924
20
-4.7254842519685036
11
5.8999133858267712
21
-4.7254842519685036
0
LINE
8
BLACK
6
CONTINUOUS
10
5.8999133858267712
20
-4.7254842519685036
11
5.8972740551181104
21
-4.7247092519685037
0
LINE
8
BLACK
6
CONTINUOUS
10
5.8972740551181104
20
-4.7247092519685037
11
5.8954726771653538
21
-4.7226303543307084
0
LINE
8
BLACK
6
CONTINUOUS
10
5.8954726771653538
20
-4.7226303543307084
11
5.8950314960629919
21
-4.7206023622047244
0
LINE
8
BLACK
6
CONTINUOUS
10
5.8950314960629919
20
-4.7206023622047244
11
5.8950314960629919
21
-4.531366141732283
0
LINE
8
BLACK
6
CONTINUOUS
10
5.8950314960629919
20
-4.531366141732283
11
5.8958064960629919
21
-4.5287268110236223
0
LINE
8
BLACK
6
CONTINUOUS
10
5.8958064960629919
20
-4.5287268110236223
11
5.8978853937007871
21
-4.5269254330708657
0
LINE
8
BLACK
6
CONTINUOUS
10
5.8978853937007871
20
-4.5269254330708657
11
5.8999133858267712
21
-4.5264842519685038
0
LINE
8
BLACK
6
CONTINUOUS
10
5.8999133858267712
20
-4.5264842519685038
11
6.0160314960629924
21
-4.5264842519685038
0
LINE
8
BLACK
6
CONTINUOUS
10
6.0160314960629924
20
-4.5264842519685038
11
6.0160314960629924
21
-4.3739842519685039
0
LINE
8
BLACK
6
CONTINUOUS
10
6.0160314960629924
20
-4.3739842519685039
11
5.674173228346457
21
-4.3739842519685039
0
LINE
8
BLACK
6
CONTINUOUS
10
5.674173228346457
20
-4.3739842519685039
11
5.6715338976377954
21
-4.373209251968504
0
LINE
8
BLACK
6
CONTINUOUS
10
5.6715338976377954
20
-4.373209251968504
11
5.6697325196850397
21
-4.3711303543307087
0
LINE
8
BLACK
6
CONTINUOUS
10
5.6697325196850397
20
-4.3711303543307087
11
5.6692913385826769
21
-4.3691023622047247
0
LINE
8
BLACK
6
CONTINUOUS
10
5.6692913385826769
20
-4.3691023622047247
11
5.6692913385826769
21
-4.3310285433070863
0
LINE
8
BLACK
6
CONTINUOUS
10
5.6692913385826769
20
-4.3310285433070863
11
5.6693331102362201
21
-4.3303913385826771
0
LINE
8
BLACK
6
CONTINUOUS
10
5.6693331102362201
20
-4.3303913385826771
11
5.6698781889763774
21
-4.3262510236220475
0
LINE
8
BLACK
6
CONTINUOUS
10
5.6698781889763774
20
-4.3262510236220475
11
5.6702080314960632
21
-4.3250200000000003
0
LINE
8
BLACK
6
CONTINUOUS
10
5.6702080314960632
20
-4.3250200000000003
11
5.6716826771653546
21
-4.3214598818897638
0
LINE
8
BLACK
6
CONTINUOUS
10
5.6716826771653546
20
-4.3214598818897638
11
5.6723198031496063
21
-4.3203562992125981
0
LINE
8
BLACK
6
CONTINUOUS
10
5.6723198031496063
20
-4.3203562992125981
11
5.6746658661417317
21
-4.3172988976377953
0
LINE
8
BLACK
6
CONTINUOUS
10
5.6746658661417317
20
-4.3172988976377953
11
5.6755666141732286
21
-4.3163981496062993
0
LINE
8
BLACK
6
CONTINUOUS
10
5.6755666141732286
20
-4.3163981496062993
11
5.6786240157480314
21
-4.3140520866141729
0
LINE
8
BLACK
6
CONTINUOUS
10
5.6786240157480314
20
-4.3140520866141729
11
5.6797275196850396
21
-4.3134149606299212
0
LINE
8
BLACK
6
CONTINUOUS
10
5.6797275196850396
20
-4.3134149606299212
11
5.6832877559055115
21
-4.3119402755905512
0
LINE
8
BLACK
6
CONTINUOUS
10
5.6832877559055115
20
-4.3119402755905512
11
5.6845187007874012
21
-4.311610472440945
0
LINE
8
BLACK
6
CONTINUOUS
10
5.6845187007874012
20
-4.311610472440945
11
5.6886590944881892
21
-4.3110653937007877
0
LINE
8
BLACK
6
CONTINUOUS
10
5.6886590944881892
20
-4.3110653937007877
11
5.6892962992125984
21
-4.3110236220472444
0
LINE
8
BLACK
6
CONTINUOUS
10
5.6892962992125984
20
-4.3110236220472444
11
6.3021889763779528
21
-4.3110236220472444
0
LINE
8
BLACK
6
CONTINUOUS
10
6.3021889763779528
20
-4.3110236220472444
11
6.3048283070866145
21
-4.3117986220472444
0
LINE
8
BLACK
6
CONTINUOUS
10
6.3048283070866145
20
-4.3117986220472444
11
6.3066296850393702
21
-4.3138775196850396
0
LINE
8
BLACK
6
CONTINUOUS
10
6.3066296850393702
20
-4.3138775196850396
11
6.3070708661417321
21
-4.3159055118110237
0
LINE
8
BLACK
6
CONTINUOUS
10
6.3070708661417321
20
-4.3159055118110237
11
6.3070708661417321
21
-4.8917834645669291
0
LINE
8
BLACK
6
CONTINUOUS
10
6.3070708661417321
20
-4.8917834645669291
11
6.533303149606299
21
-4.8917834645669291
0
LINE
8
BLACK
6
CONTINUOUS
10
6.533303149606299
20
-4.8917834645669291
11
6.533303149606299
21
-4.6561653543307084
0
LINE
8
BLACK
6
CONTINUOUS
10
6.533303149606299
20
-4.6561653543307084
11
6.534078149606299
21
-4.6535260236220468
0
LINE
8
BLACK
6
CONTINUOUS
10
6.534078149606299
20
-4.6535260236220468
11
6.5361570472440942
21
-4.6517246456692911
0
LINE
8
BLACK
6
CONTINUOUS
10
6.5361570472440942
20
-4.6517246456692911
11
6.5381850393700782
21
-4.6512834645669292
0
LINE
8
BLACK
6
CONTINUOUS
10
6.5381850393700782
20
-4.6512834645669292
11
6.6114212598425199
21
-4.6512834645669292
0
LINE
8
BLACK
6
CONTINUOUS
10
6.6114212598425199
20
-4.6512834645669292
11
6.6140605905511807
21
-4.6520584645669292
0
LINE
8
BLACK
6
CONTINUOUS
10
6.6140605905511807
20
-4.6520584645669292
11
6.6158619685039373
21
-4.6541373622047244
0
LINE
8
BLACK
6
CONTINUOUS
10
6.6158619685039373
20
-4.6541373622047244
11
6.6163031496062992
21
-4.6561653543307084
0
LINE
8
BLACK
6
CONTINUOUS
10
6.6163031496062992
20
-4.6561653543307084
11
6.6163031496062992
21
-4.8917834645669291
0
LINE
8
BLACK
6
CONTINUOUS
10
6.6163031496062992
20
-4.8917834645669291
11
6.8326929133858263
21
-4.8917834645669291
0
LINE
8
BLACK
6
CONTINUOUS
10
6.8326929133858263
20
-4.8917834645669291
11
6.8326929133858263
21
-4.3159055118110237
0
LINE
8
BLACK
6
CONTINUOUS
10
6.8326929133858263
20
-4.3159055118110237
11
6.8334679133858263
21
-4.313266181102362
0
LINE
8
BLACK
6
CONTINUOUS
10
6.8334679133858263
20
-4.313266181102362
11
6.8355468110236215
21
-4.3114648031496063
0
LINE
8
BLACK
6
CONTINUOUS
10
6.8355468110236215
20
-4.3114648031496063
11
6.8375748031496064
21
-4.3110236220472444
0
LINE
8
BLACK
6
CONTINUOUS
10
6.8375748031496064
20
-4.3110236220472444
11
7.1289606299212593
21
-4.3110236220472444
0
LINE
8
BLACK
6
CONTINUOUS
10
7.1289606299212593
20
-4.3110236220472444
11
7.131599960629921
21
-4.3117986220472444
0
LINE
8
BLACK
6
CONTINUOUS
10
7.131599960629921
20
-4.3117986220472444
11
7.1334013385826767
21
-4.3138775196850396
0
LINE
8
BLACK
6
CONTINUOUS
10
7.1334013385826767
20
-4.3138775196850396
11
7.1338425196850395
21
-4.3159055118110237
0
LINE
8
BLACK
6
CONTINUOUS
10
7.1338425196850395
20
-4.3159055118110237
11
7.1338425196850395
21
-4.8917834645669291
0
LINE
8
BLACK
6
CONTINUOUS
10
7.1338425196850395
20
-4.8917834645669291
11
7.3600748031496064
21
-4.8917834645669291
0
LINE
8
BLACK
6
CONTINUOUS
10
7.3600748031496064
20
-4.8917834645669291
11
7.3600748031496064
21
-4.6561653543307084
0
LINE
8
BLACK
6
CONTINUOUS
10
7.3600748031496064
20
-4.6561653543307084
11
7.3608498031496064
21
-4.6535260236220468
0
LINE
8
BLACK
6
CONTINUOUS
10
7.3608498031496064
20
-4.6535260236220468
11
7.3629287007874016
21
-4.6517246456692911
0
LINE
8
BLACK
6
CONTINUOUS
10
7.3629287007874016
20
-4.6517246456692911
11
7.3649566929133856
21
-4.6512834645669292
0
LINE
8
BLACK
6
CONTINUOUS
10
7.3649566929133856
20
-4.6512834645669292
11
7.4381929133858264
21
-4.6512834645669292
0
LINE
8
BLACK
6
CONTINUOUS
10
7.4381929133858264
20
-4.6512834645669292
11
7.4408322440944881
21
-4.6520584645669292
0
LINE
8
BLACK
6
CONTINUOUS
10
7.4408322440944881
20
-4.6520584645669292
11
7.4426336220472438
21
-4.6541373622047244
0
LINE
8
BLACK
6
CONTINUOUS
10
7.4426336220472438
20
-4.6541373622047244
11
7.4430748031496066
21
-4.6561653543307084
0
LINE
8
BLACK
6
CONTINUOUS
10
7.4430748031496066
20
-4.6561653543307084
11
7.4430748031496066
21
-4.8917834645669291
0
LINE
8
BLACK
6
CONTINUOUS
10
7.4430748031496066
20
-4.8917834645669291
11
7.6594645669291337
21
-4.8917834645669291
0
LINE
8
BLACK
6
CONTINUOUS
10
7.6594645669291337
20
-4.8917834645669291
11
7.6594645669291337
21
-4.3159055118110237
0
LINE
8
BLACK
6
CONTINUOUS
10
7.6594645669291337
20
-4.3159055118110237
11
7.6602395669291337
21
-4.313266181102362
0
LINE
8
BLACK
6
CONTINUOUS
10
7.6602395669291337
20
-4.313266181102362
11
7.6623184645669289
21
-4.3114648031496063
0
LINE
8
BLACK
6
CONTINUOUS
10
7.6623184645669289
20
-4.3114648031496063
11
7.6643464566929129
21
-4.3110236220472444
0
LINE
8
BLACK
6
CONTINUOUS
10
7.6643464566929129
20
-4.3110236220472444
11
7.8675327165354325
21
-4.3110236220472444
0
LINE
8
BLACK
6
CONTINUOUS
10
7.8675327165354325
20
-4.3110236220472444
11
7.8682371259842521
21
-4.3099694094488186
0
LINE
8
BLACK
6
CONTINUOUS
10
7.8682371259842521
20
-4.3099694094488186
11
7.8714302755905514
21
-4.3078358267716537
0
LINE
8
BLACK
6
CONTINUOUS
10
7.8714302755905514
20
-4.3078358267716537
11
7.8751968503937002
21
-4.3070866141732287
0
LINE
8
BLACK
6
CONTINUOUS
10
7.8751968503937002
20
-4.3070866141732287
11
7.9106299212598428
21
-4.3070866141732287
0
LINE
8
BLACK
6
CONTINUOUS
10
7.9106299212598428
20
-4.3070866141732287
11
7.9143964960629916
21
-4.3078358267716537
0
LINE
8
BLACK
6
CONTINUOUS
10
8.5565904330708662
20
-3.9574875984251969
11
8.5574031102362209
21
-3.9581424803149607
0
LINE
8
BLACK
6
CONTINUOUS
10
8.5574031102362209
20
-3.9581424803149607
11
8.561542559055118
21
-3.9622819291338582
0
LINE
8
BLACK
6
CONTINUOUS
10
8.561542559055118
20
-3.9622819291338582
11
8.5628608661417314
21
-3.9646962204724407
0
LINE
8
BLACK
6
CONTINUOUS
10
8.5628608661417314
20
-3.9646962204724407
11
8.5629724409448809
21
-3.9657339370078741
0
LINE
8
BLACK
6
CONTINUOUS
10
8.5629724409448809
20
-3.9657339370078741
11
8.5629724409448809
21
-4.2429274803149601
0
LINE
8
BLACK
6
CONTINUOUS
10
8.5629724409448809
20
-4.2429274803149601
11
8.5621974409448818
21
-4.2455668110236218
0
LINE
8
BLACK
6
CONTINUOUS
10
8.5621974409448818
20
-4.2455668110236218
11
8.561542716535433
21
-4.2463792913385827
0
LINE
8
BLACK
6
CONTINUOUS
10
8.561542716535433
20
-4.2463792913385827
11
8.555953543307087
21
-4.2519685039370074
0
LINE
8
BLACK
6
CONTINUOUS
10
8.555953543307087
20
-4.2519685039370074
11
8.5557477952755896
21
-4.252174251968504
0
LINE
8
BLACK
6
CONTINUOUS
10
8.5557477952755896
20
-4.252174251968504
11
8.5552214173228336
21
-4.2526303543307087
0
LINE
8
BLACK
6
CONTINUOUS
10
8.5552214173228336
20
-4.2526303543307087
11
8.5467866141732287
21
-4.2589446062992122
0
LINE
8
BLACK
6
CONTINUOUS
10
8.5467866141732287
20
-4.2589446062992122
11
8.546200629921259
21
-4.2593211811023624
0
LINE
8
BLACK
6
CONTINUOUS
10
8.546200629921259
20
-4.2593211811023624
11
8.5369534251968506
21
-4.2643705118110233
0
LINE
8
BLACK
6
CONTINUOUS
10
8.5369534251968506
20
-4.2643705118110233
11
8.5363198425196849
21
-4.2646598818897639
0
LINE
8
BLACK
6
CONTINUOUS
10
8.5363198425196849
20
-4.2646598818897639
11
8.5264476377952754
21
-4.2683420472440945
0
LINE
8
BLACK
6
CONTINUOUS
10
8.5264476377952754
20
-4.2683420472440945
11
8.5257792913385817
21
-4.2685382677165356
0
LINE
8
BLACK
6
CONTINUOUS
10
8.5257792913385817
20
-4.2685382677165356
11
8.5154841338582674
21
-4.2707778346456688
0
LINE
8
BLACK
6
CONTINUOUS
10
8.5154841338582674
20
-4.2707778346456688
11
8.5147946850393694
21
-4.2708769685039369
0
LINE
8
BLACK
6
CONTINUOUS
10
8.5147946850393694
20
-4.2708769685039369
11
8.504110944881889
21
-4.2716411023622047
0
LINE
8
BLACK
6
CONTINUOUS
10
8.504110944881889
20
-4.2716411023622047
11
8.5037626771653549
21
-4.2716535433070861
0
LINE
8
BLACK
6
CONTINUOUS
10
8.5037626771653549
20
-4.2716535433070861
11
8.5029527559055111
21
-4.2716535433070861
0
LINE
8
BLACK
6
CONTINUOUS
10
8.5029527559055111
20
-4.2716535433070861
11
8.4655511811023612
21
-4.2716535433070861
0
LINE
8
BLACK
6
CONTINUOUS
10
8.4655511811023612
20
-4.2716535433070861
11
8.4045275590551185
21
-4.2716535433070861
0
LINE
8
BLACK
6
CONTINUOUS
10
8.4045275590551185
20
-4.2716535433070861
11
8.3671259842519685
21
-4.2716535433070861
0
LINE
8
BLACK
6
CONTINUOUS
10
8.3671259842519685
20
-4.2716535433070861
11
8.3061023622047241
21
-4.2716535433070861
0
LINE
8
BLACK
6
CONTINUOUS
10
8.3061023622047241
20
-4.2716535433070861
11
8.2687007874015741
21
-4.2716535433070861
0
LINE
8
BLACK
6
CONTINUOUS
10
8.2687007874015741
20
-4.2716535433070861
11
8.2076771653543297
21
-4.2716535433070861
0
LINE
8
BLACK
6
CONTINUOUS
10
8.2076771653543297
20
-4.2716535433070861
11
8.1702755905511815
21
-4.2716535433070861
0
LINE
8
BLACK
6
CONTINUOUS
10
8.1702755905511815
20
-4.2716535433070861
11
8.109251968503937
21
-4.2716535433070861
0
LINE
8
BLACK
6
CONTINUOUS
10
8.109251968503937
20
-4.2716535433070861
11
8.0718503937007871
21
-4.2716535433070861
0
LINE
8
BLACK
6
CONTINUOUS
10
8.0718503937007871
20
-4.2716535433070861
11
8.01003937007874
21
-4.2716535433070861
0
LINE
8
BLACK
6
CONTINUOUS
10
8.01003937007874
20
-4.2716535433070861
11
7.97263779527559
21
-4.2716535433070861
0
LINE
8
BLACK
6
CONTINUOUS
10
7.97263779527559
20
-4.2716535433070861
11
7.9182940551181105
21
-4.2716535433070861
0
LINE
8
BLACK
6
CONTINUOUS
10
7.9182940551181105
20
-4.2716535433070861
11
7.9175896456692909
21
-4.272707755905512
0
LINE
8
BLACK
6
CONTINUOUS
10
7.9175896456692909
20
-4.272707755905512
11
7.9143964960629916
21
-4.2748413385826769
0
LINE
8
BLACK
6
CONTINUOUS
10
7.9143964960629916
20
-4.2748413385826769
11
7.9106299212598428
21
-4.2755905511811019
0
LINE
8
BLACK
6
CONTINUOUS
10
7.9106299212598428
20
-4.2755905511811019
11
7.8751968503937002
21
-4.2755905511811019
0
LINE
8
BLACK
6
CONTINUOUS
10
7.8751968503937002
20
-4.2755905511811019
11
7.8714302755905514
21
-4.2748413385826769
0
LINE
8
BLACK
6
CONTINUOUS
10
7.8714302755905514
20
-4.2748413385826769
11
7.8682371259842521
21
-4.272707755905512
0
LINE
8
BLACK
6
CONTINUOUS
10
7.8682371259842521
20
-4.272707755905512
11
7.8675327165354325
21
-4.2716535433070861
0
LINE
8
BLACK
6
CONTINUOUS
10
7.8675327165354325
20
-4.2716535433070861
11
7.6643464566929129
21
-4.2716535433070861
0
LINE
8
BLACK
6
CONTINUOUS
10
7.6643464566929129
20
-4.2716535433070861
11
7.6617071259842522
21
-4.2708785433070862
0
LINE
8
BLACK
6
CONTINUOUS
10
7.6617071259842522
20
-4.2708785433070862
11
7.6599057480314956
21
-4.2687996456692909
0
LINE
8
BLACK
6
CONTINUOUS
10
7.6599057480314956
20
-4.2687996456692909
11
7.6594645669291337
21
-4.2667716535433069
0
LINE
8
BLACK
6
CONTINUOUS
10
7.6594645669291337
20
-4.2667716535433069
11
7.6594645669291337
21
-4.1397834645669294
0
LINE
8
BLACK
6
CONTINUOUS
10
7.6594645669291337
20
-4.1397834645669294
11
7.4430748031496066
21
-4.1397834645669294
0
LINE
8
BLACK
6
CONTINUOUS
10
7.4430748031496066
20
-4.1397834645669294
11
7.4430748031496066
21
-4.2667716535433069
0
LINE
8
BLACK
6
CONTINUOUS
10
7.4430748031496066
20
-4.2667716535433069
11
7.4422998031496057
21
-4.2694109842519685
0
LINE
8
BLACK
6
CONTINUOUS
10
7.4422998031496057
20
-4.2694109842519685
11
7.4410748031496059
21
-4.2704724409448822
0
LINE
8
BLACK
6
CONTINUOUS
10
7.4410748031496059
20
-4.2704724409448822
11
7.4410748031496059
21
-4.3782834645669286
0
LINE
8
BLACK
6
CONTINUOUS
10
7.4410748031496059
20
-4.3782834645669286
11
7.3620748031496062
21
-4.3782834645669286
0
LINE
8
BLACK
6
CONTINUOUS
10
7.3620748031496062
20
-4.3782834645669286
11
7.3620748031496062
21
-4.2705985826771649
0
LINE
8
BLACK
6
CONTINUOUS
10
7.3620748031496062
20
-4.2705985826771649
11
7.3605159842519683
21
-4.2687996456692909
0
LINE
8
BLACK
6
CONTINUOUS
10
7.3605159842519683
20
-4.2687996456692909
11
7.3600748031496064
21
-4.2667716535433069
0
LINE
8
BLACK
6
CONTINUOUS
10
7.3600748031496064
20
-4.2667716535433069
11
7.3600748031496064
21
-4.1397834645669294
0
LINE
8
BLACK
6
CONTINUOUS
10
7.3600748031496064
20
-4.1397834645669294
11
7.1338425196850395
21
-4.1397834645669294
0
LINE
8
BLACK
6
CONTINUOUS
10
7.1338425196850395
20
-4.1397834645669294
11
7.1338425196850395
21
-4.2667716535433069
0
LINE
8
BLACK
6
CONTINUOUS
10
7.1338425196850395
20
-4.2667716535433069
11
7.1330675196850395
21
-4.2694109842519685
0
LINE
8
BLACK
6
CONTINUOUS
10
7.1330675196850395
20
-4.2694109842519685
11
7.1309886220472443
21
-4.2712123622047242
0
LINE
8
BLACK
6
CONTINUOUS
10
7.1309886220472443
20
-4.2712123622047242
11
7.1289606299212593
21
-4.2716535433070861
0
LINE
8
BLACK
6
CONTINUOUS
10
7.1289606299212593
20
-4.2716535433070861
11
6.8375748031496064
21
-4.2716535433070861
0
LINE
8
BLACK
6
CONTINUOUS
10
6.8375748031496064
20
-4.2716535433070861
11
6.8349354724409448
21
-4.2708785433070862
0
LINE
8
BLACK
6
CONTINUOUS
10
6.8349354724409448
20
-4.2708785433070862
11
6.8331340944881891
21
-4.2687996456692909
0
LINE
8
BLACK
6
CONTINUOUS
10
6.8331340944881891
20
-4.2687996456692909
11
6.8326929133858263
21
-4.2667716535433069
0
LINE
8
BLACK
6
CONTINUOUS
10
6.8326929133858263
20
-4.2667716535433069
11
6.8326929133858263
21
-4.1397834645669294
0
LINE
8
BLACK
6
CONTINUOUS
10
6.8326929133858263
20
-4.1397834645669294
11
6.6163031496062992
21
-4.1397834645669294
0
LINE
8
BLACK
6
CONTINUOUS
10
6.6163031496062992
20
-4.1397834645669294
11
6.6163031496062992
21
-4.2667716535433069
0
LINE
8
BLACK
6
CONTINUOUS
10
6.6163031496062992
20
-4.2667716535433069
11
6.6155281496062992
21
-4.2694109842519685
0
LINE
8
BLACK
6
CONTINUOUS
10
6.6155281496062992
20
-4.2694109842519685
11
6.6143031496062994
21
-4.2704724409448822
0
LINE
8
BLACK
6
CONTINUOUS
10
6.6143031496062994
20
-4.2704724409448822
11
6.6143031496062994
21
-4.3782834645669286
0
LINE
8
BLACK
6
CONTINUOUS
10
6.6143031496062994
20
-4.3782834645669286
11
6.5353031496062988
21
-4.3782834645669286
0
LINE
8
BLACK
6
CONTINUOUS
10
6.5353031496062988
20
-4.3782834645669286
11
6.5353031496062988
21
-4.2705985826771649
0
LINE
8
BLACK
6
CONTINUOUS
10
6.5353031496062988
20
-4.2705985826771649
11
6.5337443307086609
21
-4.2687996456692909
0
LINE
8
BLACK
6
CONTINUOUS
10
6.5337443307086609
20
-4.2687996456692909
11
6.533303149606299
21
-4.2667716535433069
0
LINE
8
BLACK
6
CONTINUOUS
10
6.533303149606299
20
-4.2667716535433069
11
6.533303149606299
21
-4.1397834645669294
0
LINE
8
BLACK
6
CONTINUOUS
10
6.533303149606299
20
-4.1397834645669294
11
6.3070708661417321
21
-4.1397834645669294
0
LINE
8
BLACK
6
CONTINUOUS
10
6.3070708661417321
20
-4.1397834645669294
11
6.3070708661417321
21
-4.2667716535433069
0
LINE
8
BLACK
6
CONTINUOUS
10
6.3070708661417321
20
-4.2667716535433069
11
6.3062958661417321
21
-4.2694109842519685
0
LINE
8
BLACK
6
CONTINUOUS
10
6.3062958661417321
20
-4.2694109842519685
11
6.3042169685039369
21
-4.2712123622047242
0
LINE
8
BLACK
6
CONTINUOUS
10
6.3042169685039369
20
-4.2712123622047242
11
6.3021889763779528
21
-4.2716535433070861
0
LINE
8
BLACK
6
CONTINUOUS
10
6.3021889763779528
20
-4.2716535433070861
11
5.1840314960629916
21
-4.2716535433070861
0
LINE
8
BLACK
6
CONTINUOUS
10
5.1840314960629916
20
-4.2716535433070861
11
5.1813921653543309
21
-4.2708785433070862
0
LINE
8
BLACK
6
CONTINUOUS
10
5.1813921653543309
20
-4.2708785433070862
11
5.1795907874015743
21
-4.2687996456692909
0
LINE
8
BLACK
6
CONTINUOUS
10
5.1795907874015743
20
-4.2687996456692909
11
5.1791496062992124
21
-4.2667716535433069
0
LINE
8
BLACK
6
CONTINUOUS
10
5.1791496062992124
20
-4.2667716535433069
11
5.1791496062992124
21
-4.1239645669291338
0
LINE
8
BLACK
6
CONTINUOUS
10
5.1791496062992124
20
-4.1239645669291338
11
4.9627598425196853
21
-4.1239645669291338
0
LINE
8
BLACK
6
CONTINUOUS
10
4.9627598425196853
20
-4.1239645669291338
11
4.9627598425196853
21
-4.2667716535433069
0
LINE
8
BLACK
6
CONTINUOUS
10
4.9627598425196853
20
-4.2667716535433069
11
4.9619848425196853
21
-4.2694109842519685
0
LINE
8
BLACK
6
CONTINUOUS
10
4.9619848425196853
20
-4.2694109842519685
11
4.9607598425196846
21
-4.2704724409448822
0
LINE
8
BLACK
6
CONTINUOUS
10
4.9607598425196846
20
-4.2704724409448822
11
4.9607598425196846
21
-4.362464566929134
0
LINE
8
BLACK
6
CONTINUOUS
10
4.9607598425196846
20
-4.362464566929134
11
4.8817598425196849
21
-4.362464566929134
0
LINE
8
BLACK
6
CONTINUOUS
10
4.8817598425196849
20
-4.362464566929134
11
4.8817598425196849
21
-4.2705985826771649
0
LINE
8
BLACK
6
CONTINUOUS
10
4.8817598425196849
20
-4.2705985826771649
11
4.880201023622047
21
-4.2687996456692909
0
LINE
8
BLACK
6
CONTINUOUS
10
4.880201023622047
20
-4.2687996456692909
11
4.8797598425196851
21
-4.2667716535433069
0
LINE
8
BLACK
6
CONTINUOUS
10
4.8797598425196851
20
-4.2667716535433069
11
4.8797598425196851
21
-4.1239645669291338
0
LINE
8
BLACK
6
CONTINUOUS
10
4.8797598425196851
20
-4.1239645669291338
11
4.6535275590551182
21
-4.1239645669291338
0
LINE
8
BLACK
6
CONTINUOUS
10
4.6535275590551182
20
-4.1239645669291338
11
4.6535275590551182
21
-4.2667716535433069
0
LINE
8
BLACK
6
CONTINUOUS
10
4.6535275590551182
20
-4.2667716535433069
11
4.6527525590551182
21
-4.2694109842519685
0
LINE
8
BLACK
6
CONTINUOUS
10
4.6527525590551182
20
-4.2694109842519685
11
4.650673661417323
21
-4.2712123622047242
0
LINE
8
BLACK
6
CONTINUOUS
10
4.650673661417323
20
-4.2712123622047242
11
4.648645669291338
21
-4.2716535433070861
0
LINE
8
BLACK
6
CONTINUOUS
10
4.648645669291338
20
-4.2716535433070861
11
4.5475640157480317
21
-4.2716535433070861
0
LINE
8
BLACK
6
CONTINUOUS
10
4.5475640157480317
20
-4.2716535433070861
11
4.5469268110236216
21
-4.2716117716535429
0
LINE
8
BLACK
6
CONTINUOUS
10
4.5469268110236216
20
-4.2716117716535429
11
4.5464140551181105
21
-4.2715442519685034
0
LINE
8
BLACK
6
CONTINUOUS
10
4.5464140551181105
20
-4.2715442519685034
11
4.5427864173228345
21
-4.2710666535433068
0
LINE
8
BLACK
6
CONTINUOUS
10
4.5427864173228345
20
-4.2710666535433068
11
4.5415554330708661
21
-4.2707368110236219
0
LINE
8
BLACK
6
CONTINUOUS
10
4.5415554330708661
20
-4.2707368110236219
11
4.5379953149606296
21
-4.2692621653543306
0
LINE
8
BLACK
6
CONTINUOUS
10
4.5379953149606296
20
-4.2692621653543306
11
4.5368916535433073
21
-4.2686249606299214
0
LINE
8
BLACK
6
CONTINUOUS
10
4.5368916535433073
20
-4.2686249606299214
11
4.5338345669291336
21
-4.2662791732283463
0
LINE
8
BLACK
6
CONTINUOUS
10
4.5338345669291336
20
-4.2662791732283463
11
4.5329333858267713
21
-4.265377992125984
0
LINE
8
BLACK
6
CONTINUOUS
10
4.5329333858267713
20
-4.265377992125984
11
4.5305875984251971
21
-4.2623209055118112
0
LINE
8
BLACK
6
CONTINUOUS
10
4.5305875984251971
20
-4.2623209055118112
11
4.529950393700787
21
-4.261217244094488
0
LINE
8
BLACK
6
CONTINUOUS
10
4.529950393700787
20
-4.261217244094488
11
4.5284757480314957
21
-4.2576571259842515
0
LINE
8
BLACK
6
CONTINUOUS
10
4.5284757480314957
20
-4.2576571259842515
11
4.5281459055118107
21
-4.2564261023622043
0
LINE
8
BLACK
6
CONTINUOUS
10
4.5281459055118107
20
-4.2564261023622043
11
4.5275590551181102
21
-4.2519685039370074
0
LINE
8
BLACK
6
CONTINUOUS
10
4.5275590551181102
20
-4.2519685039370074
11
4.5275590551181102
21
-4.2322834645669287
0
LINE
8
BLACK
6
CONTINUOUS
10
4.5275590551181102
20
-4.2322834645669287
11
4.5078740157480315
21
-4.2322834645669287
0
LINE
8
BLACK
6
CONTINUOUS
10
4.5078740157480315
20
-4.2322834645669287
11
4.5078737401574802
21
-4.2322834645669287
0
LINE
8
BLACK
6
CONTINUOUS
10
4.5078737401574802
20
-4.2322834645669287
11
4.4545145275590547
21
-4.2322834645669287
0
LINE
8
BLACK
6
CONTINUOUS
10
4.4545145275590547
20
-4.2322834645669287
11
4.4538101181102361
21
-4.2333376771653546
0
LINE
8
BLACK
6
CONTINUOUS
10
4.4538101181102361
20
-4.2333376771653546
11
4.4506169685039367
21
-4.2354712598425195
0
LINE
8
BLACK
6
CONTINUOUS
10
4.4506169685039367
20
-4.2354712598425195
11
4.4468503937007871
21
-4.2362204724409445
0
LINE
8
BLACK
6
CONTINUOUS
10
4.4468503937007871
20
-4.2362204724409445
11
4.4114173228346454
21
-4.2362204724409445
0
LINE
8
BLACK
6
CONTINUOUS
10
4.4114173228346454
20
-4.2362204724409445
11
4.4076507480314957
21
-4.2354712598425195
0
LINE
8
BLACK
6
CONTINUOUS
10
4.4076507480314957
20
-4.2354712598425195
11
4.4044575984251964
21
-4.2333376771653546
0
LINE
8
BLACK
6
CONTINUOUS
10
4.4044575984251964
20
-4.2333376771653546
11
4.4037531889763777
21
-4.2322834645669287
0
LINE
8
BLACK
6
CONTINUOUS
10
4.4037531889763777
20
-4.2322834645669287
11
4.3567447637795276
21
-4.2322834645669287
0
LINE
8
BLACK
6
CONTINUOUS
10
4.3567447637795276
20
-4.2322834645669287
11
4.3563691732283463
21
-4.2328455511811018
0
LINE
8
BLACK
6
CONTINUOUS
10
4.3563691732283463
20
-4.2328455511811018
11
4.3531760236220469
21
-4.2349791338582676
0
LINE
8
BLACK
6
CONTINUOUS
10
4.3531760236220469
20
-4.2349791338582676
11
4.3494094488188972
21
-4.2357283464566926
0
LINE
8
BLACK
6
CONTINUOUS
10
4.3494094488188972
20
-4.2357283464566926
11
4.3120078740157481
21
-4.2357283464566926
0
LINE
8
BLACK
6
CONTINUOUS
10
4.3120078740157481
20
-4.2357283464566926
11
4.3082412992125985
21
-4.2349791338582676
0
LINE
8
BLACK
6
CONTINUOUS
10
4.3082412992125985
20
-4.2349791338582676
11
4.3050481496062991
21
-4.2328455511811018
0
LINE
8
BLACK
6
CONTINUOUS
10
4.3050481496062991
20
-4.2328455511811018
11
4.3046725590551178
21
-4.2322834645669287
0
LINE
8
BLACK
6
CONTINUOUS
10
4.3046725590551178
20
-4.2322834645669287
11
4.258319566929134
21
-4.2322834645669287
0
LINE
8
BLACK
6
CONTINUOUS
10
4.258319566929134
20
-4.2322834645669287
11
4.2579439763779527
21
-4.2328455511811018
0
LINE
8
BLACK
6
CONTINUOUS
10
4.2579439763779527
20
-4.2328455511811018
11
4.2547508267716534
21
-4.2349791338582676
0
LINE
8
BLACK
6
CONTINUOUS
10
4.2547508267716534
20
-4.2349791338582676
11
4.2509842519685037
21
-4.2357283464566926
0
LINE
8
BLACK
6
CONTINUOUS
10
4.2509842519685037
20
-4.2357283464566926
11
4.2135826771653546
21
-4.2357283464566926
0
LINE
8
BLACK
6
CONTINUOUS
10
4.2135826771653546
20
-4.2357283464566926
11
4.2098161023622049
21
-4.2349791338582676
0
LINE
8
BLACK
6
CONTINUOUS
10
4.2098161023622049
20
-4.2349791338582676
11
4.2066229527559056
21
-4.2328455511811018
0
LINE
8
BLACK
6
CONTINUOUS
10
4.2066229527559056
20
-4.2328455511811018
11
4.2062473622047243
21
-4.2322834645669287
0
LINE
8
BLACK
6
CONTINUOUS
10
4.2062473622047243
20
-4.2322834645669287
11
4.1598943700787396
21
-4.2322834645669287
0
LINE
8
BLACK
6
CONTINUOUS
10
4.1598943700787396
20
-4.2322834645669287
11
4.1595187795275592
21
-4.2328455511811018
0
LINE
8
BLACK
6
CONTINUOUS
10
4.1595187795275592
20
-4.2328455511811018
11
4.1563256299212599
21
-4.2349791338582676
0
LINE
8
BLACK
6
CONTINUOUS
10
4.1563256299212599
20
-4.2349791338582676
11
4.1525590551181102
21
-4.2357283464566926
0
LINE
8
BLACK
6
CONTINUOUS
10
4.1525590551181102
20
-4.2357283464566926
11
4.1151574803149602
21
-4.2357283464566926
0
LINE
8
BLACK
6
CONTINUOUS
10
4.1151574803149602
20
-4.2357283464566926
11
4.1113909055118105
21
-4.2349791338582676
0
LINE
8
BLACK
6
CONTINUOUS
10
4.1113909055118105
20
-4.2349791338582676
11
4.1081977559055121
21
-4.2328455511811018
0
LINE
8
BLACK
6
CONTINUOUS
10
4.1081977559055121
20
-4.2328455511811018
11
4.1078221653543308
21
-4.2322834645669287
0
LINE
8
BLACK
6
CONTINUOUS
10
4.1078221653543308
20
-4.2322834645669287
11
4.0614691732283461
21
-4.2322834645669287
0
LINE
8
BLACK
6
CONTINUOUS
10
4.0614691732283461
20
-4.2322834645669287
11
4.0610935826771657
21
-4.2328455511811018
0
LINE
8
BLACK
6
CONTINUOUS
10
4.0610935826771657
20
-4.2328455511811018
11
4.0579004330708663
21
-4.2349791338582676
0
LINE
8
BLACK
6
CONTINUOUS
10
4.0579004330708663
20
-4.2349791338582676
11
4.0541338582677167
21
-4.2357283464566926
0
LINE
8
BLACK
6
CONTINUOUS
10
4.0541338582677167
20
-4.2357283464566926
11
4.0167322834645667
21
-4.2357283464566926
0
LINE
8
BLACK
6
CONTINUOUS
10
4.0167322834645667
20
-4.2357283464566926
11
4.012965708661417
21
-4.2349791338582676
0
LINE
8
BLACK
6
CONTINUOUS
10
4.012965708661417
20
-4.2349791338582676
11
4.0097725590551176
21
-4.2328455511811018
0
LINE
8
BLACK
6
CONTINUOUS
10
4.0097725590551176
20
-4.2328455511811018
11
4.0093969685039372
21
-4.2322834645669287
0
LINE
8
BLACK
6
CONTINUOUS
10
4.0093969685039372
20
-4.2322834645669287
11
3.9630439763779526
21
-4.2322834645669287
0
LINE
8
BLACK
6
CONTINUOUS
10
3.9630439763779526
20
-4.2322834645669287
11
3.9626683858267717
21
-4.2328455511811018
0
LINE
8
BLACK
6
CONTINUOUS
10
3.9626683858267717
20
-4.2328455511811018
11
3.9594752362204724
21
-4.2349791338582676
0
LINE
8
BLACK
6
CONTINUOUS
10
3.9594752362204724
20
-4.2349791338582676
11
3.9557086614173227
21
-4.2357283464566926
0
LINE
8
BLACK
6
CONTINUOUS
10
3.9557086614173227
20
-4.2357283464566926
11
3.9183070866141732
21
-4.2357283464566926
0
LINE
8
BLACK
6
CONTINUOUS
10
3.9183070866141732
20
-4.2357283464566926
11
3.9145405118110235
21
-4.2349791338582676
0
LINE
8
BLACK
6
CONTINUOUS
10
3.9145405118110235
20
-4.2349791338582676
11
3.9113473622047241
21
-4.2328455511811018
0
LINE
8
BLACK
6
CONTINUOUS
10
3.9113473622047241
20
-4.2328455511811018
11
3.9109717716535433
21
-4.2322834645669287
0
LINE
8
BLACK
6
CONTINUOUS
10
3.9109717716535433
20
-4.2322834645669287
11
3.8646187795275591
21
-4.2322834645669287
0
LINE
8
BLACK
6
CONTINUOUS
10
3.8646187795275591
20
-4.2322834645669287
11
3.8642431889763778
21
-4.2328455511811018
0
LINE
8
BLACK
6
CONTINUOUS
10
3.8642431889763778
20
-4.2328455511811018
11
3.8610500393700788
21
-4.2349791338582676
0
LINE
8
BLACK
6
CONTINUOUS
10
3.8610500393700788
20
-4.2349791338582676
11
3.8572834645669292
21
-4.2357283464566926
0
LINE
8
BLACK
6
CONTINUOUS
10
3.8572834645669292
20
-4.2357283464566926
11
3.8198818897637796
21
-4.2357283464566926
0
LINE
8
BLACK
6
CONTINUOUS
10
3.8198818897637796
20
-4.2357283464566926
11
3.8161153149606299
21
-4.2349791338582676
0
LINE
8
BLACK
6
CONTINUOUS
10
3.8161153149606299
20
-4.2349791338582676
11
3.8129221653543306
21
-4.2328455511811018
0
LINE
8
BLACK
6
CONTINUOUS
10
3.8129221653543306
20
-4.2328455511811018
11
3.8122278346456691
21
-4.2318064173228347
0
LINE
8
BLACK
6
CONTINUOUS
10
3.8122278346456691
20
-4.2318064173228347
11
3.8080399212598426
21
-4.2315068897637795
0
LINE
8
BLACK
6
CONTINUOUS
10
3.8080399212598426
20
-4.2315068897637795
11
3.8073504724409446
21
-4.2314077559055114
0
LINE
8
BLACK
6
CONTINUOUS
10
3.8073504724409446
20
-4.2314077559055114
11
3.7970553149606299
21
-4.2291681889763781
0
LINE
8
BLACK
6
CONTINUOUS
10
3.7970553149606299
20
-4.2291681889763781
11
3.7963869685039371
21
-4.2289719685039371
0
LINE
8
BLACK
6
CONTINUOUS
10
3.7963869685039371
20
-4.2289719685039371
11
3.7865147637795276
21
-4.2252898031496064
0
LINE
8
BLACK
6
CONTINUOUS
10
3.7865147637795276
20
-4.2252898031496064
11
3.7858811811023623
21
-4.2250004330708659
0
LINE
8
BLACK
6
CONTINUOUS
10
3.7858811811023623
20
-4.2250004330708659
11
3.7766339763779526
21
-4.2199511023622049
0
LINE
8
BLACK
6
CONTINUOUS
10
3.7766339763779526
20
-4.2199511023622049
11
3.7760479921259842
21
-4.2195745275590548
0
LINE
8
BLACK
6
CONTINUOUS
10
3.7760479921259842
20
-4.2195745275590548
11
3.767613188976378
21
-4.2132602755905513
0
LINE
8
BLACK
6
CONTINUOUS
10
3.767613188976378
20
-4.2132602755905513
11
3.767086811023622
21
-4.2128041338582678
0
LINE
8
BLACK
6
CONTINUOUS
10
3.767086811023622
20
-4.2128041338582678
11
3.7612920866141732
21
-4.2070094094488191
0
LINE
8
BLACK
6
CONTINUOUS
10
3.7612920866141732
20
-4.2070094094488191
11
3.759973779527559
21
-4.2045951181102366
0
LINE
8
BLACK
6
CONTINUOUS
10
3.759973779527559
20
-4.2045951181102366
11
3.7598622047244095
21
-4.2035574015748027
0
LINE
8
BLACK
6
CONTINUOUS
10
3.7598622047244095
20
-4.2035574015748027
11
3.7598622047244095
21
-3.9657339370078741
0
LINE
8
BLACK
6
CONTINUOUS
10
3.7598622047244095
20
-3.9657339370078741
11
3.7606372047244094
21
-3.9630946062992125
0
LINE
8
BLACK
6
CONTINUOUS
10
3.7606372047244094
20
-3.9630946062992125
11
3.7612920866141732
21
-3.9622819291338582
0
LINE
8
BLACK
6
CONTINUOUS
10
3.7612920866141732
20
-3.9622819291338582
11
3.7654315354330707
21
-3.9581424803149607
0
LINE
8
BLACK
6
CONTINUOUS
10
3.7654315354330707
20
-3.9581424803149607
11
3.7678458267716533
21
-3.9568241732283465
0
LINE
8
BLACK
6
CONTINUOUS
10
3.7678458267716533
20
-3.9568241732283465
11
3.7688835433070866
21
-3.956712598425197
0
LINE
8
BLACK
6
CONTINUOUS
10
3.7688835433070866
20
-3.956712598425197
11
8.5539511023622037
21
-3.956712598425197
0
LINE
8
BLACK
6
CONTINUOUS
10
8.5539511023622037
20
-3.956712598425197
11
8.5565904330708662
21
-3.9574875984251969
0
CIRCLE
8
BLACK
10
6.7716535433070861
20
-6.0433070866141732
40
0.0059055118110236
0
CIRCLE
8
BLACK
10
4.21259842519685
20
-3.9960629921259843
40
0.0059055118110236
0
CIRCLE
8
BLACK
10
8.2480314960629926
20
-6.0433070866141732
40
0.0059055118110236
0
CIRCLE
8
BLACK
10
4.9015748031496065
20
-6.0433070866141732
40
0.0059055118110236
0
CIRCLE
8
BLACK
10
7.1653543307086611
20
-3.9960629921259843
40
0.0059055118110236
0
CIRCLE
8
BLACK
10
6.6732283464566926
20
-3.9960629921259843
40
0.0059055118110236
0
CIRCLE
8
BLACK
10
4.8031496062992121
20
-5.9448818897637796
40
0.0059055118110236
0
CIRCLE
8
BLACK
10
7.5590551181102361
20
-3.9960629921259843
40
0.0059055118110236
0
CIRCLE
8
BLACK
10
8.0511811023622037
20
-4.0944881889763778
40
0.0059055118110236
0
CIRCLE
8
BLACK
10
3.8188976377952755
20
-5.5511811023622046
40
0.0059055118110236
0
CIRCLE
8
BLACK
10
4.21259842519685
20
-5.6496062992125982
40
0.0059055118110236
0
CIRCLE
8
BLACK
10
8.0511811023622037
20
-4.1929133858267713
40
0.0059055118110236
0
CIRCLE
8
BLACK
10
4.3110236220472444
20
-3.9960629921259843
40
0.0059055118110236
0
CIRCLE
8
BLACK
10
6.7716535433070861
20
-5.9448818897637796
40
0.0059055118110236
0
CIRCLE
8
BLACK
10
6.4763779527559056
20
-6.0433070866141732
40
0.0059055118110236
0
CIRCLE
8
BLACK
10
6.7716535433070861
20
-3.9960629921259843
40
0.0059055118110236
0
CIRCLE
8
BLACK
10
6.0826771653543306
20
-5.9448818897637796
40
0.0059055118110236
0
CIRCLE
8
BLACK
10
7.5590551181102361
20
-5.9448818897637796
40
0.0059055118110236
0
CIRCLE
8
BLACK
10
3.917322834645669
20
-3.9960629921259843
40
0.0059055118110236
0
CIRCLE
8
BLACK
10
6.4763779527559056
20
-3.9960629921259843
40
0.0059055118110236
0
CIRCLE
8
BLACK
10
3.917322834645669
20
-5.8464566929133861
40
0.0059055118110236
0
CIRCLE
8
BLACK
10
6.1811023622047241
20
-5.7480314960629917
40
0.0059055118110236
0
CIRCLE
8
BLACK
10
4.5078740157480315
20
-3.9960629921259843
40
0.0059055118110236
0
CIRCLE
8
BLACK
10
7.9527559055118111
20
-5.6496062992125982
40
0.0059055118110236
0
CIRCLE
8
BLACK
10
6.1811023622047241
20
-5.9448818897637796
40
0.0059055118110236
0
CIRCLE
8
BLACK
10
8.3464566929133852
20
-3.9960629921259843
40
0.0059055118110236
0
CIRCLE
8
BLACK
10
5.8858267716535435
20
-3.9960629921259843
40
0.0059055118110236
0
CIRCLE
8
BLACK
10
7.1653543307086611
20
-5.9448818897637796
40
0.0059055118110236
0
CIRCLE
8
BLACK
10
4.409448818897638
20
-5.6496062992125982
40
0.0059055118110236
0
CIRCLE
8
BLACK
10
6.377952755905512
20
-6.0433070866141732
40
0.0059055118110236
0
CIRCLE
8
BLACK
10
5.1968503937007871
20
-6.0433070866141732
40
0.0059055118110236
0
CIRCLE
8
BLACK
10
4.409448818897638
20
-5.8464566929133861
40
0.0059055118110236
0
CIRCLE
8
BLACK
10
5.
20
-6.0433070866141732
40
0.0059055118110236
0
CIRCLE
8
BLACK
10
6.2795275590551176
20
-5.9448818897637796
40
0.0059055118110236
0
CIRCLE
8
BLACK
10
8.2480314960629926
20
-4.0944881889763778
40
0.0059055118110236
0
CIRCLE
8
BLACK
10
7.7559055118110232
20
-5.8464566929133861
40
0.0059055118110236
0
CIRCLE
8
BLACK
10
4.409448818897638
20
-4.0944881889763778
40
0.0059055118110236
0
CIRCLE
8
BLACK
10
4.8031496062992121
20
-4.0944881889763778
40
0.0059055118110236
0
CIRCLE
8
BLACK
10
6.9685039370078741
20
-6.0433070866141732
40
0.0059055118110236
0
CIRCLE
8
BLACK
10
5.984251968503937
20
-4.1929133858267713
40
0.0059055118110236
0
CIRCLE
8
BLACK
10
6.8700787401574805
20
-4.1929133858267713
40
0.0059055118110236
0
CIRCLE
8
BLACK
10
6.1811023622047241
20
-3.9960629921259843
40
0.0059055118110236
0
CIRCLE
8
BLACK
10
4.3110236220472444
20
-5.6496062992125982
40
0.0059055118110236
0
CIRCLE
8
BLACK
10
3.8188976377952755
20
-5.4527559055118111
40
0.0059055118110236
0
CIRCLE
8
BLACK
10
5.8858267716535435
20
-4.1929133858267713
40
0.0059055118110236
0
CIRCLE
8
BLACK
10
4.1141732283464565
20
-4.0944881889763778
40
0.0059055118110236
0
CIRCLE
8
BLACK
10
5.4921259842519685
20
-3.9960629921259843
40
0.0059055118110236
0
CIRCLE
8
BLACK
10
3.8188976377952755
20
-5.6496062992125982
40
0.0059055118110236
0
CIRCLE
8
BLACK
10
4.5078740157480315
20
-5.6496062992125982
40
0.0059055118110236
0
CIRCLE
8
BLACK
10
7.7559055118110232
20
-5.9448818897637796
40
0.0059055118110236
0
CIRCLE
8
BLACK
10
7.8543307086614176
20
-5.8464566929133861
40
0.0059055118110236
0
CIRCLE
8
BLACK
10
8.4448818897637796
20
-4.0944881889763778
40
0.0059055118110236
0
CIRCLE
8
BLACK
10
7.4606299212598426
20
-6.0433070866141732
40
0.0059055118110236
0
CIRCLE
8
BLACK
10
5.590551181102362
20
-4.1929133858267713
40
0.0059055118110236
0
CIRCLE
8
BLACK
10
7.0669291338582676
20
-5.9448818897637796
40
0.0059055118110236
0
CIRCLE
8
BLACK
10
8.0511811023622037
20
-3.9960629921259843
40
0.0059055118110236
0
CIRCLE
8
BLACK
10
5.984251968503937
20
-4.0944881889763778
40
0.0059055118110236
0
CIRCLE
8
BLACK
10
4.5078740157480315
20
-5.9448818897637796
40
0.0059055118110236
0
CIRCLE
8
BLACK
10
5.4921259842519685
20
-5.9448818897637796
40
0.0059055118110236
0
CIRCLE
8
BLACK
10
7.9527559055118111
20
-5.4527559055118111
40
0.0059055118110236
0
CIRCLE
8
BLACK
10
5.393700787401575
20
-5.8464566929133861
40
0.0059055118110236
0
CIRCLE
8
BLACK
10
8.0511811023622037
20
-5.7480314960629917
40
0.0059055118110236
0
CIRCLE
8
BLACK
10
5.2952755905511806
20
-4.1929133858267713
40
0.0059055118110236
0
CIRCLE
8
BLACK
10
7.4606299212598426
20
-3.9960629921259843
40
0.0059055118110236
0
CIRCLE
8
BLACK
10
5.2952755905511806
20
-4.0944881889763778
40
0.0059055118110236
0
CIRCLE
8
BLACK
10
7.4606299212598426
20
-5.9448818897637796
40
0.0059055118110236
0
CIRCLE
8
BLACK
10
4.606299212598425
20
-5.7480314960629917
40
0.0059055118110236
0
CIRCLE
8
BLACK
10
7.9527559055118111
20
-5.2559055118110232
40
0.0059055118110236
0
CIRCLE
8
BLACK
10
5.0984251968503935
20
-3.9960629921259843
40
0.0059055118110236
0
CIRCLE
8
BLACK
10
6.1811023622047241
20
-4.0944881889763778
40
0.0059055118110236
0
CIRCLE
8
BLACK
10
4.1141732283464565
20
-6.0433070866141732
40
0.0059055118110236
0
CIRCLE
8
BLACK
10
6.2795275590551176
20
-3.9960629921259843
40
0.0059055118110236
0
CIRCLE
8
BLACK
10
7.7559055118110232
20
-5.2559055118110232
40
0.0059055118110236
0
CIRCLE
8
BLACK
10
5.1968503937007871
20
-5.9448818897637796
40
0.0059055118110236
0
CIRCLE
8
BLACK
10
5.8858267716535435
20
-4.0944881889763778
40
0.0059055118110236
0
CIRCLE
8
BLACK
10
4.1141732283464565
20
-5.7480314960629917
40
0.0059055118110236
0
CIRCLE
8
BLACK
10
4.8031496062992121
20
-6.0433070866141732
40
0.0059055118110236
0
CIRCLE
8
BLACK
10
6.1811023622047241
20
-4.1929133858267713
40
0.0059055118110236
0
CIRCLE
8
BLACK
10
8.2480314960629926
20
-4.1929133858267713
40
0.0059055118110236
0
CIRCLE
8
BLACK
10
6.2795275590551176
20
-4.0944881889763778
40
0.0059055118110236
0
CIRCLE
8
BLACK
10
7.9527559055118111
20
-5.7480314960629917
40
0.0059055118110236
0
CIRCLE
8
BLACK
10
4.015748031496063
20
-4.0944881889763778
40
0.0059055118110236
0
CIRCLE
8
BLACK
10
4.409448818897638
20
-3.9960629921259843
40
0.0059055118110236
0
CIRCLE
8
BLACK
10
4.606299212598425
20
-3.9960629921259843
40
0.0059055118110236
0
CIRCLE
8
BLACK
10
4.3110236220472444
20
-4.0944881889763778
40
0.0059055118110236
0
CIRCLE
8
BLACK
10
4.015748031496063
20
-3.9960629921259843
40
0.0059055118110236
0
CIRCLE
8
BLACK
10
5.2952755905511806
20
-3.9960629921259843
40
0.0059055118110236
0
CIRCLE
8
BLACK
10
3.917322834645669
20
-5.7480314960629917
40
0.0059055118110236
0
CIRCLE
8
BLACK
10
5.393700787401575
20
-5.7480314960629917
40
0.0059055118110236
0
CIRCLE
8
BLACK
10
8.3464566929133852
20
-5.6496062992125982
40
0.0059055118110236
0
CIRCLE
8
BLACK
10
4.015748031496063
20
-5.7480314960629917
40
0.0059055118110236
0
CIRCLE
8
BLACK
10
6.4763779527559056
20
-4.0944881889763778
40
0.0059055118110236
0
CIRCLE
8
BLACK
10
5.2952755905511806
20
-6.0433070866141732
40
0.0059055118110236
0
CIRCLE
8
BLACK
10
5.7874015748031491
20
-6.0433070866141732
40
0.0059055118110236
0
CIRCLE
8
BLACK
10
4.409448818897638
20
-5.5511811023622046
40
0.0059055118110236
0
CIRCLE
8
BLACK
10
5.590551181102362
20
-4.0944881889763778
40
0.0059055118110236
0
CIRCLE
8
BLACK
10
5.4921259842519685
20
-4.0944881889763778
40
0.0059055118110236
0
CIRCLE
8
BLACK
10
5.
20
-5.9448818897637796
40
0.0059055118110236
0
CIRCLE
8
BLACK
10
4.21259842519685
20
-4.0944881889763778
40
0.0059055118110236
0
CIRCLE
8
BLACK
10
6.4763779527559056
20
-5.9448818897637796
40
0.0059055118110236
0
CIRCLE
8
BLACK
10
4.7047244094488185
20
-5.9448818897637796
40
0.0059055118110236
0
CIRCLE
8
BLACK
10
7.3622047244094491
20
-6.0433070866141732
40
0.0059055118110236
0
CIRCLE
8
BLACK
10
6.2795275590551176
20
-6.0433070866141732
40
0.0059055118110236
0
CIRCLE
8
BLACK
10
5.984251968503937
20
-5.9448818897637796
40
0.0059055118110236
0
CIRCLE
8
BLACK
10
4.606299212598425
20
-4.1929133858267713
40
0.0059055118110236
0
CIRCLE
8
BLACK
10
7.0669291338582676
20
-5.8464566929133861
40
0.0059055118110236
0
CIRCLE
8
BLACK
10
6.1811023622047241
20
-5.6496062992125982
40
0.0059055118110236
0
CIRCLE
8
BLACK
10
6.2795275590551176
20
-5.8464566929133861
40
0.0059055118110236
0
CIRCLE
8
BLACK
10
5.393700787401575
20
-5.9448818897637796
40
0.0059055118110236
0
CIRCLE
8
BLACK
10
5.393700787401575
20
-4.1929133858267713
40
0.0059055118110236
0
CIRCLE
8
BLACK
10
4.3110236220472444
20
-5.7480314960629917
40
0.0059055118110236
0
CIRCLE
8
BLACK
10
8.1496062992125982
20
-6.0433070866141732
40
0.0059055118110236
0
CIRCLE
8
BLACK
10
7.0669291338582676
20
-3.9960629921259843
40
0.0059055118110236
0
CIRCLE
8
BLACK
10
7.6574803149606296
20
-3.9960629921259843
40
0.0059055118110236
0
CIRCLE
8
BLACK
10
5.393700787401575
20
-4.0944881889763778
40
0.0059055118110236
0
CIRCLE
8
BLACK
10
5.1968503937007871
20
-3.9960629921259843
40
0.0059055118110236
0
CIRCLE
8
BLACK
10
6.377952755905512
20
-4.0944881889763778
40
0.0059055118110236
0
CIRCLE
8
BLACK
10
6.9685039370078741
20
-5.9448818897637796
40
0.0059055118110236
0
CIRCLE
8
BLACK
10
6.0826771653543306
20
-3.9960629921259843
40
0.0059055118110236
0
CIRCLE
8
BLACK
10
3.8188976377952755
20
-6.0433070866141732
40
0.0059055118110236
0
CIRCLE
8
BLACK
10
5.393700787401575
20
-5.6496062992125982
40
0.0059055118110236
0
CIRCLE
8
BLACK
10
6.0826771653543306
20
-4.1929133858267713
40
0.0059055118110236
0
CIRCLE
8
BLACK
10
6.9685039370078741
20
-3.9960629921259843
40
0.0059055118110236
0
CIRCLE
8
BLACK
10
4.606299212598425
20
-5.6496062992125982
40
0.0059055118110236
0
CIRCLE
8
BLACK
10
5.0984251968503935
20
-4.0944881889763778
40
0.0059055118110236
0
CIRCLE
8
BLACK
10
7.0669291338582676
20
-4.0944881889763778
40
0.0059055118110236
0
CIRCLE
8
BLACK
10
8.2480314960629926
20
-5.9448818897637796
40
0.0059055118110236
0
CIRCLE
8
BLACK
10
7.8543307086614176
20
-5.7480314960629917
40
0.0059055118110236
0
CIRCLE
8
BLACK
10
4.8031496062992121
20
-3.9960629921259843
40
0.0059055118110236
0
CIRCLE
8
BLACK
10
6.8700787401574805
20
-3.9960629921259843
40
0.0059055118110236
0
CIRCLE
8
BLACK
10
3.8188976377952755
20
-5.8464566929133861
40
0.0059055118110236
0
CIRCLE
8
BLACK
10
7.4606299212598426
20
-4.0944881889763778
40
0.0059055118110236
0
CIRCLE
8
BLACK
10
3.917322834645669
20
-5.6496062992125982
40
0.0059055118110236
0
CIRCLE
8
BLACK
10
5.7874015748031491
20
-4.0944881889763778
40
0.0059055118110236
0
CIRCLE
8
BLACK
10
7.9527559055118111
20
-6.0433070866141732
40
0.0059055118110236
0
CIRCLE
8
BLACK
10
8.3464566929133852
20
-5.9448818897637796
40
0.0059055118110236
0
CIRCLE
8
BLACK
10
4.1141732283464565
20
-5.9448818897637796
40
0.0059055118110236
0
CIRCLE
8
BLACK
10
6.377952755905512
20
-3.9960629921259843
40
0.0059055118110236
0
CIRCLE
8
BLACK
10
8.4448818897637796
20
-4.1929133858267713
40
0.0059055118110236
0
CIRCLE
8
BLACK
10
8.3464566929133852
20
-5.8464566929133861
40
0.0059055118110236
0
CIRCLE
8
BLACK
10
5.
20
-3.9960629921259843
40
0.0059055118110236
0
CIRCLE
8
BLACK
10
6.8700787401574805
20
-5.7480314960629917
40
0.0059055118110236
0
CIRCLE
8
BLACK
10
4.3110236220472444
20
-5.8464566929133861
40
0.0059055118110236
0
CIRCLE
8
BLACK
10
7.7559055118110232
20
-5.3543307086614176
40
0.0059055118110236
0
CIRCLE
8
BLACK
10
5.0984251968503935
20
-6.0433070866141732
40
0.0059055118110236
0
CIRCLE
8
BLACK
10
5.7874015748031491
20
-3.9960629921259843
40
0.0059055118110236
0
CIRCLE
8
BLACK
10
5.2952755905511806
20
-5.6496062992125982
40
0.0059055118110236
0
CIRCLE
8
BLACK
10
7.8543307086614176
20
-5.3543307086614176
40
0.0059055118110236
0
CIRCLE
8
BLACK
10
6.5748031496062991
20
-3.9960629921259843
40
0.0059055118110236
0
CIRCLE
8
BLACK
10
8.3464566929133852
20
-6.0433070866141732
40
0.0059055118110236
0
CIRCLE
8
BLACK
10
6.6732283464566926
20
-5.9448818897637796
40
0.0059055118110236
0
CIRCLE
8
BLACK
10
7.8543307086614176
20
-6.0433070866141732
40
0.0059055118110236
0
CIRCLE
8
BLACK
10
7.6574803149606296
20
-6.0433070866141732
40
0.0059055118110236
0
CIRCLE
8
BLACK
10
6.2795275590551176
20
-5.7480314960629917
40
0.0059055118110236
0
CIRCLE
8
BLACK
10
7.8543307086614176
20
-3.9960629921259843
40
0.0059055118110236
0
CIRCLE
8
BLACK
10
7.2637795275590546
20
-6.0433070866141732
40
0.0059055118110236
0
CIRCLE
8
BLACK
10
6.8700787401574805
20
-5.8464566929133861
40
0.0059055118110236
0
CIRCLE
8
BLACK
10
7.0669291338582676
20
-4.1929133858267713
40
0.0059055118110236
0
CIRCLE
8
BLACK
10
4.21259842519685
20
-5.8464566929133861
40
0.0059055118110236
0
CIRCLE
8
BLACK
10
4.015748031496063
20
-5.9448818897637796
40
0.0059055118110236
0
CIRCLE
8
BLACK
10
6.0826771653543306
20
-6.0433070866141732
40
0.0059055118110236
0
CIRCLE
8
BLACK
10
7.2637795275590546
20
-4.0944881889763778
40
0.0059055118110236
0
CIRCLE
8
BLACK
10
8.0511811023622037
20
-5.9448818897637796
40
0.0059055118110236
0
CIRCLE
8
BLACK
10
7.0669291338582676
20
-6.0433070866141732
40
0.0059055118110236
0
CIRCLE
8
BLACK
10
4.409448818897638
20
-5.3543307086614176
40
0.0059055118110236
0
CIRCLE
8
BLACK
10
8.1496062992125982
20
-5.9448818897637796
40
0.0059055118110236
0
CIRCLE
8
BLACK
10
4.5078740157480315
20
-6.0433070866141732
40
0.0059055118110236
0
CIRCLE
8
BLACK
10
8.0511811023622037
20
-5.6496062992125982
40
0.0059055118110236
0
CIRCLE
8
BLACK
10
5.6889763779527556
20
-6.0433070866141732
40
0.0059055118110236
0
CIRCLE
8
BLACK
10
5.984251968503937
20
-6.0433070866141732
40
0.0059055118110236
0
CIRCLE
8
BLACK
10
4.3110236220472444
20
-5.2559055118110232
40
0.0059055118110236
0
CIRCLE
8
BLACK
10
7.9527559055118111
20
-5.5511811023622046
40
0.0059055118110236
0
CIRCLE
8
BLACK
10
7.7559055118110232
20
-5.6496062992125982
40
0.0059055118110236
0
CIRCLE
8
BLACK
10
7.7559055118110232
20
-5.5511811023622046
40
0.0059055118110236
0
CIRCLE
8
BLACK
10
6.8700787401574805
20
-5.9448818897637796
40
0.0059055118110236
0
CIRCLE
8
BLACK
10
6.0826771653543306
20
-4.0944881889763778
40
0.0059055118110236
0
CIRCLE
8
BLACK
10
4.21259842519685
20
-6.0433070866141732
40
0.0059055118110236
0
CIRCLE
8
BLACK
10
3.8188976377952755
20
-5.7480314960629917
40
0.0059055118110236
0
CIRCLE
8
BLACK
10
4.5078740157480315
20
-5.8464566929133861
40
0.0059055118110236
0
CIRCLE
8
BLACK
10
4.015748031496063
20
-5.8464566929133861
40
0.0059055118110236
0
CIRCLE
8
BLACK
10
6.0826771653543306
20
-5.6496062992125982
40
0.0059055118110236
0
CIRCLE
8
BLACK
10
7.2637795275590546
20
-3.9960629921259843
40
0.0059055118110236
0
CIRCLE
8
BLACK
10
8.1496062992125982
20
-3.9960629921259843
40
0.0059055118110236
0
CIRCLE
8
BLACK
10
7.8543307086614176
20
-5.6496062992125982
40
0.0059055118110236
0
CIRCLE
8
BLACK
10
6.6732283464566926
20
-4.0944881889763778
40
0.0059055118110236
0
CIRCLE
8
BLACK
10
5.6889763779527556
20
-3.9960629921259843
40
0.0059055118110236
0
CIRCLE
8
BLACK
10
4.3110236220472444
20
-5.9448818897637796
40
0.0059055118110236
0
CIRCLE
8
BLACK
10
6.0826771653543306
20
-5.8464566929133861
40
0.0059055118110236
0
CIRCLE
8
BLACK
10
7.5590551181102361
20
-4.0944881889763778
40
0.0059055118110236
0
CIRCLE
8
BLACK
10
3.917322834645669
20
-5.9448818897637796
40
0.0059055118110236
0
CIRCLE
8
BLACK
10
5.6889763779527556
20
-4.0944881889763778
40
0.0059055118110236
0
CIRCLE
8
BLACK
10
5.590551181102362
20
-5.9448818897637796
40
0.0059055118110236
0
CIRCLE
8
BLACK
10
7.7559055118110232
20
-5.7480314960629917
40
0.0059055118110236
0
CIRCLE
8
BLACK
10
6.1811023622047241
20
-5.8464566929133861
40
0.0059055118110236
0
CIRCLE
8
BLACK
10
5.
20
-4.0944881889763778
40
0.0059055118110236
0
CIRCLE
8
BLACK
10
4.606299212598425
20
-6.0433070866141732
40
0.0059055118110236
0
CIRCLE
8
BLACK
10
7.0669291338582676
20
-5.7480314960629917
40
0.0059055118110236
0
CIRCLE
8
BLACK
10
8.4448818897637796
20
-5.8464566929133861
40
0.0059055118110236
0
CIRCLE
8
BLACK
10
5.2952755905511806
20
-5.7480314960629917
40
0.0059055118110236
0
CIRCLE
8
BLACK
10
5.984251968503937
20
-3.9960629921259843
40
0.0059055118110236
0
CIRCLE
8
BLACK
10
7.0669291338582676
20
-5.6496062992125982
40
0.0059055118110236
0
CIRCLE
8
BLACK
10
6.6732283464566926
20
-6.0433070866141732
40
0.0059055118110236
0
CIRCLE
8
BLACK
10
6.7716535433070861
20
-4.0944881889763778
40
0.0059055118110236
0
CIRCLE
8
BLACK
10
8.1496062992125982
20
-5.8464566929133861
40
0.0059055118110236
0
CIRCLE
8
BLACK
10
8.0511811023622037
20
-5.8464566929133861
40
0.0059055118110236
0
CIRCLE
8
BLACK
10
4.015748031496063
20
-5.6496062992125982
40
0.0059055118110236
0
CIRCLE
8
BLACK
10
4.7047244094488185
20
-6.0433070866141732
40
0.0059055118110236
0
CIRCLE
8
BLACK
10
4.606299212598425
20
-5.8464566929133861
40
0.0059055118110236
0
CIRCLE
8
BLACK
10
6.9685039370078741
20
-4.0944881889763778
40
0.0059055118110236
0
CIRCLE
8
BLACK
10
4.21259842519685
20
-5.7480314960629917
40
0.0059055118110236
0
CIRCLE
8
BLACK
10
6.5748031496062991
20
-6.0433070866141732
40
0.0059055118110236
0
CIRCLE
8
BLACK
10
8.3464566929133852
20
-5.7480314960629917
40
0.0059055118110236
0
CIRCLE
8
BLACK
10
5.6889763779527556
20
-4.1929133858267713
40
0.0059055118110236
0
CIRCLE
8
BLACK
10
7.8543307086614176
20
-5.4527559055118111
40
0.0059055118110236
0
CIRCLE
8
BLACK
10
4.7047244094488185
20
-3.9960629921259843
40
0.0059055118110236
0
CIRCLE
8
BLACK
10
8.4448818897637796
20
-5.2559055118110232
40
0.0059055118110236
0
CIRCLE
8
BLACK
10
8.1496062992125982
20
-4.1929133858267713
40
0.0059055118110236
0
CIRCLE
8
BLACK
10
4.1141732283464565
20
-5.6496062992125982
40
0.0059055118110236
0
CIRCLE
8
BLACK
10
7.5590551181102361
20
-6.0433070866141732
40
0.0059055118110236
0
CIRCLE
8
BLACK
10
8.4448818897637796
20
-5.9448818897637796
40
0.0059055118110236
0
CIRCLE
8
BLACK
10
8.4448818897637796
20
-6.0433070866141732
40
0.0059055118110236
0
CIRCLE
8
BLACK
10
7.9527559055118111
20
-3.9960629921259843
40
0.0059055118110236
0
CIRCLE
8
BLACK
10
4.409448818897638
20
-5.4527559055118111
40
0.0059055118110236
0
CIRCLE
8
BLACK
10
7.8543307086614176
20
-5.9448818897637796
40
0.0059055118110236
0
CIRCLE
8
BLACK
10
8.4448818897637796
20
-5.6496062992125982
40
0.0059055118110236
0
CIRCLE
8
BLACK
10
5.1968503937007871
20
-4.0944881889763778
40
0.0059055118110236
0
CIRCLE
8
BLACK
10
4.015748031496063
20
-6.0433070866141732
40
0.0059055118110236
0
CIRCLE
8
BLACK
10
5.4921259842519685
20
-4.1929133858267713
40
0.0059055118110236
0
CIRCLE
8
BLACK
10
4.9015748031496065
20
-3.9960629921259843
40
0.0059055118110236
0
CIRCLE
8
BLACK
10
7.7559055118110232
20
-4.0944881889763778
40
0.0059055118110236
0
CIRCLE
8
BLACK
10
6.0826771653543306
20
-5.7480314960629917
40
0.0059055118110236
0
CIRCLE
8
BLACK
10
3.8188976377952755
20
-4.0944881889763778
40
0.0059055118110236
0
CIRCLE
8
BLACK
10
6.2795275590551176
20
-4.1929133858267713
40
0.0059055118110236
0
CIRCLE
8
BLACK
10
6.2795275590551176
20
-5.6496062992125982
40
0.0059055118110236
0
CIRCLE
8
BLACK
10
8.2480314960629926
20
-5.8464566929133861
40
0.0059055118110236
0
CIRCLE
8
BLACK
10
5.393700787401575
20
-3.9960629921259843
40
0.0059055118110236
0
CIRCLE
8
BLACK
10
7.7559055118110232
20
-5.4527559055118111
40
0.0059055118110236
0
CIRCLE
8
BLACK
10
7.9527559055118111
20
-5.8464566929133861
40
0.0059055118110236
0
CIRCLE
8
BLACK
10
7.9527559055118111
20
-4.1929133858267713
40
0.0059055118110236
0
CIRCLE
8
BLACK
10
4.5078740157480315
20
-4.0944881889763778
40
0.0059055118110236
0
CIRCLE
8
BLACK
10
5.0984251968503935
20
-5.9448818897637796
40
0.0059055118110236
0
CIRCLE
8
BLACK
10
5.393700787401575
20
-6.0433070866141732
40
0.0059055118110236
0
CIRCLE
8
BLACK
10
4.21259842519685
20
-5.9448818897637796
40
0.0059055118110236
0
CIRCLE
8
BLACK
10
8.1496062992125982
20
-4.0944881889763778
40
0.0059055118110236
0
CIRCLE
8
BLACK
10
8.4448818897637796
20
-3.9960629921259843
40
0.0059055118110236
0
CIRCLE
8
BLACK
10
4.606299212598425
20
-4.0944881889763778
40
0.0059055118110236
0
CIRCLE
8
BLACK
10
3.917322834645669
20
-6.0433070866141732
40
0.0059055118110236
0
CIRCLE
8
BLACK
10
7.9527559055118111
20
-4.0944881889763778
40
0.0059055118110236
0
CIRCLE
8
BLACK
10
5.8858267716535435
20
-5.9448818897637796
40
0.0059055118110236
0
CIRCLE
8
BLACK
10
4.7047244094488185
20
-4.0944881889763778
40
0.0059055118110236
0
CIRCLE
8
BLACK
10
7.9527559055118111
20
-5.9448818897637796
40
0.0059055118110236
0
CIRCLE
8
BLACK
10
7.1653543307086611
20
-6.0433070866141732
40
0.0059055118110236
0
CIRCLE
8
BLACK
10
8.2480314960629926
20
-3.9960629921259843
40
0.0059055118110236
0
CIRCLE
8
BLACK
10
4.409448818897638
20
-5.9448818897637796
40
0.0059055118110236
0
CIRCLE
8
BLACK
10
7.7559055118110232
20
-4.1929133858267713
40
0.0059055118110236
0
CIRCLE
8
BLACK
10
7.3622047244094491
20
-3.9960629921259843
40
0.0059055118110236
0
CIRCLE
8
BLACK
10
5.6889763779527556
20
-5.9448818897637796
40
0.0059055118110236
0
CIRCLE
8
BLACK
10
4.1141732283464565
20
-5.8464566929133861
40
0.0059055118110236
0
CIRCLE
8
BLACK
10
6.1811023622047241
20
-6.0433070866141732
40
0.0059055118110236
0
CIRCLE
8
BLACK
10
4.3110236220472444
20
-6.0433070866141732
40
0.0059055118110236
0
CIRCLE
8
BLACK
10
3.917322834645669
20
-4.0944881889763778
40
0.0059055118110236
0
CIRCLE
8
BLACK
10
5.590551181102362
20
-3.9960629921259843
40
0.0059055118110236
0
CIRCLE
8
BLACK
10
5.4921259842519685
20
-6.0433070866141732
40
0.0059055118110236
0
CIRCLE
8
BLACK
10
4.1141732283464565
20
-3.9960629921259843
40
0.0059055118110236
0
CIRCLE
8
BLACK
10
7.9527559055118111
20
-5.3543307086614176
40
0.0059055118110236
0
CIRCLE
8
BLACK
10
7.6574803149606296
20
-5.9448818897637796
40
0.0059055118110236
0
CIRCLE
8
BLACK
10
3.8188976377952755
20
-5.9448818897637796
40
0.0059055118110236
0
CIRCLE
8
BLACK
10
6.9685039370078741
20
-5.7480314960629917
40
0.0059055118110236
0
CIRCLE
8
BLACK
10
5.590551181102362
20
-6.0433070866141732
40
0.0059055118110236
0
CIRCLE
8
BLACK
10
6.377952755905512
20
-5.9448818897637796
40
0.0059055118110236
0
CIRCLE
8
BLACK
10
6.9685039370078741
20
-5.6496062992125982
40
0.0059055118110236
0
CIRCLE
8
BLACK
10
5.7874015748031491
20
-4.1929133858267713
40
0.0059055118110236
0
CIRCLE
8
BLACK
10
6.8700787401574805
20
-4.0944881889763778
40
0.0059055118110236
0
CIRCLE
8
BLACK
10
7.6574803149606296
20
-4.0944881889763778
40
0.0059055118110236
0
CIRCLE
8
BLACK
10
5.2952755905511806
20
-5.8464566929133861
40
0.0059055118110236
0
CIRCLE
8
BLACK
10
7.1653543307086611
20
-4.0944881889763778
40
0.0059055118110236
0
CIRCLE
8
BLACK
10
4.409448818897638
20
-6.0433070866141732
40
0.0059055118110236
0
CIRCLE
8
BLACK
10
7.8543307086614176
20
-5.5511811023622046
40
0.0059055118110236
0
CIRCLE
8
BLACK
10
4.5078740157480315
20
-5.7480314960629917
40
0.0059055118110236
0
CIRCLE
8
BLACK
10
8.3464566929133852
20
-4.1929133858267713
40
0.0059055118110236
0
CIRCLE
8
BLACK
10
5.1968503937007871
20
-4.1929133858267713
40
0.0059055118110236
0
CIRCLE
8
BLACK
10
8.4448818897637796
20
-5.7480314960629917
40
0.0059055118110236
0
CIRCLE
8
BLACK
10
3.8188976377952755
20
-5.2559055118110232
40
0.0059055118110236
0
CIRCLE
8
BLACK
10
7.8543307086614176
20
-4.0944881889763778
40
0.0059055118110236
0
CIRCLE
8
BLACK
10
8.0511811023622037
20
-6.0433070866141732
40
0.0059055118110236
0
CIRCLE
8
BLACK
10
7.7559055118110232
20
-6.0433070866141732
40
0.0059055118110236
0
CIRCLE
8
BLACK
10
4.606299212598425
20
-5.9448818897637796
40
0.0059055118110236
0
CIRCLE
8
BLACK
10
5.2952755905511806
20
-5.9448818897637796
40
0.0059055118110236
0
CIRCLE
8
BLACK
10
7.8543307086614176
20
-4.1929133858267713
40
0.0059055118110236
0
CIRCLE
8
BLACK
10
6.8700787401574805
20
-6.0433070866141732
40
0.0059055118110236
0
CIRCLE
8
BLACK
10
4.3110236220472444
20
-5.5511811023622046
40
0.0059055118110236
0
CIRCLE
8
BLACK
10
7.8543307086614176
20
-5.2559055118110232
40
0.0059055118110236
0
CIRCLE
8
BLACK
10
4.409448818897638
20
-5.7480314960629917
40
0.0059055118110236
0
CIRCLE
8
BLACK
10
6.9685039370078741
20
-5.8464566929133861
40
0.0059055118110236
0
CIRCLE
8
BLACK
10
8.4448818897637796
20
-5.5511811023622046
40
0.0059055118110236
0
CIRCLE
8
BLACK
10
8.3464566929133852
20
-4.0944881889763778
40
0.0059055118110236
0
CIRCLE
8
BLACK
10
6.8700787401574805
20
-5.6496062992125982
40
0.0059055118110236
0
CIRCLE
8
BLACK
10
4.5078740157480315
20
-4.1929133858267713
40
0.0059055118110236
0
CIRCLE
8
BLACK
10
3.8188976377952755
20
-5.3543307086614176
40
0.0059055118110236
0
CIRCLE
8
BLACK
10
7.2637795275590546
20
-5.9448818897637796
40
0.0059055118110236
0
CIRCLE
8
BLACK
10
6.9685039370078741
20
-4.1929133858267713
40
0.0059055118110236
0
CIRCLE
8
BLACK
10
7.7559055118110232
20
-3.9960629921259843
40
0.0059055118110236
0
CIRCLE
8
BLACK
10
5.8858267716535435
20
-6.0433070866141732
40
0.0059055118110236
0
CIRCLE
8
BLACK
10
3.8188976377952755
20
-3.9960629921259843
40
0.0059055118110236
  0
ENDSEC
  0
EOF
